<svg xmlns="http://www.w3.org/2000/svg" viewBox="0 0 512 512">
  <path class="icon-background" fill="none" d="M0 0h512v512H0Z"/>
  <path fill="currentColor" d="M329.26 70c-19.968 0-36.184 16.214-36.184 36.175 0 19.965 7.692 25.687 19.01 31.791l-25.815 52.519c-3.627-.768-7.376-1.146-11.256-1.147-29.955 0-54.245 24.286-54.245 54.231 0 9.834.092 14.042.252 15.812l-77.2 24.751c-5.405-13.16-18.378-22.507-33.513-22.507-15.136 0-36.122 16.152-36.122 36.113 0 19.965 16.219 36.18 36.184 36.18 19.97 0 36.184-16.215 36.184-36.18v-1.588l81.275-26.065c9.284 16.464 26.96 27.653 47.248 27.653s34.596-9.155 44.39-23.078l50.681 41.455a35.94 35.94 0 0 0-4.704 17.802c0 19.965 16.215 36.175 36.184 36.175 19.965 0 36.184-16.21 36.184-36.175s-16.218-36.18-36.184-36.18h-.067c-9.031 0-17.36 3.309-23.653 8.84l-52.466-42.913a54.4 54.4 0 0 0 3.88-20.095c0-21.743-12.78-40.433-31.226-49.08l25.82-52.519a38 38 0 0 0 5.406.384c19.97 0 36.184-16.213 36.184-36.18C365.507 86.217 349.226 70 329.26 70m-11.385 18.886h7.06v11.889h11.51v-11.89h7.059v31.025h-7.06v-12.968h-11.51v12.968h-7.059zM253.33 215.912h13.673l10.75 18.946c3.048 5.467 6.165 11.89 8.457 17.74h.254c-.764-6.805-1.022-13.796-1.022-21.55v-15.136h10.748v51.756h-12.273l-11.064-19.967c-3.054-5.53-6.421-12.204-8.968-18.183h-.254c.322 6.805.446 14.117.446 22.571v15.58H253.33zm-30.89 42.042c.155-.014.319.209.494.813l-1.117.357c.19-.625.382-1.148.623-1.17m-123.832 24.02h7.06v11.951h11.576v-11.951h6.993v31.086h-6.993v-13.03h-11.577v13.03h-7.06zm290.745 35.158h7.06v11.951h11.576v-11.951h6.993v31.091h-6.993v-13.035h-11.577v13.035h-7.06zM181.406 370.03v62.115h12.91v-18.69c0-10.109-.19-18.885-.575-27.086h.254c3.056 7.184 7.127 15.198 10.815 21.873l13.289 23.97h14.752v-62.12h-12.906v18.186l-.067-.063c0 9.28.253 17.672 1.209 25.873h-.255c-2.734-6.993-6.42-14.747-10.11-21.298l-12.91-22.76Zm63.53 0v62.115h14.119v-26.003h23.144v26.003h13.99V370.03h-13.99v23.84h-23.144v-23.84zm70.968 30.645c-5.151 0-9.923 1.463-12.335 2.987l1.904 6.739c1.655-1.017 4.39-2.413 8.33-2.413 3.948 0 5.919.825 5.919 4.192 0 3.371-4.01 4.58-7.122 4.58h-3.626v6.676h3.813c4.135 0 8.076 2.733 8.076 5.72 0 2.99-3.495 5.343-7.314 5.343-3.812 0-7.63-1.591-9.284-2.479l-.063.192-1.908 6.992c2.354 1.462 1.783 2.796 11.893 2.796s16.344-6.992 16.344-12.205-3.88-8.84-8.646-9.731v-.125c4.897-1.716 7.308-3.817 7.308-9.284s-4.766-9.98-13.289-9.98"/>
</svg>
