<svg xmlns="http://www.w3.org/2000/svg" xml:space="preserve" viewBox="0 0 512 512">
  <path class="icon-background" fill="none" d="M0 0h512v512H0Z"/>
  <path class="icon-primary" fill="currencolor" d="M355.75 85c-3.563 0-7.124 1.425-9.973 4.276l-171 171c-2.851 1.425-4.277 4.274-4.277 7.124l-14.248 71.249c0 4.275 1.422 9.977 4.272 12.827s5.701 4.273 9.976 4.273h2.852L244.6 341.5c2.85-1.425 5.7-2.85 7.124-4.276l171-171c5.701-5.7 5.701-14.249 0-19.95l-56.998-56.998c-2.85-2.85-6.415-4.276-9.976-4.276m-216.6 28.5c-29.925 0-54.15 24.226-54.15 54.15v205.2c0 29.925 24.225 54.15 54.152 54.15H344.35c29.924 0 54.15-24.225 52.726-54.151v-102.6c0-8.55-5.701-14.249-14.25-14.249-8.55 0-14.252 5.7-14.252 14.25v101.175a25.54 25.54 0 0 1-25.649 25.65H139.15a25.54 25.54 0 0 1-25.648-25.65V167.651a25.545 25.545 0 0 1 25.648-25.652h102.6c8.55 0 14.25-5.7 14.25-14.25s-5.7-14.248-14.25-14.248H139.153Zm216.6 5.7 37.05 37.05-158.174 158.174-45.601 8.55 8.55-45.601z"/>
</svg>
