<svg xmlns="http://www.w3.org/2000/svg" xml:space="preserve" viewBox="0 0 512 512"><circle cx="256" cy="256" r="256" fill="#e3e9ff"/><path fill="#002ba5" d="M346.813 100.32c-3.244 0-6.486 1.298-9.08 3.893l-155.68 155.68c-2.595 1.297-3.893 3.891-3.893 6.486l-12.972 64.865c0 3.892 1.295 9.083 3.89 11.678 2.595 2.595 5.19 3.89 9.082 3.89h2.596l64.865-12.972c2.595-1.297 5.19-2.595 6.486-3.893l155.68-155.68c5.19-5.189 5.19-12.972 0-18.162l-51.892-51.892c-2.595-2.595-5.84-3.893-9.082-3.893zm-197.194 25.948c-27.244 0-49.299 22.055-49.299 49.298v186.815c0 27.244 22.055 49.299 49.3 49.299h186.814c27.243 0 49.299-22.055 48.002-49.3v-93.407c0-7.784-5.19-12.973-12.973-12.973-7.784 0-12.975 5.189-12.975 12.973v92.111a23.254 23.254 0 0 1-23.351 23.352H149.619a23.254 23.254 0 0 1-23.351-23.352V175.566a23.256 23.256 0 0 1 23.351-23.353h93.408c7.784 0 12.973-5.189 12.973-12.973 0-7.784-5.189-12.972-12.973-12.972H149.62zm197.194 5.189 33.73 33.73-144.002 144.004-41.516 7.784 7.784-41.516 144.004-144.002z"/></svg>