<svg xmlns="http://www.w3.org/2000/svg" viewBox="0 0 512 512">
  <path class="icon-background" fill="none" d="M0 0h512v512H0Z"/>
  <path class="icon-primary" fill="#1185fe" d="M159.133 125.705c39.21 29.438 81.38 89.123 96.867 121.151 15.486-32.028 57.658-91.713 96.867-121.15C381.16 104.465 427 88.031 427 140.325c0 10.444-5.988 87.736-9.5 100.286-12.208 43.624-56.692 54.75-96.263 48.016C390.405 300.401 408 339.394 370 378.386c-72.17 74.055-103.728-18.58-111.813-42.317-1.483-4.351-2.178-6.386-2.187-4.656-.01-1.731-.704.305-2.187 4.656-8.085 23.737-39.644 116.373-111.813 42.317-38-38.992-20.405-77.985 48.762-89.758-39.57 6.735-84.054-4.392-96.262-48.016-3.512-12.55-9.5-89.842-9.5-100.286 0-52.294 45.841-35.86 74.133-14.62z"/>
</svg>
