<svg xmlns="http://www.w3.org/2000/svg" viewBox="0 0 512 512">
  <path class="icon-background" fill="none" d="M0 0h512v512H0Z"/>
  <path fill="currentColor" d="M386.854 70.048a30.177 30.177 0 0 0-5.947.253c-.991.141-1.965.326-2.928.565a30.187 30.187 0 0 0-5.62 1.969L271.778 119.7l-2.09-4.481a6.424 6.424 0 0 0-.63-1.057 6.599 6.599 0 0 0-.818-.912 6.18 6.18 0 0 0-2.085-1.264 6.236 6.236 0 0 0-2.415-.373 6.178 6.178 0 0 0-2.375.58l-17.205 8.004a6.165 6.165 0 0 0-2.71 2.425 6.225 6.225 0 0 0-.534 1.103c-.14.389-.237.782-.298 1.192a5.63 5.63 0 0 0-.07 1.223 5.997 5.997 0 0 0 .172 1.212 6.424 6.424 0 0 0 .409 1.16l29.885 63.978c.73 1.56 1.903 2.636 3.526 3.227a6.313 6.313 0 0 0 2.144.373 6.273 6.273 0 0 0 2.622-.575l17.21-8.01a6.38 6.38 0 0 0 1.057-.626 6.49 6.49 0 0 0 .912-.819c.275-.3.523-.626.736-.979a6.287 6.287 0 0 0 .901-3.518 6.13 6.13 0 0 0-.58-2.367l-2.088-4.474 100.584-46.868a30.312 30.312 0 0 0 5.124-3.035 29.425 29.425 0 0 0 2.31-1.881 29.775 29.775 0 0 0 4.021-4.388 30.131 30.131 0 0 0 1.67-2.466c.518-.85.987-1.725 1.418-2.622.43-.896.818-1.808 1.155-2.74a29.174 29.174 0 0 0 .88-2.85 29.105 29.105 0 0 0 .602-2.917 31.38 31.38 0 0 0 .31-2.963c.052-.99.059-1.984.019-2.974a30.216 30.216 0 0 0-1.684-8.75 29.683 29.683 0 0 0-2.52-5.388 31.956 31.956 0 0 0-1.643-2.487c-.59-.8-1.217-1.569-1.88-2.31a33.648 33.648 0 0 0-2.098-2.114 32.066 32.066 0 0 0-2.296-1.901 30.478 30.478 0 0 0-2.47-1.663 30.059 30.059 0 0 0-8.217-3.45 29.907 29.907 0 0 0-5.886-.907zm-2.43 12.47a17.565 17.565 0 0 1 3.497.191 17.454 17.454 0 0 1 3.396.87c1.098.4 2.149.902 3.153 1.513a17.57 17.57 0 0 1 2.803 2.099 17.678 17.678 0 0 1 2.336 2.6 18 18 0 0 1 1.787 3.01 18.216 18.216 0 0 1 1.164 3.3 18.203 18.203 0 0 1 .49 3.467 17.876 17.876 0 0 1-.198 3.491 17.682 17.682 0 0 1-2.383 6.544 17.764 17.764 0 0 1-2.098 2.797 17.984 17.984 0 0 1-5.621 4.124l-11.76 5.484-4.285-9.183a5.954 5.954 0 0 0-.611-1.072 6.284 6.284 0 0 0-2.912-2.228 5.928 5.928 0 0 0-1.197-.31 6.194 6.194 0 0 0-1.238-.079 6.443 6.443 0 0 0-2.393.586c-.378.17-.73.383-1.068.627a6.36 6.36 0 0 0-1.657 1.823 6.145 6.145 0 0 0-.824 2.316 6.183 6.183 0 0 0 .134 2.46 6.233 6.233 0 0 0 .425 1.161l4.282 9.186-12.67 5.903-4.279-9.188a5.779 5.779 0 0 0-.614-1.072 6.284 6.284 0 0 0-4.105-2.544 6.557 6.557 0 0 0-1.239-.072 6.149 6.149 0 0 0-2.393.58 6.55 6.55 0 0 0-1.067.632 6.313 6.313 0 0 0-1.658 1.823 6.08 6.08 0 0 0-.824 2.316 6.19 6.19 0 0 0 .137 2.461 6.233 6.233 0 0 0 .423 1.16l4.282 9.191-12.673 5.909-4.281-9.193a6.293 6.293 0 0 0-2.415-2.756 6.32 6.32 0 0 0-1.114-.544 5.928 5.928 0 0 0-1.196-.311 5.775 5.775 0 0 0-1.238-.073 6.062 6.062 0 0 0-1.223.171 5.956 5.956 0 0 0-1.171.41c-.373.17-.73.382-1.062.626a6.38 6.38 0 0 0-.922.83 6.326 6.326 0 0 0-1.565 3.31 6.196 6.196 0 0 0-.049 1.238 6.233 6.233 0 0 0 .609 2.383l4.284 9.196-12.667 5.903-4.287-9.198a6.324 6.324 0 0 0-1.432-2.005 6.524 6.524 0 0 0-.985-.751 6.366 6.366 0 0 0-2.31-.86 6.612 6.612 0 0 0-1.233-.073 6.314 6.314 0 0 0-2.394.58 6.59 6.59 0 0 0-1.067.633c-.332.249-.636.523-.914.829-.28.305-.532.636-.744.994a6.08 6.08 0 0 0-.824 2.316 6.183 6.183 0 0 0-.057 1.238 6.18 6.18 0 0 0 .19 1.223 6.25 6.25 0 0 0 .427 1.16l4.29 9.201-5.44 2.536-15.1-32.356 100.577-46.886a17.723 17.723 0 0 1 3.305-1.155 17.88 17.88 0 0 1 3.466-.492zm-123.447 43.658 1.966 4.21a6.55 6.55 0 0 0 .091.26l20.428 43.695c.01.023.025.04.036.063l2.052 4.393-5.84 2.72-24.566-52.637zm-32.651 9.942a14.637 14.637 0 0 0-2.852.28 14.578 14.578 0 0 0-5.275 2.18 14.596 14.596 0 0 0-2.212 22.475 14.597 14.597 0 0 0 2.212 1.818c.804.53 1.643.978 2.529 1.347a14.637 14.637 0 0 0 5.595 1.114c.964-.007 1.913-.1 2.855-.285a14.616 14.616 0 0 0 2.74-.834c.886-.367 1.73-.818 2.528-1.347a14.537 14.537 0 0 0 2.213-1.818 14.585 14.585 0 0 0 4.007-7.476 15.013 15.013 0 0 0 .282-2.85 14.637 14.637 0 0 0-4.284-10.33 14.95 14.95 0 0 0-2.218-1.813 14.443 14.443 0 0 0-2.528-1.353 14.386 14.386 0 0 0-2.74-.829 14.637 14.637 0 0 0-2.852-.28zm-.003 12.465a2.076 2.076 0 0 1 .813.165 2.03 2.03 0 0 1 .689.467 2.058 2.058 0 0 1 .45.694c.11.259.156.535.156.813a2.109 2.109 0 0 1-1.298 1.943 2.105 2.105 0 0 1-1.61 0 2.109 2.109 0 0 1-1.301-1.943 2.04 2.04 0 0 1 .158-.803 2.109 2.109 0 0 1 1.943-1.3zm-40.395 19.101a14.253 14.253 0 0 0-10.084 4.17 14.253 14.253 0 0 0-3.09 4.624 14.297 14.297 0 0 0-1.088 5.453 14.31 14.31 0 0 0 .274 2.782 14.602 14.602 0 0 0 .814 2.674 14.116 14.116 0 0 0 1.323 2.466 13.846 13.846 0 0 0 1.77 2.155 13.879 13.879 0 0 0 2.165 1.772 14.195 14.195 0 0 0 5.14 2.124c.922.187 1.849.274 2.781.274.938 0 1.867-.094 2.785-.28.916-.181 1.807-.45 2.673-.808a14.423 14.423 0 0 0 4.614-3.087 14.21 14.21 0 0 0 3.906-7.29 14.675 14.675 0 0 0 .28-2.777 14.297 14.297 0 0 0-1.083-5.45 14.279 14.279 0 0 0-3.093-4.626 14.195 14.195 0 0 0-7.297-3.901 14.004 14.004 0 0 0-2.79-.275zm42.078 8.087a17.285 17.285 0 0 0-5.03.244 17.45 17.45 0 0 0-3.217.974 17.736 17.736 0 0 0-2.966 1.585 17.122 17.122 0 0 0-6.324 7.699 16.999 16.999 0 0 0-.979 3.217 17.076 17.076 0 0 0 .98 9.906 17.089 17.089 0 0 0 6.323 7.693 17.01 17.01 0 0 0 2.966 1.585 17.466 17.466 0 0 0 3.217.98c1.103.217 2.222.326 3.347.326 1.13 0 2.243-.114 3.346-.337a17.485 17.485 0 0 0 3.218-.98 17.891 17.891 0 0 0 2.963-1.584 17.297 17.297 0 0 0 6.32-7.689c.43-1.04.76-2.113.982-3.217.223-1.1.334-2.212.334-3.342 0-1.124-.109-2.236-.326-3.341a17.395 17.395 0 0 0-.98-3.217 16.862 16.862 0 0 0-1.584-2.964 17.122 17.122 0 0 0-7.704-6.32 17.285 17.285 0 0 0-4.886-1.218zm-42.073 4.41a1.73 1.73 0 0 1 1.233.512c.16.166.285.352.373.565a1.745 1.745 0 0 1-.948 2.274 1.74 1.74 0 0 1-.668.137 1.77 1.77 0 0 1-1.233-.515 1.798 1.798 0 0 1-.378-.57 1.724 1.724 0 0 1 .388-1.896c.16-.166.353-.29.565-.378.218-.09.44-.13.668-.13zm40.39 8.009a4.671 4.671 0 0 1 1.782.352 4.761 4.761 0 0 1 1.51 1.01 4.584 4.584 0 0 1 1.002 1.502c.24.57.353 1.167.353 1.777 0 .617-.114 1.207-.353 1.777a4.526 4.526 0 0 1-1.005 1.508 4.66 4.66 0 0 1-3.29 1.357 4.543 4.543 0 0 1-1.776-.352 4.56 4.56 0 0 1-1.508-1.005 4.567 4.567 0 0 1-1.005-1.508 4.576 4.576 0 0 1 0-3.554 4.584 4.584 0 0 1 1.005-1.502 4.646 4.646 0 0 1 3.285-1.362zm-38.999 23.37c-.695 0-1.387.037-2.077.104a20.846 20.846 0 0 0-4.072.813c-.663.196-1.317.434-1.959.7-.643.263-1.264.559-1.875.885a21.366 21.366 0 0 0-4.997 3.704c-.49.487-.95 1.006-1.39 1.54-.441.532-.854 1.092-1.239 1.667-.389.576-.741 1.171-1.067 1.783-.332.61-.626 1.238-.891 1.875a21.902 21.902 0 0 0-.7 1.958 21.372 21.372 0 0 0-.914 6.145 21.346 21.346 0 0 0 .41 4.129 21.499 21.499 0 0 0 1.205 3.968 19.987 19.987 0 0 0 .89 1.876 20 20 0 0 0 1.067 1.782 20.43 20.43 0 0 0 1.238 1.668 21.781 21.781 0 0 0 2.933 2.937 22.77 22.77 0 0 0 1.668 1.239 21.406 21.406 0 0 0 1.787 1.064 21.163 21.163 0 0 0 9.983 2.503h.275v47.68l-88.814 108.828a19.15 19.15 0 0 0-2.813 4.657 19.244 19.244 0 0 0-1.404 5.253 19.295 19.295 0 0 0 1.73 10.626 19.21 19.21 0 0 0 3.005 4.533 18.99 18.99 0 0 0 4.145 3.523 19.191 19.191 0 0 0 4.963 2.233c1.756.513 3.554.767 5.383.767H329.117a19.365 19.365 0 0 0 10.349-2.995 19.284 19.284 0 0 0 4.152-3.522 19.191 19.191 0 0 0 3-4.534 19.332 19.332 0 0 0 .331-15.884 19.48 19.48 0 0 0-2.813-4.657L255.317 301.58v-47.679h.275c.693 0 1.382-.032 2.072-.103a19.483 19.483 0 0 0 2.057-.306 20.451 20.451 0 0 0 3.974-1.207 20.743 20.743 0 0 0 3.662-1.953 20.694 20.694 0 0 0 3.207-2.637 19.708 19.708 0 0 0 1.399-1.539c.436-.534.85-1.094 1.238-1.67a21.328 21.328 0 0 0 2.653-5.614 20.747 20.747 0 0 0 .813-4.067 21.24 21.24 0 0 0 .099-2.072c0-.694-.031-1.388-.099-2.078a22.622 22.622 0 0 0-.305-2.051 20.735 20.735 0 0 0-.508-2.016 21.91 21.91 0 0 0-.7-1.958 21.315 21.315 0 0 0-1.953-3.658 20.694 20.694 0 0 0-2.637-3.206 20.088 20.088 0 0 0-1.538-1.394 21.04 21.04 0 0 0-1.669-1.238 20.27 20.27 0 0 0-1.782-1.073 21.265 21.265 0 0 0-9.983-2.502zm-.003 12.511h66.267a8.454 8.454 0 0 1 1.692.171 8.532 8.532 0 0 1 3.124 1.296 8.682 8.682 0 0 1 3.189 3.885 8.92 8.92 0 0 1 .492 1.627 8.764 8.764 0 0 1-.492 5.005 8.671 8.671 0 0 1-1.88 2.808 8.671 8.671 0 0 1-4.436 2.377 8.846 8.846 0 0 1-1.689.166h-6.532a6.51 6.51 0 0 0-1.223.12 6.57 6.57 0 0 0-1.171.357c-.383.156-.74.347-1.083.58a6.46 6.46 0 0 0-1.73 1.72 6.171 6.171 0 0 0-.573 1.083 5.769 5.769 0 0 0-.36 1.176c-.078.4-.119.808-.119 1.217v56.15a6.052 6.052 0 0 0 1.41 3.942l42.37 51.919c-22.569 4.861-45.678 1.254-63.306-10.214a4.509 4.509 0 0 0-.518-.295c-14.194-7.431-30.513-11.072-47.13-10.673l25.08-30.737c.938-1.143 1.405-2.461 1.405-3.943V247.66c0-.408-.036-.82-.12-1.217a6.151 6.151 0 0 0-.932-2.259 6.206 6.206 0 0 0-1.725-1.72 5.874 5.874 0 0 0-1.083-.58 6.542 6.542 0 0 0-1.173-.358 6.384 6.384 0 0 0-1.218-.119h-6.536a8.682 8.682 0 0 1-6.128-2.543 8.647 8.647 0 0 1-2.365-4.435 8.415 8.415 0 0 1 0-3.378 8.445 8.445 0 0 1 .49-1.627c.217-.524.481-1.02.797-1.497a8.682 8.682 0 0 1 1.078-1.308 8.718 8.718 0 0 1 4.434-2.376 8.459 8.459 0 0 1 1.694-.17zm-12.75 126.89c14.179-.24 28.05 2.882 40.123 9.142 14.496 9.355 32.06 14.169 50.25 14.169a105.745 105.745 0 0 0 28.298-3.984l39.192 48.026a6.826 6.826 0 0 1 1.451 5.429 6.858 6.858 0 0 1-6.771 5.75H115.792c-.648 0-1.28-.088-1.902-.269a6.909 6.909 0 0 1-3.222-2.041 6.825 6.825 0 0 1-1.17-7.222c.254-.6.585-1.145.994-1.647l54.128-66.337c3.987-.6 7.981-.949 11.952-1.016zm27.94 5.163a13.865 13.865 0 0 0-5.243 1.041c-.834.348-1.622.767-2.372 1.264a13.915 13.915 0 0 0-2.078 1.705 13.992 13.992 0 0 0-1.704 2.077 13.492 13.492 0 0 0-1.264 2.365 13.447 13.447 0 0 0-1.042 5.24 13.447 13.447 0 0 0 1.042 5.238 13.479 13.479 0 0 0 1.264 2.368c.502.75 1.073 1.44 1.704 2.077a13.934 13.934 0 0 0 2.078 1.705 14.074 14.074 0 0 0 2.372 1.264 13.865 13.865 0 0 0 5.243 1.041v.003a13.598 13.598 0 0 0 5.243-1.049 14.028 14.028 0 0 0 2.368-1.264 13.916 13.916 0 0 0 2.077-1.704 13.893 13.893 0 0 0 1.705-2.073 13.856 13.856 0 0 0 1.264-2.367 13.585 13.585 0 0 0 1.046-5.238 13.447 13.447 0 0 0-1.04-5.238 13.467 13.467 0 0 0-1.265-2.367 13.96 13.96 0 0 0-1.704-2.078c-.637-.638-1.331-1.2-2.078-1.704a13.746 13.746 0 0 0-7.616-2.306zm0 12.506a1.147 1.147 0 0 1 .853.358 1.163 1.163 0 0 1 .339.86 1.147 1.147 0 0 1-.352.839 1.14 1.14 0 0 1-.84.347 1.142 1.142 0 0 1-.839-.347 1.142 1.142 0 0 1-.347-.84 1.142 1.142 0 0 1 .347-.839 1.142 1.142 0 0 1 .84-.347zm56.004 18.54a14.971 14.971 0 0 0-2.963.295c-.979.192-1.928.483-2.85.862a15.22 15.22 0 0 0-4.932 3.295 15.374 15.374 0 0 0-1.885 2.295 14.959 14.959 0 0 0-1.404 2.627 14.739 14.739 0 0 0-.863 2.85 14.751 14.751 0 0 0-.293 2.958 15.004 15.004 0 0 0 .29 2.963c.193.975.482 1.927.866 2.844a14.873 14.873 0 0 0 1.404 2.627 15.16 15.16 0 0 0 1.885 2.3 15.459 15.459 0 0 0 2.308 1.886c.828.556 1.701 1.02 2.625 1.404a15.178 15.178 0 0 0 2.849.86c.979.198 1.965.295 2.963.295a15.194 15.194 0 0 0 5.813-1.163 15.459 15.459 0 0 0 4.927-3.287 15.16 15.16 0 0 0 1.886-2.3 15.521 15.521 0 0 0 1.404-2.622 14.818 14.818 0 0 0 .865-2.85 14.96 14.96 0 0 0 .295-2.957 15.097 15.097 0 0 0-4.45-10.73 15.214 15.214 0 0 0-2.3-1.893 15.22 15.22 0 0 0-5.476-2.264 14.971 14.971 0 0 0-2.964-.296zm-77.61 10.415a13.688 13.688 0 0 0-2.673.265 13.677 13.677 0 0 0-7.018 3.745 13.677 13.677 0 0 0-3.75 12.356 13.503 13.503 0 0 0 2.046 4.932c.497.752 1.068 1.441 1.704 2.078a13.342 13.342 0 0 0 2.078 1.7 13.69 13.69 0 0 0 2.368 1.269 13.984 13.984 0 0 0 2.57.777c.885.176 1.776.264 2.678.264a13.585 13.585 0 0 0 5.237-1.047 14.077 14.077 0 0 0 2.373-1.264 13.893 13.893 0 0 0 3.777-3.777 13.882 13.882 0 0 0 1.27-2.367 13.88 13.88 0 0 0 .782-2.57 13.598 13.598 0 0 0 0-5.341 14.047 14.047 0 0 0-.778-2.572 13.662 13.662 0 0 0-1.269-2.36 13.677 13.677 0 0 0-6.15-5.046 13.688 13.688 0 0 0-5.245-1.042zm77.61 2.093a2.702 2.702 0 0 1 1.026.202 2.732 2.732 0 0 1 .865.58 2.657 2.657 0 0 1 .783 1.892 2.649 2.649 0 0 1-.783 1.89c-.248.25-.539.446-.865.58a2.702 2.702 0 0 1-2.051 0 2.687 2.687 0 0 1-1.653-2.47 2.662 2.662 0 0 1 .207-1.02 2.59 2.59 0 0 1 .58-.871 2.732 2.732 0 0 1 .866-.58 2.669 2.669 0 0 1 1.025-.203zm-77.607 10.419a1.16 1.16 0 0 1 .847.352 1.149 1.149 0 0 1 .339.85 1.16 1.16 0 0 1-.34.844 1.152 1.152 0 0 1-.841.353 1.14 1.14 0 0 1-.845-.342 1.15 1.15 0 0 1-.352-.845 1.142 1.142 0 0 1 .347-.84c.234-.233.513-.346.845-.346z"/>
</svg>
