<svg xmlns="http://www.w3.org/2000/svg" xml:space="preserve" viewBox="0 0 512 512"><circle cx="256" cy="256" r="256" fill="#e3e9ff"/><path fill="#002ba5" d="M192.818 80.921c-7.48 0-13.547 6.064-13.547 13.547 0 7.48 6.064 13.547 13.547 13.547h131.145v15.723h-6.54c-5.55 0-10.306 3.39-12.318 8.212-3.04-.492-6.137-.818-9.313-.818H194.179c-32.157 0-58.32 26.164-58.32 58.324v174.507c0 32.157 26.162 58.32 58.32 58.32h101.613c27.683 0 50.875-19.4 56.81-45.306h8.156c8.443 0 15.293-7.933 15.293-17.715s-6.846-17.713-15.29-17.713H306.84c-8.444 0-15.29 7.93-15.29 17.713s6.847 17.715 15.291 17.715h7.028c-4.054 5.615-10.637 9.29-18.077 9.29H194.179c-12.296 0-22.303-10.006-22.303-22.303v-174.51c0-12.296 10.005-22.304 22.303-22.304h101.613c2.929 0 5.721.58 8.286 1.612v5.69c0 7.057 5.486 12.824 12.427 13.298a7.825 6.349 0 0 0-.279 1.422v14.662l-.664.457v10.73l.664-.458v15.44l-.55.377v10.73l.55-.378v28.947a7.825 6.349 0 0 0 .073.37h-7.741c-8.444 0-15.288 7.93-15.288 17.713 0 9.785 6.846 17.713 15.29 17.713h53.918c8.444 0 15.29-7.93 15.29-17.713s-6.844-17.713-15.287-17.713h-6.515a7.824 6.349 0 0 0 .022-.37v-80.507a7.825 6.349 0 0 0-.277-1.42c6.94-.472 12.429-6.24 12.429-13.3v-37.369c0-7.37-5.976-13.345-13.347-13.345h-6.54v-15.723h20.694c7.483 0 13.548-6.064 13.547-13.547 0-7.48-6.064-13.547-13.547-13.547z"/></svg>