<svg xmlns="http://www.w3.org/2000/svg" xml:space="preserve" viewBox="0 0 512 512">
  <path class="icon-background" fill="none" d="M0 0h512v512H0Z"/>
  <path class="icon-primary" fill="currentcolor" d="M255.478 84.422a42.74 42.74 0 0 0-41.405 32.14h-19.126a25.003 25.003 0 0 0-24.895 24.893v39.216H341.01v-39.216a25.003 25.003 0 0 0-24.896-24.894h-19.233a42.74 42.74 0 0 0-41.403-32.139m.053 21.455a21.368 21.368 0 0 1 21.369 21.37v10.683h39.213a3.528 3.528 0 0 1 3.528 3.525V159.3h-128.22v-17.845a3.528 3.528 0 0 1 3.526-3.525h39.214v-10.684a21.368 21.368 0 0 1 21.37-21.37M137.998 116.56a18.699 18.699 0 0 0-21.371 18.057v273.749a18.165 18.165 0 0 0 18.272 18.056h241.263a18.165 18.165 0 0 0 18.273-18.056V134.617a18.165 18.165 0 0 0-18.273-18.056h-24.467v21.37h21.368v267.12H137.998V137.93h21.37v-21.368h-21.37zm42.738 96.166v21.367h149.59v-21.367zm0 42.737v21.371h149.59v-21.37Zm0 42.74v21.37h149.59v-21.37zm0 42.74v21.37h149.59v-21.37z"/>  
</svg>