<svg xmlns="http://www.w3.org/2000/svg" xml:space="preserve" viewBox="0 0 512 512"><circle cx="256" cy="256" r="256" fill="#e3e9ff"/><path fill="#002ba5" d="M255.947 84.422a42.884 42.884 0 0 0-41.545 32.248h-19.19a25.087 25.087 0 0 0-24.98 24.978v39.348h171.536v-39.348a25.087 25.087 0 0 0-24.98-24.978H297.49a42.884 42.884 0 0 0-41.543-32.248m.053 21.527a21.44 21.44 0 0 1 21.441 21.442v10.72h39.346a3.54 3.54 0 0 1 3.54 3.537v17.905H191.673v-17.905a3.54 3.54 0 0 1 3.539-3.537h39.346v-10.72A21.44 21.44 0 0 1 256 105.949m-117.93 10.72a18.762 18.762 0 0 0-21.443 18.118V409.46a18.226 18.226 0 0 0 18.334 18.117h242.078a18.226 18.226 0 0 0 18.334-18.117V134.787a18.226 18.226 0 0 0-18.334-18.117h-24.55v21.441h21.44v268.024H138.07V138.11h21.442v-21.44H138.07zm42.883 96.49v21.44h150.094v-21.44zm0 42.882v21.443h150.094v-21.443zm0 42.885v21.441h150.094v-21.441zm0 42.883v21.443h150.094v-21.443z"/></svg>