<svg xmlns="http://www.w3.org/2000/svg" xml:space="preserve" viewBox="0 0 350 100">
  <path class="icon-background" fill="#ffffff00" d="M0 0h350v100H0Z"/>
  <path fill="#00c72e" d="M8.466 84.44s.538-4.484 1.768-7.342c.94-2.184 2.002-4.123 3.456-6.004 1.77-2.29 3.152-4.252 5.42-6.05 2.271-1.8 4.301-3.414 6.934-4.622 1.9-.872 3.773-1.849 5.823-2.249 8.827-1.723 17.93-1.419 26.895-2.128s18.01-.737 26.894-2.128c1.81-.283 3.63-.624 5.347-1.26 1.606-.596 3.133-1.42 4.562-2.365 1.927-1.275 3.62-2.876 5.347-4.414a45 45 0 0 0 3.637-3.665c.748-.838 2.221-3.113 2.221-3.113s-.923 7.256-1.769 10.561c-.8 3.123-2.078 6.213-3.535 9.087-1.33 2.625-2.894 4.952-4.921 7.084-1.78 1.87-3.765 3.326-5.967 4.673-1.682 1.028-3.761 2.08-5.681 2.522-8.617 1.978-17.235.464-26.075.556s-17.569-.237-26.408-.112c-1.403.02-3.24.047-4.627.26-2.377.367-4.859.802-7.073 1.744-1.664.707-3.351 1.698-4.87 2.68-1.8 1.16-2.616 1.83-4.325 3.119-1.433 1.08-3.053 3.167-3.053 3.167z"/>
  <path fill="#ef940a" d="M9.422 62.293s.967-10.317 3.878-15.836c3.088-5.856 4.15-7.697 9.683-11.518 5.19-3.584 12.415-4.871 18.703-5.296 7.843-.53 15.735.982 23.577.446 4.791-.328 9.377-1.374 13.985-2.731 4.044-1.19 7.646-3.427 11.816-4.626 3.81-1.095 7.835-1.646 11.788-1.365 1.92.137 6.117 1.672 6.117 1.672s-5.384 2.268-8.341 5.796c-2.26 2.695-4.39 5.623-7.034 7.941-1.875 1.645-3.745 3.416-6.033 4.403-4.288 1.85-9.212 1.721-13.846 2.285-6.712.816-13.484 1.078-20.24 1.337-6.891.265-14.258-.907-21.118-.21-2.33.236-4.22.74-6.424 1.534-2.622.946-4.027 1.657-6.259 3.33-2.266 1.7-5.852 6.121-5.852 6.121z"/>
  <path fill="#fff" d="m35.368 11.5 34.62.093c.52.302 16.21 16.001 16.21 16.001l.064 48.994c.002 1.672-.248 2.469-2.413 2.469H35.367c-2.483 0-3.01-.236-3.01-2.712V14.519c0-2.668.297-3.025 3.01-3.019z" color="#000"/>
  <path class="icon-primary" fill="#0318a6" d="M34.032 11.5a1.7 1.7 0 0 0-1.675 1.68v64.197c0 .91.768 1.68 1.675 1.68h50.554c.908 0 1.676-.77 1.676-1.68V28.521l-.103-.105a1.295 1.298 0 0 0-.307-1.404L78.07 19.5l-7.56-7.605a1.295 1.298 0 0 0-.522-.302l-.086-.093zm1.346 3.028h32.919v13.418a1.295 1.298 0 0 0 1.295 1.298H83.24v46.785H35.378Zm35.508 1.424 5.359 5.39.02.018 5.478 5.288H70.886Z" color="#000"/>
  <path fill="#504e4d" d="M42.015 21.237a3.233 3.233 0 0 0-3.238 3.243 3.235 3.235 0 0 0 3.238 3.244h15.104a3.235 3.235 0 0 0 3.238-3.244 3.233 3.233 0 0 0-3.238-3.243zm-1.08 11.34a2.154 2.154 0 0 0-2.158 2.162c0 1.198.962 2.164 2.157 2.164h34.528a2.156 2.156 0 0 0 2.156-2.164 2.154 2.154 0 0 0-2.156-2.162zm0 7.921a2.154 2.154 0 0 0-2.158 2.162c0 1.198.962 2.164 2.157 2.164h34.528a2.156 2.156 0 0 0 2.156-2.164 2.154 2.154 0 0 0-2.156-2.162zm0 7.921a2.154 2.154 0 0 0-2.158 2.162c0 1.198.962 2.164 2.157 2.164h34.528a2.156 2.156 0 0 0 2.156-2.164 2.154 2.154 0 0 0-2.156-2.162zm0 7.921a2.156 2.156 0 0 0-2.158 2.164c0 1.198.962 2.162 2.157 2.162h34.528a2.154 2.154 0 0 0 2.156-2.162 2.156 2.156 0 0 0-2.156-2.164zm0 7.921a2.156 2.156 0 0 0-2.158 2.164c0 1.198.962 2.162 2.157 2.162h34.528a2.154 2.154 0 0 0 2.156-2.162 2.156 2.156 0 0 0-2.156-2.164z"/>
  <path fill="#fff" d="M87.166 63.975A14.026 14.058 0 0 1 73.14 78.033a14.026 14.058 0 0 1-14.027-14.058A14.026 14.058 0 0 1 73.14 49.917a14.026 14.058 0 0 1 14.026 14.058"/>
  <path class="icon-secondary" fill="#e70e0e" d="M72.515 41.776c-.427.013-2.228 3.383-2.648 3.462s-3.258-2.421-3.662-2.278-1.164 3.915-1.543 4.118-3.8-1.32-4.146-1.06c-.345.26.002 4.098-.301 4.409-.304.31-4.006-.103-4.261.25-.256.354 1.168 3.919.966 4.308-.201.39-3.854 1.125-3.998 1.541-.143.416 2.232 3.39 2.15 3.824s-3.361 2.252-3.38 2.693 3.096 2.56 3.141 3-2.57 3.179-2.461 3.607 3.685 1.502 3.853 1.908c.169.407-1.549 3.824-1.324 4.2s3.948.312 4.224.65c.277.336-.391 4.128-.07 4.419.323.291 3.86-.907 4.22-.67.092.062.19.368.292.782l-3.962 12.835c-.24.778.688 1.369 1.269.84l5.483-4.986 2.007 6.43c.213.682 1.31.55 1.551-.228l3.894-12.614 3.893 12.614c.24.779 1.338.91 1.551.228l2.007-6.43 5.483 4.986c.581.529 1.51-.062 1.269-.84l-4.129-13.378c-.015-.048-.036-.091-.054-.137.073-.39.149-.675.234-.739.345-.26 3.947.72 4.25.41.304-.31-.591-4.054-.336-4.408.256-.353 3.975-.517 4.177-.906.201-.39-1.72-3.695-1.576-4.111s3.649-1.708 3.73-2.141c.082-.434-2.693-3.009-2.675-3.45s3-2.747 2.954-3.186-3.429-2.054-3.537-2.482 2.082-3.541 1.914-3.948c-.168-.406-3.859-.917-4.084-1.293s.98-4.021.704-4.359c-.276-.337-3.947.302-4.268.01-.322-.29-.208-4.144-.568-4.382s-3.684 1.493-4.074 1.313-1.378-3.899-1.79-4.016c-.411-.118-3.093 2.551-3.517 2.498s-2.426-3.307-2.852-3.293m.625 8.141a14.026 14.058 0 0 1 14.026 14.058A14.026 14.058 0 0 1 73.14 78.033a14.026 14.058 0 0 1-14.027-14.058A14.026 14.058 0 0 1 73.14 49.917"/>
  <path fill="#101010" d="m74.598 51.878-.162.633 1.025.234-.716 2.815.846.193.714-2.816 1.025.234.162-.633zm-2.512.019a2.158 2.163 0 0 0-.17.01 1.554 1.557 0 0 0-.534.147 1.208 1.211 0 0 0-.372.276.993.995 0 0 0-.21.362.95.952 0 0 0-.04.397q.029.246.119.409.091.159.22.26.13.1.285.155.157.053.32.085.16.03.311.053a1.726 1.73 0 0 1 .276.06q.123.04.203.11a.3.3 0 0 1 .094.193q.025.213-.094.326-.118.11-.353.136a.906.908 0 0 1-.307-.015 1.554 1.557 0 0 1-.24-.08l-.188-.082a.302.303 0 0 0-.157-.029.259.26 0 0 0-.109.037.2.2 0 0 0-.07.08l-.21.408q.12.093.278.162.157.069.333.114.177.042.36.057.185.016.359-.002.316-.032.553-.147.24-.118.392-.293.153-.177.218-.398.064-.223.036-.468a.906.908 0 0 0-.117-.367.863.865 0 0 0-.22-.249.993.995 0 0 0-.284-.15 2.59 2.595 0 0 0-.32-.09q-.161-.036-.317-.062a2.158 2.163 0 0 1-.275-.068.647.649 0 0 1-.2-.101.24.24 0 0 1-.093-.17.32.32 0 0 1 .088-.275q.107-.113.35-.138.14-.013.254.012.114.021.203.056.093.035.164.065a.302.303 0 0 0 .13.02.17.17 0 0 0 .105-.04.302.303 0 0 0 .072-.096l.17-.402a1.208 1.211 0 0 0-.244-.132 1.597 1.6 0 0 0-.286-.09 1.726 1.73 0 0 0-.316-.043 2.158 2.163 0 0 0-.167-.003m-3.993 1.192a2.158 2.163 0 0 0-.19.017 2.115 2.12 0 0 0-.764.247 2.072 2.076 0 0 0-.622.493q-.241.288-.338.618a1.64 1.644 0 0 0-.046.685 1.856 1.86 0 0 0 .251.69q.2.334.493.558.295.221.643.316.35.093.736.047a2.158 2.163 0 0 0 .766-.252q.38-.204.62-.491t.335-.619a1.64 1.644 0 0 0 .041-.687 1.813 1.817 0 0 0-.249-.689 1.899 1.903 0 0 0-.493-.553 1.856 1.86 0 0 0-1.183-.38m10.726.092-1.84 3.09.76.406 1.842-3.09zm-10.694.621q.1.01.196.043.194.065.368.216.17.149.307.377.138.23.186.447a1 1 0 0 1 .002.409q-.04.19-.17.348a1.165 1.168 0 0 1-.347.274q-.22.116-.431.142a.95.952 0 0 1-.404-.039 1.079 1.081 0 0 1-.365-.215 1.554 1.557 0 0 1-.31-.382 1.467 1.47 0 0 1-.183-.445.95.952 0 0 1-.007-.406.842.843 0 0 1 .174-.35q.131-.161.35-.279.216-.115.426-.137.105-.013.208-.002zm12.82.663-2.6 2.553 1.623 1.485.483-.474-.998-.912 2.118-2.079zM64.41 56.029a1.079 1.081 0 0 0-.237.024q-.24.05-.48.218-.243.166-.475.471l-.768 1.018 3.046 2.065.505-.67-1.018-.689.264-.35q.225-.299.314-.566.089-.273.06-.508a.95.952 0 0 0-.166-.433 1.381 1.384 0 0 0-.365-.353 1.338 1.34 0 0 0-.443-.198 1.079 1.081 0 0 0-.237-.03m-.145.782q.053.002.106.017.109.029.213.099.236.16.28.363.046.205-.152.467l-.263.348-.965-.655.264-.349a.8.8 0 0 1 .198-.193.518.52 0 0 1 .32-.097m19.238.368L80.2 58.846l1.061 1.886.612-.31-.653-1.16 2.693-1.357zM65.248 60.08l-3.96.622-.182.825 3.37 2.067.139-.629a.259.26 0 0 0-.018-.179.3.3 0 0 0-.108-.118l-.595-.332.29-1.322.684-.078a.302.303 0 0 0 .155-.067.302.303 0 0 0 .09-.165zm19.83.472-3.694.57.388 2.254.66-.102-.247-1.436.88-.135.189 1.1.633-.097-.188-1.103.863-.132.246 1.438.66-.101zm-21.513.534-.208.95-.928-.517a5.179 5.19 0 0 0-.476-.256q.16-.01.3-.024l.239-.032zm.917 4.892-2.462 3.196.375.697 3.895-.537-.336-.624a.28.281 0 0 0-.138-.13.259.26 0 0 0-.157-.027l-2.043.362q-.134.025-.288.059a3.884 3.893 0 0 0-.314.086 5 5 0 0 0 .23-.244q.107-.12.195-.229l1.354-1.64a.302.303 0 0 0 .068-.16.32.32 0 0 0-.046-.188zm18.189.046q-.264.011-.508.106a1.77 1.773 0 0 0-.6.394q-.272.268-.454.67l-.602 1.337 3.298 1.622.602-1.339q.18-.402.208-.788a1.899 1.903 0 0 0-.09-.735 1.813 1.817 0 0 0-.36-.62 1.899 1.903 0 0 0-.602-.453 1.813 1.817 0 0 0-.716-.194 1.726 1.73 0 0 0-.176 0m-.167.851q.106-.006.22.01.227.03.472.15.246.121.413.285.167.162.25.355.079.19.072.406a1.208 1.211 0 0 1-.112.445l-.241.535-2.12-1.043.241-.534q.104-.23.259-.372.152-.145.345-.201a.863.865 0 0 1 .201-.036m-2.304 2-1.685 1.704 2.538 2.732 1.686-1.707-.453-.486-1.075 1.088-.605-.653.825-.831-.435-.47-.825.835-.592-.639 1.076-1.088zm-13.637.59-2.345 2.913 1.796 1.577.42-.52-1.145-1.006.559-.694.877.771.402-.5-.878-.769.546-.682 1.147 1.006.418-.52zm11.15 1.605-.748.421 1.726 3.351.75-.42zm-8.935.252-1.26 3.569.793.307.467-1.323.2.078a.302.303 0 0 1 .131.084q.042.05.056.133l.2 1.255q.033.19.233.266l.718.278-.29-1.524a.647.649 0 0 0-.068-.195.777.779 0 0 0-.111-.16 1.152 1.155 0 0 0 .65-.208q.135-.097.235-.234.1-.138.162-.312a1.208 1.211 0 0 0 .072-.45.906.908 0 0 0-.123-.428q-.114-.205-.348-.384-.233-.182-.605-.325zm7.503.56-2.293.53.791 3.717.83-.194-.308-1.446 1.217-.28-.14-.668-1.22.283-.198-.94 1.46-.339zm-6.927.364.319.123q.307.118.406.307.1.19.017.425a.734.735 0 0 1-.11.208.475.476 0 0 1-.168.136q-.1.047-.23.045a.863.865 0 0 1-.29-.062l-.32-.124zm2.85.099-.208 3.8.851.051.206-3.8z"/>
  <path class="icon-primary" fill="#0318a6" d="M78.257 59.233a.9.9 0 0 0-.645.269l-6.195 6.21-2.702-2.709a1.07 1.07 0 0 0-1.52 0l-.183.183a1.077 1.077 0 0 0 0 1.524l3.588 3.596q.113.112.247.185a.91.91 0 0 0 1.244-.042l7.224-7.24a.914.914 0 0 0 0-1.294l-.413-.413a.9.9 0 0 0-.645-.269m32.8-47.733h5.984q.968 0 1.584.408.616.409.88 1.083l6.205 15.927q.418 1.041.836 2.266.44 1.225.814 2.573.308-1.348.704-2.573.418-1.225.814-2.266l6.16-15.927q.22-.572.858-1.021.638-.47 1.562-.47h6.029l-12.849 29.75h-6.732zm55.707 0v5.309h-13.157v6.943h10.077v5.104h-10.077v7.086h13.157v5.309h-20.637V11.5Zm11.66 18.745v11.006h-7.436V11.5h10.429q3.476 0 5.918.674 2.464.653 4.004 1.838 1.562 1.184 2.267 2.797t.704 3.512q0 1.45-.418 2.736t-1.255 2.39q-.814 1.082-2.024 1.94-1.188.857-2.75 1.408.748.347 1.386.858.66.51 1.144 1.245l6.82 10.353h-6.732q-1.87 0-2.684-1.307l-5.324-8.637q-.352-.572-.836-.817-.462-.245-1.32-.245zm0-4.758h2.993q1.518 0 2.574-.347 1.078-.367 1.76-1t.99-1.47q.308-.858.308-1.838 0-1.96-1.386-3.063-1.364-1.103-4.246-1.103h-2.992zm29.966 15.764h-7.48V11.5h7.48zM234.968 11.5v5.309H221.81v7.535h10.957v5.33H221.81v11.577h-7.48V11.5Zm12.012 29.75h-7.48V11.5h7.48zm26.578-29.75v5.309H260.4v6.943h10.077v5.104H260.4v7.086h13.157v5.309H252.92V11.5Zm33.31 14.865q0 3.226-1.21 5.963-1.188 2.715-3.367 4.717-2.178 1.98-5.258 3.103-3.058 1.103-6.798 1.103h-12.453V11.5h12.453q3.74 0 6.798 1.123 3.08 1.123 5.258 3.104 2.179 1.98 3.367 4.717 1.21 2.715 1.21 5.921m-7.613 0q0-2.205-.616-3.982-.616-1.776-1.782-3.001-1.144-1.246-2.816-1.9-1.672-.673-3.806-.673h-4.972v19.133h4.972q2.134 0 3.806-.654 1.672-.673 2.816-1.899 1.166-1.245 1.782-3.022t.616-4.002M143.53 86.963h-5.764q-.968 0-1.606-.409-.616-.429-.858-1.082l-1.892-5.187h-12.188l-1.893 5.187q-.22.572-.858 1.041-.638.45-1.562.45h-5.808l12.409-29.751h7.612zm-20.592-11.374h8.756l-2.948-8.147q-.286-.776-.682-1.818-.374-1.061-.748-2.287-.352 1.246-.726 2.308t-.704 1.838zm30.625 1.43v9.944h-7.436V57.212h11.309q3.388 0 5.808.755 2.442.735 4.004 2.042 1.584 1.307 2.332 3.083t.748 3.84q0 2.225-.77 4.083t-2.354 3.186-4.026 2.082q-2.42.735-5.742.735zm0-5.208h3.873q2.904 0 4.18-1.286t1.276-3.594q0-1.02-.33-1.858-.33-.837-1.012-1.43-.66-.612-1.694-.939-1.012-.326-2.42-.326h-3.873zm52.275.266q0 3.226-1.21 6.003-1.188 2.777-3.366 4.84-2.178 2.041-5.258 3.205-3.059 1.164-6.799 1.164t-6.82-1.164-5.28-3.205q-2.179-2.063-3.389-4.84-1.188-2.777-1.188-6.003t1.188-6.003q1.21-2.777 3.389-4.82 2.2-2.041 5.28-3.205t6.82-1.164 6.799 1.184q3.08 1.164 5.258 3.206t3.366 4.819q1.21 2.777 1.21 5.983m-7.612 0q0-2.205-.616-3.961-.616-1.777-1.782-3.002-1.144-1.225-2.817-1.879-1.672-.653-3.806-.653-2.156 0-3.85.653-1.672.654-2.838 1.879-1.144 1.225-1.76 3.002-.616 1.756-.616 3.96 0 2.227.616 4.003.616 1.756 1.76 2.981 1.166 1.225 2.838 1.879 1.694.633 3.85.633 2.134 0 3.806-.633 1.673-.654 2.817-1.879 1.166-1.225 1.782-2.98.616-1.777.616-4.003m29.041-8.821q-.33.49-.704.735-.352.245-.924.245-.506 0-1.1-.286-.572-.306-1.32-.674-.726-.367-1.672-.653-.946-.307-2.156-.307-2.09 0-3.124.838-1.012.816-1.012 2.225 0 .899.616 1.491t1.606 1.02q1.012.43 2.288.797 1.298.347 2.64.797 1.342.428 2.618 1.02 1.298.593 2.288 1.512 1.012.919 1.628 2.246.616 1.307.616 3.165 0 2.062-.77 3.859t-2.244 3.145q-1.452 1.327-3.608 2.103-2.134.755-4.862.755-1.496 0-3.058-.286-1.54-.285-2.993-.796-1.452-.53-2.728-1.246-1.276-.714-2.222-1.592l2.2-3.226q.242-.368.682-.593t.946-.224q.66 0 1.32.388.683.388 1.519.857.858.47 1.958.858t2.596.388q2.024 0 3.146-.817 1.122-.837 1.122-2.634 0-1.041-.616-1.695-.616-.653-1.628-1.082-.99-.429-2.266-.756-1.276-.326-2.618-.714-1.342-.409-2.618-.98-1.277-.592-2.289-1.532-.99-.96-1.606-2.368-.616-1.43-.616-3.512 0-1.675.726-3.268t2.134-2.838q1.409-1.245 3.455-1.98 2.046-.756 4.686-.756 1.474 0 2.86.225 1.408.204 2.662.633 1.254.408 2.332 1 1.1.572 1.958 1.307zm29.262-6.044v5.472h-9.02v24.279h-7.437V62.684h-9.02v-5.472zm11.22 29.75h-7.48v-29.75h7.48zm13.377-5.513h11.88v5.514H273.69V57.212h7.436zm22.837 0h11.881v5.514h-19.317V57.212h7.436zm36.038-24.237v5.309h-13.156v6.942h10.076v5.105h-10.076v7.086H340v5.309h-20.637V57.212z"/>
</svg>
