<svg xmlns="http://www.w3.org/2000/svg" viewBox="0 0 512 512">
  <path class="icon-background" fill="none" d="M0 0h512v512H0Z"/>
  <g>
    <path class="icon-primary" fill="currentColor" d="M256 427a16.269 17.21 0 0 1-11.499-5.046L137.097 308.33a16.269 17.21 0 0 1 22.981-24.329L256 385.477l95.922-101.476a16.269 17.21 0 0 1 22.98 24.329L267.5 421.954A16.269 17.21 0 0 1 256 427"/>
    <path fill-opacity=".1" d="M256 85a16.269 17.21 0 0 0-11.499 5.046L137.097 203.67a16.269 17.21 0 0 0 22.981 24.329L256 126.523l95.922 101.476a16.269 17.21 0 0 0 22.98-24.329L267.5 90.046A16.269 17.21 0 0 0 256 85"/>
  </g>
</svg>