<svg xmlns="http://www.w3.org/2000/svg" viewBox="0 0 512 512">
  <path class="icon-background" fill="none" d="M0 0h512v512H0Z"/>
  <g>
    <path class="icon-primary" fill="currentColor"  d="M255.906 427a16.265 17.216 0 0 1-11.493-5.05L137.02 308.327a16.265 17.216 0 0 1 22.954-24.331l95.932 101.49 95.916-101.49a16.265 17.216 0 0 1 22.986 24.331L267.416 421.95a16.265 17.216 0 0 1-11.51 5.05"/>
    <path fill-opacity=".3" d="M255.906 85a16.265 17.216 0 0 0-11.493 5.05L137.02 203.673a16.265 17.216 0 0 0 22.954 24.331l95.932-101.49 95.916 101.49a16.265 17.216 0 0 0 22.986-24.331L267.416 90.05a16.265 17.216 0 0 0-11.51-5.05"/>
  </g>
</svg>