<svg xmlns="http://www.w3.org/2000/svg" xml:space="preserve" viewBox="0 0 512 512">
  <path class="icon-background" fill="none" d="M0 0h512v512H0Z"/>
  <path class="icon-primary" fill="currentColor" d="M104.11 149.2a20.002 20.002 0 0 0-23.977 21.437 20.002 20.002 0 0 0 4.816 11.267L241.09 356.55a20.002 20.002 0 0 0 29.821 0l156.14-174.645a20.002 20.002 0 0 0 4.817-11.267 20.002 20.002 0 0 0-11.793-20.131 20.002 20.002 0 0 0-12.183-1.307 20.002 20.002 0 0 0-10.66 6.045L256 313.211 114.77 155.244a20.002 20.002 0 0 0-10.66-6.045z"/>
</svg>