<svg xmlns="http://www.w3.org/2000/svg" version="1.0" viewBox="0 0 512 512">
  <path class="icon-background" fill="none" d="M0 0h512v512H0Z"/>
  <path fill="currentColor" d="M220.043 192.087h4.214v8.462h-14.104c-6.513 0-13.343 4.103-13.343 10.28v23.996h-.862v.052h-6.747v-.052h-.837V210.83c0-11.048 10.637-18.744 21.797-18.744zM320.18 231.46v3.358h-.837v.051h-6.774v-.051h-.836V210.82c0-6.178-6.826-10.28-13.342-10.28h-14.105v-8.463h14.105c11.16 0 21.797 7.695 21.797 18.743v20.64zM287.237 71.143l-28.283-.553-22.632 43.361h18.508c3.09 0 5.221 3.305 3.734 6.165l-11.245 21.805 44.3-38.945-21.313-.626c-3.88 0-5.56-4.288-3.353-6.925zm-7.284 113.821h-51.387c-2.37 0-4.309 1.964-4.309 4.314v14.498c0 2.38 1.943 4.34 4.31 4.34h51.386c2.375 0 4.335-1.96 4.335-4.34v-14.498c0-2.35-1.96-4.314-4.335-4.314zm18.153 112.355v51.864h35.7v-55.73c-11.825 4.737-23.795 6.319-35.701 3.867zm-114.102-11.287c-.767-.407-1.526-.811-2.297-1.226l-6.967 3.095v61.282h35.7v-52.99c-8.095-1.891-18.029-5.554-26.436-10.161zm198.586 8.608c.025.09.025.22.025.335l-.025 115.477H125.938V237.616H93.32V430.18c0 7.575 8.382 12.411 16.305 12.411h289.269c7.923 0 16.305-4.845 16.305-12.411V237.616H382.58v57.025zm0 0"/>
  <path fill-rule="evenodd" d="M312.57 234.86h6.774v-.051h15.297v50.023l-.505.236c-11.564 5.2-23.778 7.434-36.232 4.416l-.652-.146v-54.53h15.3v.052zm-123.37 0h6.748v-.051h15.327v53.783l-1.059-.262c-8.472-2.203-16.445-5.628-24.132-9.783-1.098-.6-3.276-1.985-4.597-1.839-.69.09-1.525.455-2.177.768-1.41.651-2.804 1.345-4.215 2.01l-1.2.553v-45.23h15.297v.051zm28.833 118.55v-56.607l.955.12c19.108 2.538 36.686-1.946 52.798-12.368l.505-.34.455.365c5.273 3.958 11.018 7.263 17.217 9.56l.55.198v59.074a3.38 3.38 0 0 0 3.377 3.382h44.133a3.38 3.38 0 0 0 3.379-3.382v-64.377l.455-.236a104.668 104.668 0 0 0 6.748-3.858l.6-.378.484.523c6.487 7.095 15.442 10.5 24.64 12.515l.668.142V402.87H133.522V297.768l.771-.09c10.822-1.179 21.454-3.696 31.7-7.314l1.129-.382v63.439c0 1.8 1.435 3.382 3.275 3.382h44.248c1.873-.016 3.387-1.522 3.387-3.391zm84.552 26.822c-4.454 0-4.454 6.757 0 6.757h26.744c4.45 0 4.45-6.757 0-6.757zm-113.384-10.02v10.02h-10.01c-4.451 0-4.451 6.757 0 6.757H189.2v10.02c0 4.454 6.75 4.454 6.75 0v-10.02h10.009c4.455 0 4.455-6.757 0-6.757h-10.01v-10.02c0-4.436-6.75-4.436-6.75 0zm0 0"/>
</svg>
