<svg xmlns="http://www.w3.org/2000/svg" viewBox="0 0 512 512">
  <path class="icon-background" fill="none" d="M0 0h512v512H0Z"/>
  <g>
    <path class="icon-primary" fill="#0062e0" d="M227.5 425.1C146.75 410.85 85 340.55 85 256c0-94.05 76.95-171 171-171s171 76.95 171 171c0 84.55-61.75 154.85-142.5 169.1l-9.5-7.6h-38z"/>
    <path fill="#fff" d="m322.5 303.5 7.6-47.5h-45.6v-33.25c0-13.3 4.75-23.75 25.65-23.75H332v-43.7c-12.35-1.9-25.65-3.8-38-3.8-38.95 0-66.5 23.75-66.5 66.5v38h-42.75v47.5h42.75v120.65c9.5 1.9 19 2.85 28.5 2.85s19-.95 28.5-2.85V303.5z"/>
  </g>
</svg>