<svg xmlns="http://www.w3.org/2000/svg" viewBox="0 0 512 512">
   <path class="icon-background" fill="none" d="M0 0h512v512H0Z"/>
   <path class="icon-primary" fill="currentcolor" d="M337.985 70.002q-.62.014-1.249.155l-21.091 4.815a6.185 6.185 0 0 0-4.664 7.421l4.877 21.371a56.7 56.7 0 0 0-12.27 9.97l-19.498-9.389a6.185 6.185 0 0 0-8.274 2.895l-9.386 19.492a6.184 6.184 0 0 0 2.894 8.272l19.573 9.425a57 57 0 0 0-.562 7.846 57 57 0 0 0 .53 7.404l-19.714 9.494a6.184 6.184 0 0 0-2.895 8.272l9.387 19.49a6.184 6.184 0 0 0 8.272 2.897l19.367-9.327a56.7 56.7 0 0 0 11.976 9.951l-4.916 21.54a6.184 6.184 0 0 0 4.662 7.42l21.093 4.815a6.183 6.183 0 0 0 7.42-4.663l4.752-20.819a56.7 56.7 0 0 0 16.111-3.32l13.77 17.268a6.185 6.185 0 0 0 8.71.98l16.914-13.488a6.183 6.183 0 0 0 .981-8.709L391.4 184.732a56.7 56.7 0 0 0 7.665-15.444h21.69a6.184 6.184 0 0 0 6.198-6.197v-21.633a6.185 6.185 0 0 0-6.198-6.199h-21.63a56.7 56.7 0 0 0-7.725-15.613l13.271-16.643a6.183 6.183 0 0 0-.98-8.709l-16.915-13.488a6.183 6.183 0 0 0-8.709.98l-13.702 17.181a56.7 56.7 0 0 0-15.438-3.25l-4.768-20.896a6.18 6.18 0 0 0-6.173-4.82zm8.31 47.538a34.654 34.654 0 0 1 34.654 34.654 34.654 34.654 0 0 1-34.655 34.654 34.654 34.654 0 0 1-34.653-34.654 34.654 34.654 0 0 1 34.653-34.654zm-140.9 77.78a9.274 9.274 0 0 0-8.492 8.116l-4.089 32.624a85 85 0 0 0-22.41 7.762l-22.67-23.241a9.275 9.275 0 0 0-13.144-.164l-23.231 22.658a9.277 9.277 0 0 0-.164 13.146l22.751 23.326a85 85 0 0 0-4.816 10.769 85 85 0 0 0-3.052 10.71l-32.66 3.268a9.275 9.275 0 0 0-8.323 10.175l3.232 32.29a9.275 9.275 0 0 0 10.174 8.323l32.083-3.209a85 85 0 0 0 11.777 20.172l-17.98 27.837a9.276 9.276 0 0 0 2.765 12.852l27.26 17.608a9.276 9.276 0 0 0 12.853-2.766l17.376-26.906a85 85 0 0 0 24.413 3.586l10.55 31.402a9.277 9.277 0 0 0 11.774 5.852l30.762-10.335a9.275 9.275 0 0 0 5.851-11.772l-10.234-30.46a85 85 0 0 0 18.727-17.836l30.574 11.127a9.275 9.275 0 0 0 11.914-5.555l11.1-30.495a9.276 9.276 0 0 0-5.556-11.915l-30.49-11.096a85 85 0 0 0-2.878-25.973l27.245-16.65a9.274 9.274 0 0 0 3.084-12.778l-16.92-27.69a9.276 9.276 0 0 0-12.78-3.085l-28.125 17.187a85 85 0 0 0-20.094-12.502l3.997-31.9a9.275 9.275 0 0 0-8.069-10.379l-32.198-4.036a9.4 9.4 0 0 0-1.886-.046zm.298 72.897a52 52 0 0 1 22.953 2.876 51.98 51.98 0 0 1 31.068 66.624 51.98 51.98 0 0 1-66.625 31.069 51.98 51.98 0 0 1-31.067-66.626 51.98 51.98 0 0 1 43.67-33.943z"/>
</svg>
