<svg xmlns="http://www.w3.org/2000/svg" width="512" height="512">
  <path class="icon-background" fill="none" d="M0 0h512v512H0Z"/>
  <path class="icon-primary" fill="#202020ff" fill-rule="evenodd" d="M256.142 85C161.505 85 85 163.375 85 260.335c0 77.505 49.02 143.112 117.022 166.332 8.502 1.746 11.616-3.772 11.616-8.414 0-4.065-.28-17.998-.28-32.515-47.608 10.452-57.521-20.901-57.521-20.901-7.651-20.32-18.987-25.543-18.987-25.543-15.582-10.741 1.135-10.741 1.135-10.741 17.284 1.161 26.354 17.998 26.354 17.998 15.298 26.704 39.95 19.159 49.867 14.513 1.415-11.321 5.951-19.159 10.768-23.512-37.97-4.065-77.92-19.16-77.92-86.508 0-19.16 6.796-34.834 17.565-47.025-1.7-4.353-7.65-22.355 1.702-46.448 0 0 14.45-4.645 47.033 17.998a164.542 167.33 0 0 1 42.787-5.807c14.45 0 29.181 2.034 42.784 5.807 32.586-22.643 47.037-17.998 47.037-17.998 9.353 24.093 3.398 42.095 1.699 46.448 11.052 12.19 17.568 27.866 17.568 47.025 0 67.349-39.95 82.15-78.204 86.508 6.236 5.514 11.616 15.963 11.616 32.51 0 23.513-.28 42.384-.28 48.187 0 4.646 3.118 10.164 11.616 8.422C377.98 403.443 427 337.84 427 260.335 427.28 163.375 350.495 85 256.142 85Z" clip-rule="evenodd"/>
</svg>