<svg xmlns="http://www.w3.org/2000/svg" viewBox="0 0 512 512">
  <path class="icon-background" fill="none" d="M0 0h512v512H0Z"/>
  <path d="M372.704 127.91a125.739 125.739 0 0 1-44.288 27.43c-17.417 3.073-65.617-19.28-89.367 3.539-3.959 3.958-8.849 7.916-13.971 11.875-11.177-4.89-28.408-12.341-40.982-19.56-12.574-7.218-44.241-23.284-44.241-23.284L70 209.407s17.23 23.285 27.942 38.653c6.985 10.245 15.6 25.846 21.19 36.324l-7.918 9.314a20.49 20.49 0 0 0 3.493 23.285 19.326 19.326 0 0 0 23.332-.046 14.437 14.437 0 0 0 1.792 20.514 23.285 23.285 0 0 0 23.425-.047 18.768 18.768 0 0 0-.07 23.402 23.518 23.518 0 0 0 20.77-2.655 19.094 19.094 0 0 0 4.355 21.236 25.613 25.613 0 0 0 24.542-2.142l12.015-10.874c10.99 10.943 26.149 17.72 42.89 17.72l1.421-.024a30.503 30.503 0 0 0 25.474-18.418c3.4 1.304 7.265 2.189 11.363 2.189a27.762 27.762 0 0 0 14.902-4.308c13.622-9.011 10.362-15.997 10.362-15.997a24.915 24.915 0 0 0 28.617-6.496 23.192 23.192 0 0 0 3.214-28.292.931.931 0 0 0 .489.117c9.803 0 18.325-5.402 22.772-13.366a36.324 36.324 0 0 0-4.447-34.461l.07.116c19.093-3.726 18.395-13.272 27.709-27.243A109.44 109.44 0 0 1 442 209.779zM371.54 292.3c-10.246 10.246-18.162 5.821-35.626-7.451-17.464-13.272-52.158-38.187-52.158-38.187 1.42 7.102 4.703 13.272 9.337 18.185 7.428 8.36 29.548 27.453 40.027 37.233 6.52 6.054 23.285 18.162 13.505 27.476s-17.464 0-33.53-13.04c-16.067-13.039-51.926-45.172-51.926-45.172l-.046 1.374c0 6.007 2.421 11.432 6.333 15.39 3.959 4.658 26.08 26.08 35.393 35.86 9.314 9.78 17.464 15.6 9.547 23.285-7.917 7.684-23.983-4.425-32.832-13.506-13.738-13.272-40.981-37.954-40.981-37.954l-.023 1.234a27.795 27.795 0 0 0 6.124 17.464c6.706 8.801 19.745 20.211 27.662 29.06 7.917 8.848 12.574 16.299 0 23.284-12.574 6.986-31.202-10.245-39.351-18.628v-.046a9.314 9.314 0 0 0-2.329-6.264 20.956 20.956 0 0 0-21.096-4.378 14.204 14.204 0 0 0 .14-21.003 17.557 17.557 0 0 0-21.236.024 14.204 14.204 0 0 0-1.98-22.12 23.285 23.285 0 0 0-27.336 1.862 15.368 15.368 0 0 0-1.583-21.213 23.285 23.285 0 0 0-27.616-2.98l-15.485-26.149c-10.71-16.998-23.285-34.695-23.285-34.695l53.09-64.499s18.86 11.643 34.462 20.49c7.684 4.425 20.956 10.246 30.969 14.903-15.834 11.876-29.107 23.285-25.148 31.202a42.611 42.611 0 0 0 48.595.838 55.884 55.884 0 0 1 31.272-9.384c8.08 0 15.764 1.677 22.726 4.727 12.9 8.709 36.65 30.131 58.306 43.636 27.243 19.792 32.599 32.6 26.079 39.119z"/>
</svg>
