<?xml version="1.0" encoding="UTF-8" standalone="no"?>
<svg
   xml:space="preserve"
   viewBox="0 0 512 512"
   version="1.1"
   id="svg2"
   sodipodi:docname="height.svg"
   inkscape:version="1.4 (86a8ad7, 2024-10-11)"
   xmlns:inkscape="http://www.inkscape.org/namespaces/inkscape"
   xmlns:sodipodi="http://sodipodi.sourceforge.net/DTD/sodipodi-0.dtd"
   xmlns="http://www.w3.org/2000/svg"
   xmlns:svg="http://www.w3.org/2000/svg"><defs
     id="defs2" /><sodipodi:namedview
     id="namedview2"
     pagecolor="#ffffff"
     bordercolor="#000000"
     borderopacity="0.25"
     inkscape:showpageshadow="2"
     inkscape:pageopacity="0.0"
     inkscape:pagecheckerboard="0"
     inkscape:deskcolor="#d1d1d1"
     inkscape:zoom="1.5917969"
     inkscape:cx="255.68589"
     inkscape:cy="256"
     inkscape:window-width="1904"
     inkscape:window-height="1001"
     inkscape:window-x="0"
     inkscape:window-y="3"
     inkscape:window-maximized="0"
     inkscape:current-layer="svg2" /><path
     fill="#e3e9ff"
     d="M512 256a256 256 0 0 1-256 256A256 256 0 0 1 0 256 256 256 0 0 1 256 0a256 256 0 0 1 256 256"
     id="path1" /><path
     fill="#002ba5"
     d="m 329.08901,177.2355 a 11.648,13.215 0 0 1 -16.463,0 l -44.832,-50.864 v 259.256 l 44.832,-50.864 a 11.648,13.215 0 0 1 16.463,18.678 l -64.712,73.419 a 11.648,13.215 0 0 1 -16.463,0 l -64.712,-73.42 a 11.648,13.215 0 0 1 16.463,-18.677 l 44.832,50.864 v -259.256 l -44.832,50.864 a 11.648,13.215 0 1 1 -16.463,-18.678 l 64.713,-73.418 a 11.648,13.215 0 0 1 16.463,0 l 64.712,73.42 a 11.648,13.215 0 0 1 0,18.677"
     id="path2" /></svg>
