<svg xmlns="http://www.w3.org/2000/svg" viewBox="0 0 512 512">
  <path class="icon-background" fill="none" d="M0 0h512v512H0Z"/>
  <path class="icon-primary" fill="currentcolor" d="M253.287 84.72a10.727 10.727 0 0 0-4.797 2.757L87.58 248.389a10.727 10.727 0 0 0 15.125 15.125L256 110.219 409.295 263.62a10.727 10.727 0 0 0 15.125-15.127l.107-.105-160.91-160.912a10.727 10.727 0 0 0-10.33-2.756zm109.986 168.71v152.757h-53.636V298.914H202.363v107.273h-53.636V256.004l-21.456 21.455v128.728a21.455 21.455 0 0 0 21.456 21.456h75.091V320.369h64.364v107.274h75.091a21.455 21.455 0 0 0 21.456-21.456V274.885l-21.456-21.455z"/>
</svg>
