<svg xmlns="http://www.w3.org/2000/svg" viewBox="0 0 512 512">
  <path class="icon-background" fill="none" d="M0 0h512v512H0Z"/>
  <path d="M186.4 105.958c-10.79 0-19.478 9.6-19.478 21.523v10.94c-49.26 6.032-87.219 48.863-87.219 101.168 0 52.304 37.959 95.138 87.219 101.17v28.095h-62.344v37.188H397.95v-37.188h-52.87V340.76c49.26-6.032 87.218-48.866 87.218-101.17 0-52.305-37.959-95.136-87.219-101.168v-10.94c0-11.923-8.687-21.523-19.478-21.523-10.791 0-19.479 9.6-19.479 21.523v10.186H205.88v-10.186c0-11.923-8.688-21.523-19.479-21.523zm4.87 70.553c3.165 0 5.717 1.063 7.654 3.19 1.984 2.078 2.976 5.266 2.976 9.566v29.77h45.432v-29.77c0-4.253.944-7.44 2.834-9.567 1.937-2.126 4.465-3.19 7.584-3.19 3.166 0 5.717 1.064 7.654 3.19 1.985 2.08 2.979 5.267 2.979 9.567v81.863c0 4.3-.994 7.512-2.979 9.639-1.984 2.126-4.535 3.189-7.654 3.189-3.166 0-5.694-1.063-7.584-3.19-1.89-2.173-2.834-5.386-2.834-9.638v-34.943H201.9v34.943c0 4.3-.992 7.512-2.976 9.639-1.985 2.126-4.536 3.189-7.654 3.189-3.166 0-5.694-1.063-7.584-3.19-1.89-2.173-2.836-5.386-2.836-9.638v-81.863c0-4.253.92-7.44 2.763-9.567 1.89-2.126 4.443-3.19 7.657-3.19zm116.851 66.754c4.7 0 8.709.736 12.025 2.21a18.083 18.083 0 0 1 5.666 4.055c1.628 1.72 2.887 3.716 3.778 5.989a18.257 18.257 0 0 1 1.383 7.003c0 3.809-.954 7.278-2.858 10.41-1.873 3.103-3.792 5.545-5.758 7.327-1.965 1.75-5.266 4.513-9.904 8.29-4.607 3.778-7.77 6.713-9.49 8.802-.737.829-1.49 1.827-2.258 2.994h24.047c2.396 0 4.223.492 5.482 1.474 1.26.983 1.89 2.319 1.89 4.008-.001 1.505-.507 2.78-1.52 3.824-.983 1.045-2.49 1.565-4.516 1.565h-33.906c-2.304 0-4.101-.63-5.391-1.889-1.29-1.29-1.934-2.794-1.934-4.514 0-1.105.415-2.564 1.245-4.376.829-1.843 1.734-3.286 2.716-4.33 4.085-4.239 7.77-7.864 11.057-10.874 3.286-3.04 5.636-5.036 7.049-5.988 2.518-1.781 4.607-3.562 6.265-5.344 1.69-1.812 2.965-3.655 3.825-5.529.89-1.904 1.336-3.762 1.336-5.574 0-1.966-.476-3.716-1.428-5.252a9.488 9.488 0 0 0-3.824-3.639c-1.597-.86-3.348-1.29-5.252-1.29-4.024 0-7.187 1.766-9.49 5.298-.308.46-.83 1.72-1.567 3.777-.706 2.058-1.52 3.64-2.441 4.746-.891 1.106-2.213 1.659-3.963 1.659-1.536 0-2.81-.508-3.824-1.522-1.014-1.013-1.52-2.396-1.52-4.146 0-2.12.476-4.33 1.428-6.633.952-2.304 2.365-4.392 4.238-6.266 1.904-1.873 4.3-3.379 7.188-4.515 2.917-1.167 6.326-1.75 10.226-1.75zM205.88 341.513H306.12v27.341H205.88Z"/>
</svg>
