<svg xml:space="preserve" viewBox="0 0 512 512" xmlns="http://www.w3.org/2000/svg"><path fill="#e3e9ff" d="M512 256a256 256 0 0 1-256 256A256 256 0 0 1 0 256 256 256 0 0 1 256 0a256 256 0 0 1 256 256"/><path d="M284.103 374.182h-56.677a9.313 9.625 0 0 1-9.333-9.646v-6.78q.082-8.758-.808-12.206c-3.183-12.047-11.606-22.148-19.762-31.942a235.384 243.27 0 0 1-7.563-9.34 82.896 85.674 0 0 1-17.982-53.53c0-47.871 37.703-86.805 84.022-86.805 46.31 0 84.001 38.934 84.001 86.805a82.896 85.674 0 0 1-17.981 53.551c-2.057 2.73-4.431 5.585-6.908 8.6-8.351 10.153-17.674 21.481-20.888 33.444-.563 2.136-.839 5.976-.798 11.349v6.833a9.313 9.625 0 0 1-9.323 9.667m-47.323-19.314h37.99c.102-7.51.808-11.211 1.453-13.623 4.329-16.109 15.054-29.192 24.52-40.679 2.487-3.025 4.667-5.67 6.601-8.186a64.475 66.635 0 0 0 13.98-41.631c0-37.231-29.29-67.524-65.314-67.524s-65.334 30.293-65.334 67.524c0 15.21 4.83 29.594 13.98 41.61 2.159 2.855 4.523 5.658 7.03 8.651 8.628 10.355 19.322 23.185 23.641 39.484.635 2.55 1.372 6.431 1.453 14.374m47.323 44.857h-56.677a9.339 9.651 0 0 1 0-19.303h56.677a9.339 9.651 0 0 1 0 19.303m-14.164 25.512H241.6a9.344 9.657 0 1 1 0-19.314h28.338a9.354 9.667 0 0 1 0 19.314m135.397-164.842h-37.334a9.344 9.657 0 1 1 0-19.293h37.334a9.313 9.625 0 0 1 9.323 9.647 9.313 9.625 0 0 1-9.323 9.646m-261.327 0h-37.345a9.313 9.625 0 0 1-9.323-9.646 9.313 9.625 0 0 1 9.323-9.647h37.334a9.333 9.646 0 1 1 .01 19.293M256 144.672a9.313 9.625 0 0 1-9.354-9.646V96.42a9.344 9.657 0 0 1 18.687 0v38.595a9.313 9.625 0 0 1-9.333 9.657m105.554 224.856a9.21 9.52 0 0 1-6.59-2.835l-26.394-27.288a9.344 9.657 0 1 1 13.202-13.634l26.393 27.278a9.344 9.657 0 0 1-6.61 16.479M176.787 178.571a9.21 9.52 0 0 1-6.61-2.834l-26.374-27.268a9.354 9.667 0 0 1 13.202-13.676l26.394 27.278a9.344 9.657 0 0 1-6.612 16.5m-26.383 190.957a9.344 9.657 0 0 1-6.601-16.479l26.414-27.3a9.313 9.625 0 0 1 13.182 0 9.354 9.667 0 0 1 0 13.677l-26.394 27.289a9.21 9.52 0 0 1-6.601 2.813M335.19 178.571a9.344 9.657 0 0 1-6.611-16.479l26.394-27.278a9.344 9.657 0 1 1 13.202 13.634l-26.374 27.267a9.21 9.52 0 0 1-6.61 2.856" fill="#002ba5"/></svg>