<svg xmlns="http://www.w3.org/2000/svg" xml:space="preserve" viewBox="0 0 512 512">
  <path class="icon-background" fill="none" d="M0 0h512v512H0Z"/>
  <path class="icon-primary" fill="currentcolor" d="M284.405 375.398h-57.284a9.413 9.728 0 0 1-9.433-9.75v-6.852q.083-8.852-.817-12.337c-3.217-12.176-11.73-22.385-19.974-32.284a237.906 245.877 0 0 1-7.644-9.44 83.784 86.592 0 0 1-18.174-54.104c0-48.384 38.107-87.735 84.922-87.735 46.806 0 84.901 39.351 84.901 87.735a83.784 86.592 0 0 1-18.174 54.125c-2.079 2.76-4.478 5.645-6.982 8.692-8.44 10.262-17.863 21.711-21.111 33.802-.57 2.16-.848 6.04-.807 11.471v6.906a9.413 9.728 0 0 1-9.423 9.77m-47.83-19.52h38.397c.103-7.59.817-11.331 1.469-13.77 4.375-16.28 15.215-29.504 24.782-41.114 2.514-3.057 4.717-5.73 6.672-8.274a65.166 67.349 0 0 0 14.13-42.077c0-37.63-29.604-68.247-66.014-68.247s-66.034 30.617-66.034 68.247c0 15.373 4.882 29.911 14.13 42.056 2.182 2.886 4.571 5.719 7.105 8.744 8.72 10.466 19.53 23.433 23.894 39.907.642 2.577 1.387 6.5 1.47 14.528m47.83 45.338H227.12a9.44 9.755 0 0 1 0-19.51h57.284a9.44 9.755 0 0 1 0 19.51M270.09 427h-28.642a9.444 9.76 0 1 1 0-19.521h28.641a9.454 9.77 0 0 1 0 19.52m136.848-166.607h-37.734a9.444 9.76 0 1 1 0-19.5h37.734a9.413 9.728 0 0 1 9.423 9.75 9.413 9.728 0 0 1-9.423 9.75m-264.127 0h-37.745a9.413 9.728 0 0 1-9.423-9.75 9.413 9.728 0 0 1 9.423-9.75h37.734a9.434 9.75 0 1 1 .01 19.5M256 143.428a9.413 9.728 0 0 1-9.454-9.749V94.66a9.444 9.76 0 0 1 18.887 0v39.009a9.413 9.728 0 0 1-9.433 9.76m106.685 227.266a9.309 9.622 0 0 1-6.66-2.865l-26.677-27.58a9.444 9.76 0 1 1 13.343-13.78l26.676 27.57a9.444 9.76 0 0 1-6.68 16.655M175.938 177.691a9.309 9.622 0 0 1-6.68-2.865l-26.657-27.56a9.454 9.77 0 0 1 13.343-13.822l26.677 27.57a9.444 9.76 0 0 1-6.683 16.677m-26.666 193.003a9.444 9.76 0 0 1-6.671-16.656l26.697-27.592a9.413 9.728 0 0 1 13.323 0 9.454 9.77 0 0 1 0 13.823l-26.677 27.582a9.309 9.622 0 0 1-6.672 2.843M336.04 177.691a9.444 9.76 0 0 1-6.682-16.656l26.677-27.57a9.444 9.76 0 1 1 13.343 13.78l-26.657 27.56a9.309 9.622 0 0 1-6.68 2.886"/>
</svg>