<svg xmlns="http://www.w3.org/2000/svg" xml:space="preserve" viewBox="0 0 512 512">
  <path class="icon-background" fill="none" d="M0 0h512v512H0Z"/>
  <path class="icon-primary" fill="currentcolor" d="M256 85c-6.584 0-11.885 4.881-11.885 10.945v36.653c0 6.064 5.3 10.945 11.885 10.945 6.584 0 11.885-4.881 11.885-10.945V95.945c0-6.064-5.3-10.945-11.885-10.945m-113.643 45.451c-3.262-.061-6.64 1.302-9.162 4.014-4.483 4.821-4.517 12.029-.076 16.158l26.84 24.959c4.44 4.13 11.624 3.572 16.107-1.25 4.484-4.822 4.52-12.029.079-16.158l-26.84-24.957c-1.943-1.807-4.41-2.718-6.948-2.766m227.286 0c-2.538.048-5.005.96-6.948 2.766l-26.84 24.957c-4.44 4.13-4.405 11.336.079 16.158 4.483 4.822 11.666 5.38 16.107 1.25l26.84-24.959c4.44-4.13 4.407-11.337-.076-16.158-2.522-2.712-5.9-4.075-9.162-4.014M256 156.428c-50.618 0-90.98 43.464-90.98 95.369v.039c.068 30.379 13.917 58.863 37.378 76.781l3.852 27.307c.145 1.586.645 5.024 1.29 6.428 1.618 3.53 3.287 6.238 8.577 8.242 2.063.781 5.61.939 7.375 1.033 2.63.362 60.288.156 60.38.146 3.488-.349 8.84-.894 10.786-2.066 5.962-3.59 8.224-9.73 9.133-13.209l4.695-27.068c24.11-17.834 38.414-46.72 38.494-77.588v-.045c0-51.906-40.361-95.37-90.98-95.37zm0 36c29.985 0 54.964 25.8 54.979 59.34-.063 21.685-11.122 41.37-28.215 51.666a18 18 0 0 0-8.45 12.341l-3.468 20.006h-31.082l-2.81-19.918a18 18 0 0 0-8.333-12.779c-16.764-10.403-27.545-29.898-27.6-51.31.012-33.541 24.993-59.346 54.979-59.346m-160.639 44.35c-6.064 0-10.947 5.3-10.947 11.884s4.883 11.885 10.947 11.885h36.65c6.065 0 10.946-5.3 10.946-11.885 0-6.584-4.881-11.885-10.945-11.885h-36.65zm284.627 0c-6.064 0-10.945 5.3-10.945 11.884s4.881 11.885 10.945 11.885h36.65c6.065 0 10.948-5.3 10.948-11.885 0-6.584-4.883-11.885-10.947-11.885h-36.65zm-213.082 82.2c-2.537.048-5.004.958-6.947 2.764l-26.84 24.96c-4.44 4.129-4.407 11.336.076 16.157 4.484 4.822 11.669 5.378 16.11 1.248l26.84-24.957c4.44-4.13 4.405-11.336-.079-16.158-2.522-2.712-5.898-4.075-9.16-4.013zm178.188 0c-3.262-.061-6.638 1.302-9.16 4.014-4.484 4.822-4.52 12.029-.079 16.158l26.84 24.957c4.441 4.13 11.626 3.574 16.11-1.248 4.483-4.821 4.517-12.028.076-16.158l-26.84-24.959c-1.943-1.806-4.41-2.716-6.947-2.763zm-110.01 60.659c-6.921 0-12.494 6.051-12.494 13.566s5.573 13.565 12.494 13.565h41.832c6.921 0 12.494-6.05 12.494-13.565s-5.573-13.566-12.494-13.566zm3.932 32.013c-5.62 0-10.147 4.914-10.147 11.016s4.526 11.016 10.147 11.016h33.968c5.62 0 10.147-4.914 10.147-11.016s-4.526-11.016-10.147-11.016z"/>
</svg>
