<svg xml:space="preserve" viewBox="0 0 512 512" xmlns="http://www.w3.org/2000/svg"><path fill="#e3e9ff" d="M512 256a256 256 0 0 1-256 256A256 256 0 0 1 0 256 256 256 0 0 1 256 0a256 256 0 0 1 256 256"/><path fill="#002ba5" d="M256 378.93h92.197a15.366 15.366 0 0 0 15.367-15.366V148.436a15.366 15.366 0 0 0-15.367-15.366H163.803a15.366 15.366 0 0 0-15.367 15.366v215.128a15.366 15.366 0 0 0 15.367 15.366h61.465V225.268h-76.832v-30.733h215.128v30.733H256Zm-92.197-276.592h184.394a46.1 46.1 0 0 1 46.099 46.098v215.128a46.1 46.1 0 0 1-46.099 46.098H163.803a46.1 46.1 0 0 1-46.099-46.098V148.436a46.1 46.1 0 0 1 46.099-46.098"/></svg>