<svg xmlns="http://www.w3.org/2000/svg" viewBox="0 0 512 512">
  <path class="icon-background" fill="none" d="M0 0h512v512H0Z"/>
  <path  class="icon-primary" fill="currentcolor" d="m147.244 341.5-12.141 12.141a17.1 17.1 0 0 0 0 24.111 17.1 17.1 0 0 0 24.111 0l12.141-12.141a17.1 17.1 0 0 0-24.111-24.111M136.3 256a17.1 17.1 0 0 0-17.1-17.1h-17.1a17.1 17.1 0 0 0 0 34.2h17.1a17.1 17.1 0 0 0 17.1-17.1M256 136.3a17.1 17.1 0 0 0 17.1-17.1v-17.1a17.1 17.1 0 0 0-34.2 0v17.1a17.1 17.1 0 0 0 17.1 17.1m-108.756 35.055a17.1 17.1 0 0 0 11.97 4.959 17.1 17.1 0 0 0 12.141-4.959 17.1 17.1 0 0 0 0-24.111l-12.141-12.141a17.1 17.1 0 0 0-24.111 24.111zm205.2 4.959a17.1 17.1 0 0 0 11.97-4.959l12.141-12.141a17.1 17.1 0 1 0-24.111-24.111L341.5 147.244a17.1 17.1 0 0 0 0 24.111 17.1 17.1 0 0 0 11.286 4.959zM409.9 238.9h-17.1a17.1 17.1 0 0 0 0 34.2h17.1a17.1 17.1 0 0 0 0-34.2M256 375.7a17.1 17.1 0 0 0-17.1 17.1v17.1a17.1 17.1 0 0 0 34.2 0v-17.1a17.1 17.1 0 0 0-17.1-17.1m108.756-34.2a17.1 17.1 0 0 0-23.256 23.256l12.141 12.141a17.1 17.1 0 0 0 24.111 0 17.1 17.1 0 0 0 0-24.111zM256 161.95A94.05 94.05 0 1 0 350.05 256 94.221 94.221 0 0 0 256 161.95m0 153.9A59.85 59.85 0 1 1 315.85 256 59.85 59.85 0 0 1 256 315.85"/>
</svg>