<svg xmlns="http://www.w3.org/2000/svg" xml:space="preserve" viewBox="0 0 512 512">
  <path class="icon-background" fill="none" d="M0 0h512v512H0Z"/>
  <path class="icon-primary" fill="currentcolor" d="m222.52 352.617-28.872 29.61a40.372 42.606 0 0 1-57.095-60.253l74.06-78.33a40.129 42.35 0 0 1 55.3-1.55l1.957 1.721a16.323 17.226 0 0 0 22.837-24.617 48.937 51.646 0 0 0-2.936-3.615 72.754 76.781 0 0 0-99.343 3.787l-75.039 78.33a73.08 77.126 0 0 0 103.259 108.974l28.22-29.093a16.312 17.216 0 0 0-22.348-24.964m174.382-245.148a73.244 77.297 0 0 0-103.258 0l-28.22 29.094a16.312 17.216 0 0 0 22.347 24.963l28.22-29.61a40.372 42.606 0 0 1 57.094 60.253l-74.058 78.33a40.129 42.35 0 0 1-55.3 1.55l-1.958-1.722a16.323 17.226 0 0 0-22.837 24.62 48.937 51.646 0 0 0 3.752 3.614 72.918 76.953 0 0 0 99.343-3.787l74.223-78.33a73.244 77.297 0 0 0 .652-108.975"/>
</svg>