<svg xml:space="preserve" viewBox="0 0 512 512" xmlns="http://www.w3.org/2000/svg"><path fill="#e3e9ff" d="M512 256a256 256 0 0 1-256 256A256 256 0 0 1 0 256 256 256 0 0 1 256 0a256 256 0 0 1 256 256"/><path d="m225.627 331.133-26.196 23.027a36.629 33.133 0 0 1-51.801-46.857l67.193-60.913a36.408 32.934 0 0 1 50.173-1.205l1.776 1.338a14.81 13.396 0 0 0 20.72-19.144 44.4 40.163 0 0 0-2.664-2.811 66.009 59.709 0 0 0-90.133 2.945l-68.081 60.914a66.305 59.977 0 0 0 93.685 84.744l25.604-22.625a14.8 13.388 0 0 0-20.276-19.413m158.214-190.64a66.453 60.11 0 0 0-93.685 0l-25.604 22.625a14.8 13.388 0 0 0 20.276 19.412l25.604-23.026a36.629 33.133 0 0 1 51.8 46.856l-67.192 60.914a36.408 32.934 0 0 1-50.173 1.205l-1.776-1.339a14.81 13.396 0 0 0-20.72 19.145 44.4 40.163 0 0 0 3.404 2.811 66.157 59.843 0 0 0 90.133-2.945l67.341-60.914a66.453 60.11 0 0 0 .592-84.744" fill="#002ba5"/></svg>