<svg xml:space="preserve" viewBox="0 0 512 512" xmlns="http://www.w3.org/2000/svg"><path fill="#e3e9ff" d="M512 256a256 256 0 0 1-256 256A256 256 0 0 1 0 256 256 256 0 0 1 256 0a256 256 0 0 1 256 256"/><path d="M339.39 138.207H168.178c-7.338 0-12.23-4.714-12.23-11.784s4.892-11.785 12.23-11.785H339.39c7.338 0 12.23 4.714 12.23 11.785s-4.892 11.784-12.23 11.784m0 259.258H168.178c-7.338 0-12.23-4.714-12.23-11.784s4.892-11.785 12.23-11.785H339.39c7.338 0 12.23 4.714 12.23 11.785s-4.892 11.784-12.23 11.784m48.918-47.138c-7.338 0-12.23-4.714-12.23-11.784V173.56c0-7.07 4.892-11.784 12.23-11.784s12.23 4.714 12.23 11.784v164.983c0 7.07-4.892 11.784-12.23 11.784m-269.048 0c-7.338 0-12.23-4.714-12.23-11.784V173.56c0-7.07 4.892-11.784 12.23-11.784s12.23 4.714 12.23 11.784v164.983c0 7.07-4.892 11.784-12.23 11.784m220.13 0H168.178c-7.338 0-12.23-4.714-12.23-11.784V173.56c0-7.07 4.892-11.784 12.23-11.784H339.39c7.338 0 12.23 4.714 12.23 11.784v164.983c0 7.07-4.892 11.784-12.23 11.784m-158.983-23.569h146.754V185.345H180.407Z" fill="#002ba5"/></svg>