<svg xmlns="http://www.w3.org/2000/svg" viewBox="0 0 512 512">
  <path class="icon-background" fill="none" d="M0 0h512v512H0Z"/>
  <g>
    <path class="icon-primary" fill="#6364ff" d="M425.62 154.466c-5.27-39.156-39.397-70.009-79.848-75.99-6.829-1.01-32.686-4.688-92.592-4.688h-.448c-59.917 0-72.767 3.678-79.596 4.687-39.33 5.814-75.246 33.55-83.958 73.165-4.194 19.511-4.642 41.141-3.863 60.983 1.11 28.453 1.329 56.861 3.908 85.202a400.766 400.766 0 0 0 9.329 55.886c8.28 33.953 41.814 62.21 74.662 73.737a200.254 200.254 0 0 0 109.238 5.764 159.03 159.03 0 0 0 11.813-3.23c8.813-2.803 19.135-5.925 26.72-11.425a.863.863 0 0 0 .348-.662v-27.466a.819.819 0 0 0-.308-.623.813.813 0 0 0-.684-.157 302.753 302.753 0 0 1-70.89 8.287c-41.084 0-52.129-19.5-55.296-27.613a85.545 85.545 0 0 1-4.805-21.764.796.796 0 0 1 .998-.813 297.012 297.012 0 0 0 69.728 8.28c5.646 0 11.28 0 16.932-.145 23.62-.667 48.519-1.873 71.764-6.414.577-.112 1.155-.213 1.654-.364 36.66-7.036 71.55-29.132 75.094-85.085.134-2.203.465-23.071.465-25.358.017-7.771 2.5-55.107-.364-84.194z"/>
    <path fill="#fff" d="M367.537 198.46v97.274h-38.54v-94.403c0-19.875-8.286-30.012-25.134-30.012-18.518 0-27.797 11.993-27.797 35.68v51.676h-38.32v-51.676c0-23.687-9.29-35.68-27.809-35.68-16.752 0-25.117 10.137-25.117 30.012v94.414h-38.54v-97.284c0-19.875 5.074-35.67 15.222-47.376 10.473-11.672 24.204-17.671 41.253-17.671 19.73 0 34.637 7.59 44.578 22.745l9.592 16.097 9.61-16.097c9.94-15.16 24.848-22.74 44.544-22.74 17.033 0 30.763 5.994 41.264 17.672 10.148 11.69 15.205 27.483 15.194 47.37z"/>
  </g>
</svg>