<svg xmlns="http://www.w3.org/2000/svg" xml:space="preserve" viewBox="0 0 512 512">
  <path class="icon-background" fill="#ffffff00" d="M0 0h512v512H0Z"/>
  <path fill="#fff" d="M125.175 89.235h261.65c1.661 0 2.999 1.317 2.999 2.952v327.626c0 1.635-1.338 2.952-2.999 2.952h-261.65c-1.661 0-2.999-1.317-2.999-2.952V92.187c0-1.635 1.338-2.952 2.999-2.952"/>
  <path class="icon-primary" fill="hsla(194, 100%, 35%, 1.00)" d="M134.517 81c-10.5 0-19.086 8.59-19.086 19.09v311.82c0 10.5 8.586 19.09 19.086 19.09h242.966c10.5 0 19.086-8.59 19.086-19.09V100.09c0-10.5-8.586-19.09-19.086-19.09zm0 8.678h242.966c5.842 0 10.407 4.57 10.407 10.411v311.822c0 5.842-4.565 10.41-10.407 10.41H134.517c-5.842 0-10.407-4.568-10.407-10.41V100.089c0-5.842 4.565-10.41 10.407-10.41z"/>
  <path fill="#8e857c" d="M165.214 133.392h77.804a16.635 16.635 0 0 1 16.673 16.67 16.635 16.635 0 0 1-16.673 16.672h-77.804a16.635 16.635 0 0 1-16.673-16.671 16.635 16.635 0 0 1 16.673-16.671m-9.729 94.745h186.181a6.93 6.93 0 0 1 6.944 6.943 6.93 6.93 0 0 1-6.944 6.943H155.485a6.93 6.93 0 0 1-6.944-6.943 6.93 6.93 0 0 1 6.944-6.943m0 46.628h186.181a6.93 6.93 0 0 1 6.944 6.944 6.93 6.93 0 0 1-6.944 6.943H155.485a6.93 6.93 0 0 1-6.944-6.943 6.93 6.93 0 0 1 6.944-6.944m0 46.629h186.181a6.93 6.93 0 0 1 6.944 6.943 6.93 6.93 0 0 1-6.944 6.943H155.485a6.93 6.93 0 0 1-6.944-6.943 6.93 6.93 0 0 1 6.944-6.943m0 46.629h186.181a6.93 6.93 0 0 1 6.944 6.943 6.93 6.93 0 0 1-6.944 6.943H155.485a6.93 6.93 0 0 1-6.944-6.943 6.93 6.93 0 0 1 6.944-6.943"/>
  <path class="icon-secondary" fill="hsla(350, 75%, 50%, 1.00)" d="M377.351 380.453c-.728 1.402-14.156 1.99-15.078 3.264-.923 1.274 2.311 14.759 1.215 15.876s-14.102-2.41-15.348-1.474c-1.245.935-2 14.798-3.367 15.531s-12.795-6.596-14.253-6.082-6.135 13.525-7.65 13.809-10.352-10.197-11.893-10.15c-1.54.047-9.723 11.048-11.254 10.858s-6.988-12.891-8.474-13.315c-1.487-.424-12.449 7.59-13.858 6.942-1.408-.648-3.004-14.44-4.304-15.297s-14.067 3.458-15.23 2.41c-1.161-1.048 1.248-14.705.25-15.92-.999-1.215-14.437-.982-15.249-2.337-.812-1.354 5.388-13.664 4.78-15.129s-13.523-5.333-13.913-6.875c-.39-1.54 9.05-11.41 8.886-12.993-.163-1.583-11.407-9.212-11.34-10.803.067-1.59 11.907-8.14 12.203-9.703s-8.279-12.272-7.761-13.77c.518-1.5 13.707-4.15 14.435-5.551.728-1.402-4.414-14.242-3.491-15.516s14.288.212 15.384-.905-.157-14.945 1.089-15.88 13.6 4.553 14.967 3.82 4.114-14.321 5.571-14.836c1.458-.514 11.705 8.492 13.22 8.208 1.517-.284 8.02-12.425 9.56-12.472 1.54-.048 8.768 11.674 10.298 11.864s11.211-9.424 12.698-9c1.486.424 5.052 13.82 6.461 14.467s13.408-5.586 14.708-4.729.888 14.738 2.05 15.786 14.413-1.253 15.411-.038c.999 1.215-3.354 14.345-2.542 15.7s14.137 3.194 14.745 4.658-7.3 12.679-6.91 14.22 12.606 7.355 12.769 8.939-10.597 9.885-10.663 11.476c-.067 1.59 9.953 10.863 9.658 12.426-.296 1.562-12.952 6.214-13.47 7.713-.517 1.498 6.418 13.406 5.69 14.808"/>
  <path fill="#fff" d="M308.705 289.201c-28.79 0-52.142 23.73-52.142 52.924s23.351 52.924 52.142 52.924c28.791 0 52.14-23.73 52.14-52.924s-23.349-52.924-52.14-52.924zm0 3.5c26.87 0 48.64 22.093 48.64 49.424s-21.77 49.424-48.64 49.424-48.642-22.093-48.642-49.424 21.772-49.424 48.642-49.424z"/>
  <path fill="#fff" d="M335.802 317.61a5.015 5.015 0 0 0-3.558 1.478l-34.197 34.185-16.426-16.427a5.02 5.02 0 0 0-7.116 0l-2.306 2.312a5.017 5.017 0 0 0 0 7.113l19.984 19.977 2.307 2.312a5.021 5.021 0 0 0 7.115 0l2.313-2.312 37.748-37.735a5.024 5.024 0 0 0 0-7.119l-2.306-2.306a5.015 5.015 0 0 0-3.558-1.477z"/>
</svg>