<svg xml:space="preserve" viewBox="0 0 512 512" xmlns="http://www.w3.org/2000/svg"><path fill="#e3e9ff" d="M512 256a256 256 0 0 1-256 256A256 256 0 0 1 0 256 256 256 0 0 1 256 0a256 256 0 0 1 256 256"/><path d="M303.766 185.764h-95.532c-7.165 0-11.942-4.682-11.942-11.706s4.777-11.705 11.942-11.705h95.532c7.165 0 11.942 4.682 11.942 11.705 0 7.024-4.777 11.706-11.942 11.706m0 163.883h-95.532c-7.165 0-11.942-4.682-11.942-11.705 0-7.024 4.777-11.706 11.942-11.706h95.532c7.165 0 11.942 4.682 11.942 11.706s-4.777 11.705-11.942 11.705m35.825-35.117c-7.165 0-11.942-4.683-11.942-11.706v-93.648c0-7.023 4.777-11.706 11.942-11.706s11.941 4.683 11.941 11.706v93.648c0 7.023-4.776 11.706-11.941 11.706m-167.182 0c-7.165 0-11.941-4.683-11.941-11.706v-93.648c0-7.023 4.776-11.706 11.941-11.706s11.942 4.683 11.942 11.706v93.648c0 7.023-4.777 11.706-11.942 11.706" fill="#002ba5"/><path d="M387.357 396.471H124.643c-7.165 0-11.941-4.682-11.941-11.706v-257.53c0-7.024 4.776-11.706 11.941-11.706h262.714c7.165 0 11.941 4.682 11.941 11.706v257.53c0 7.024-4.776 11.706-11.941 11.706M136.585 373.06h238.83V138.941h-238.83Z" fill="#002ba5"/></svg>