<svg xmlns="http://www.w3.org/2000/svg" viewBox="0 0 512 512">
  <path class="icon-background" fill="none" d="M0 0h512v512H0Z"/>
  <g>
    <path class="icon-primary" fill="#ff4500" d="M256 85c-94.437 0-171 76.563-171 171 0 47.225 19.144 89.975 50.084 120.916l-32.57 32.57C96.048 415.952 100.63 427 109.768 427H256c94.437 0 171-76.563 171-171S350.437 85 256 85z"/>
    <path fill="#fff" d="M290.788 165.637c2.966 12.571 14.254 21.936 27.734 21.936 15.737 0 28.495-12.758 28.495-28.495 0-15.738-12.758-28.496-28.495-28.496-13.76 0-25.236 9.753-27.908 22.724-23.045 2.472-41.04 22.017-41.04 45.703v.147c-25.062 1.055-47.947 8.19-66.115 19.451a39.739 39.739 0 0 0-24.408-8.336c-22.056 0-39.931 17.875-39.931 39.931 0 16.005 9.405 29.791 22.991 36.164 1.323 46.357 51.835 83.643 113.97 83.643 62.134 0 112.712-37.326 113.968-83.723 13.48-6.413 22.804-20.16 22.804-36.07 0-22.057-17.874-39.932-39.93-39.932a39.72 39.72 0 0 0-24.315 8.27c-18.329-11.342-41.467-18.476-66.783-19.425v-.107c0-16.966 12.61-31.047 28.963-33.358zM181.855 275.545c.668-14.482 10.287-25.597 21.469-25.597s19.732 11.743 19.064 26.225c-.668 14.481-9.018 19.745-20.213 19.745s-20.988-5.892-20.32-20.373zm126.995-25.597c11.195 0 20.814 11.115 21.468 25.597.668 14.481-9.138 20.373-20.32 20.373-11.181 0-19.544-5.25-20.212-19.745-.668-14.482 7.869-26.225 19.064-26.225zm-13.306 59.102c2.097.214 3.433 2.391 2.618 4.342-6.88 16.445-23.125 28.001-42.082 28.001s-35.188-11.556-42.082-28.001c-.815-1.95.521-4.128 2.619-4.342 12.29-1.242 25.583-1.924 39.463-1.924 13.88 0 27.16.682 39.464 1.924z"/>
  </g>
</svg>