<svg xmlns="http://www.w3.org/2000/svg" xml:space="preserve" viewBox="0 0 512 512">
  <path class="icon-background" fill="none" d="M0 0h512v512H0Z"/>
  <path class="icon-primary" fill="currentcolor" d="M443.438 272.988c-.03 94.203-76.4 170.554-170.598 170.554-92.109 0-167.172-73.001-170.484-164.311-.125-3.446 2.68-6.332 6.126-6.443l30.02-.961c3.559-.114 6.398 2.682 6.544 6.24 2.54 61.597 50.072 115.14 113.61 121.443 68.057 6.75 123.047-36.379 137.846-95.114 18.03-71.557-32.357-132.853-69.394-146.695-74.09-27.689-125.515 1.212-152.753 33.821l84.784-3.116a3.306 3.306 0 0 1 2.613 5.476l-19.3 22.142a18.707 18.707 0 0 1-13.75 6.412l-80.969 1.522a19.621 19.621 0 0 1-19.481-15.18l-23.328-100.48a5.51 5.51 0 0 1 5.395-6.756l23.627.119a8.64 8.64 0 0 1 8.43 6.949l9.11 45.636c42.876-47.606 100.94-63.749 169.602-44.92 72.967 20.008 122.41 87.998 122.35 163.662"/>
</svg>