<svg xmlns="http://www.w3.org/2000/svg" xml:space="preserve" viewBox="0 0 512 512"><circle cx="256" cy="256" r="256" fill="#e3e9ff"/><path fill="#002ba5" d="M409.662 256.011c-.026 84.875-68.834 153.665-153.704 153.665-82.988 0-150.618-65.772-153.602-148.04-.113-3.105 2.414-5.706 5.52-5.805l27.046-.866c3.206-.103 5.764 2.416 5.896 5.621 2.288 55.498 45.114 103.74 102.36 109.418 61.318 6.082 110.863-32.776 124.197-85.695 16.244-64.471-29.154-119.698-62.523-132.169-66.754-24.947-113.087 1.092-137.627 30.472l76.388-2.808a2.979 2.979 0 0 1 2.355 4.934l-17.389 19.95a16.86 16.86 0 0 1-12.389 5.777l-72.95 1.37a17.68 17.68 0 0 1-17.553-13.676l-21.018-90.53a4.965 4.965 0 0 1 4.86-6.087l21.289.107a7.785 7.785 0 0 1 7.595 6.261l8.207 41.117c38.63-42.892 90.945-57.436 152.808-40.472 65.741 18.027 110.288 79.284 110.234 147.456"/></svg>