<svg xmlns="http://www.w3.org/2000/svg" xml:space="preserve" viewBox="0 0 512 512">
  <path class="icon-background" fill="none" d="M0 0h512v512H0Z"/>
  <path class="icon-primary" fill="currentcolor" d="m424.067 392.883-94.88-94.309c19.433-26.863 29.15-61.157 24.006-97.738-8.574-61.157-58.3-109.74-120.6-115.456C148.571 76.806 77.125 148.252 85.7 232.844c5.715 61.158 54.299 112.027 115.456 120.6 36.58 5.145 70.303-5.143 97.738-24.005l94.88 94.88c4.001 4 10.86 4 14.86 0l14.862-14.86c4.572-5.145 4.572-12.004.571-16.576M127.996 219.127c0-50.298 41.152-92.023 92.022-92.023 50.87 0 92.022 41.153 92.022 92.023 0 50.869-41.153 92.022-92.022 92.022-50.87 0-92.022-40.581-92.022-92.022"/>  
</svg>