<svg xmlns="http://www.w3.org/2000/svg" xml:space="preserve" viewBox="0 0 512 512">
  <path fill="none" d="M0 0h512v512H0Z" class="icon-background"/>
  <path class="icon-primary" fill="currentcolor" d="M251.176 85c-3.293.1-17.2 26.066-20.445 26.673-3.24.608-25.155-18.654-28.273-17.555-3.115 1.102-8.988 30.16-11.912 31.727-2.923 1.568-29.342-10.17-32.006-8.17s.012 31.573-2.331 33.962c-2.344 2.388-30.923-.791-32.896 1.933s9.02 30.187 7.464 33.185c-1.557 2.996-29.763 8.663-30.871 11.87-1.108 3.204 17.232 26.104 16.598 29.447-.633 3.342-25.953 17.35-26.096 20.75-.143 3.402 23.902 19.716 24.25 23.102.351 3.385-19.834 24.49-19 27.784.834 3.297 28.451 11.569 29.751 14.702s-11.957 29.458-10.22 32.353c1.736 2.898 30.472 2.401 32.608 5 2.134 2.598-3.018 31.803-.535 34.045 2.487 2.24 29.79-6.987 32.57-5.155 2.78 1.833 6.195 31.327 9.206 32.713 3.014 1.386 26.455-15.751 29.635-14.844 3.177.906 14.849 28.066 18.123 28.473 3.274.406 20.773-23.118 24.066-23.219 3.296-.1 22.193 22.314 25.433 21.707 3.24-.608 13.242-28.435 16.36-29.534s27.555 14.574 30.478 13.006 4.538-31.21 7.2-33.21c2.665-2 30.478 5.539 32.822 3.15s-4.572-31.224-2.598-33.949c1.972-2.724 30.688-3.981 32.245-6.98 1.556-2.997-13.273-28.464-12.167-31.668 1.107-3.205 28.17-13.153 28.803-16.494.63-3.342-20.794-23.172-20.65-26.572.14-3.403 23.15-21.156 22.8-24.543-.348-3.387-26.473-15.822-27.307-19.117s16.078-27.276 14.777-30.407c-1.3-3.13-29.794-7.064-31.53-9.962s7.57-30.978 5.434-33.577c-2.134-2.598-30.47 2.325-32.955.084s-1.605-31.928-4.385-33.761-28.438 11.5-31.452 10.116c-3.013-1.384-10.639-30.035-13.816-30.942-3.18-.906-23.886 19.653-27.158 19.247S254.47 84.898 251.176 85M256 150.308a104.02 105.694 0 0 1 104.02 105.694A104.02 105.694 0 0 1 256 361.695a104.02 105.694 0 0 1-104.018-105.693A104.02 105.694 0 0 1 256 150.308m57.949 53.267a10.73 10.73 0 0 0-7.61 3.162l-73.131 73.102-35.127-35.127a10.735 10.735 0 0 0-15.216 0l-4.933 4.945a10.73 10.73 0 0 0 0 15.208l42.737 42.724 4.933 4.941a10.737 10.737 0 0 0 15.216 0l4.945-4.94 80.725-80.7a10.744 10.744 0 0 0 0-15.225l-4.929-4.928a10.73 10.73 0 0 0-7.61-3.162"/>
</svg>