<svg xmlns="http://www.w3.org/2000/svg" viewBox="0 0 512 512">
   <path class="icon-background" fill="none" d="M0 0h512v512H0Z"/>
  <path class="icon-primary" fill="currentcolor" d="M256.322 91.514a7.94 7.94 0 0 0-10.476 4.735l-38.363 109.61-115.057 7.437a7.94 7.94 0 0 0-4.308 14.233l91.174 69.65-28.987 113.992a7.94 7.94 0 0 0 12.196 8.498l96.724-66.572 97.038 62.215a7.94 7.94 0 0 0 11.92-8.866l-32.132-112.459 88.085-73.209a7.94 7.94 0 0 0-4.887-14.043l-115.856-2.741-42.668-108.039a7.94 7.94 0 0 0-4.403-4.441zm-2.533 30.11 36.768 93.1a7.94 7.94 0 0 0 7.197 5.02l99.938 2.365-75.773 62.975a7.94 7.94 0 0 0-2.559 8.288l27.78 97.226-83.786-53.716a7.94 7.94 0 0 0-8.787.144l-83.665 57.584 25.073-98.599a7.94 7.94 0 0 0-2.876-8.267l-78.498-59.97 99.151-6.406a7.94 7.94 0 0 0 6.982-5.302z"/>  
</svg>
