<?xml version="1.0" encoding="UTF-8" standalone="no"?>
<!-- Created with Inkscape (http://www.inkscape.org/) -->

<svg
   width="500"
   height="500"
   viewBox="0 0 500 500"
   version="1.1"
   id="svg1"
   inkscape:version="1.4 (86a8ad7, 2024-10-11)"
   sodipodi:docname="star.svg"
   xmlns:inkscape="http://www.inkscape.org/namespaces/inkscape"
   xmlns:sodipodi="http://sodipodi.sourceforge.net/DTD/sodipodi-0.dtd"
   xmlns="http://www.w3.org/2000/svg"
   xmlns:svg="http://www.w3.org/2000/svg">
  <sodipodi:namedview
     id="namedview1"
     pagecolor="#ffffff"
     bordercolor="#000000"
     borderopacity="0.25"
     inkscape:showpageshadow="2"
     inkscape:pageopacity="0.0"
     inkscape:pagecheckerboard="0"
     inkscape:deskcolor="#d1d1d1"
     inkscape:document-units="mm"
     inkscape:zoom="1.0267829"
     inkscape:cx="17.530482"
     inkscape:cy="340.38353"
     inkscape:window-width="1920"
     inkscape:window-height="1017"
     inkscape:window-x="-8"
     inkscape:window-y="-8"
     inkscape:window-maximized="1"
     inkscape:current-layer="layer1"
     showguides="false" />
  <defs
     id="defs1">
    <inkscape:path-effect
       effect="fillet_chamfer"
       id="path-effect5"
       is_visible="true"
       lpeversion="1"
       nodesatellites_param="F,0,0,1,0,0,0,1 @ F,0,0,1,0,0,0,1 @ F,0,0,1,0,0,0,1 @ F,0,0,1,0,0,0,1 @ F,0,0,1,0,0,0,1 @ F,0,0,1,0,0,0,1 @ F,0,0,1,0,0,0,1 @ F,0,0,1,0,0,0,1 @ F,0,0,1,0,0,0,1 @ F,0,0,1,0,0,0,1"
       radius="0"
       unit="px"
       method="auto"
       mode="F"
       chamfer_steps="1"
       flexible="false"
       use_knot_distance="true"
       apply_no_radius="true"
       apply_with_radius="true"
       only_selected="false"
       hide_knots="false" />
  </defs>
  <g
     inkscape:label="Layer 1"
     inkscape:groupmode="layer"
     id="layer1">
    <path
       style="fill:#9c3d0f;stroke-width:0;stroke-linecap:round;stroke-linejoin:round;stroke-dasharray:none"
       d="m 250.38303,54.252139 a 9.449764,9.449764 0 0 0 -12.4668,5.634766 l -45.6543,130.443365 -136.923828,8.84961 a 9.449764,9.449764 0 0 0 -5.126953,16.9375 L 158.7131,299.00605 124.21701,434.6623 a 9.449764,9.449764 0 0 0 14.51367,10.11328 l 115.10742,-79.22461 115.48047,74.03906 a 9.449764,9.449764 0 0 0 14.18555,-10.55078 L 345.26584,295.20722 450.09201,208.08417 A 9.449764,9.449764 0 0 0 444.2756,191.37128 L 306.4006,188.10956 255.62326,59.537296 a 9.449764,9.449764 0 0 0 -5.24023,-5.285157 z m -3.01368,35.832032 43.75586,110.794929 a 9.449764,9.449764 0 0 0 8.56446,5.9746 l 118.93164,2.81446 -90.17383,74.94336 a 9.449764,9.449764 0 0 0 -3.04492,9.86328 l 33.05859,115.70508 -99.70898,-63.92578 a 9.449764,9.449764 0 0 0 -10.45703,0.17187 l -99.56641,68.52734 29.83789,-117.33789 a 9.449764,9.449764 0 0 0 -3.42187,-9.83789 l -93.417976,-71.36718 117.996096,-7.625 a 9.449764,9.449764 0 0 0 8.30859,-6.3086 z"
       id="path7" />
  </g>
</svg>
