<svg xml:space="preserve" viewBox="0 0 512 512" xmlns="http://www.w3.org/2000/svg"><path fill="#e3e9ff" d="M512 256a256 256 0 0 1-256 256A256 256 0 0 1 0 256 256 256 0 0 1 256 0a256 256 0 0 1 256 256"/><path d="M261.795 101.27q-4-.023-8.049.173v.015c-78.579 3.77-140.568 69.986-140.332 149.58a145.023 147.816 0 0 0 16.057 67.347l-15.657 76.94a5.727 5.837 0 0 0 6.955 6.832l74.495-17.859a147.983 150.832 0 0 0 63.396 15.567c80.31 1.251 147.257-63.275 149.758-144.498 2.609-84.384-63.957-153.636-146.623-154.097m-.842 32.42c30.87 0 59.874 12.158 81.687 34.24a113.503 115.688 0 0 1 33.843 82.655c0 30.951-12.208 60.786-33.843 82.671v-.015a115.13 117.348 0 0 1-81.687 34.24 115.426 117.65 0 0 1-51.41-12.187l-10.372-5.234-45.682 10.95 9.618-47.226-5.12-10.136a112.467 114.633 0 0 1-12.55-53.048c0-31.222 12.017-60.589 33.83-82.655a116.166 118.403 0 0 1 81.686-34.255M212.8 178.615a10.7 10.905 0 0 0-7.31 2.557c-7.977 6.833-17.448 17.195-18.587 28.704-2.028 20.257 6.555 45.792 39.023 76.472 37.513 35.43 67.57 40.121 87.118 35.31 11.098-2.715 19.977-13.62 25.556-22.535a10.551 10.754 0 0 0-6.038-16.169l-28.575-8.296a10.655 10.86 0 0 0-10.552 2.806l-6.984 7.21a10.507 10.71 0 0 1-11.32 2.413c-13.512-5.536-41.954-31.117-49.22-43.923a10.21 10.407 0 0 1 .829-11.674l6.096-7.994a10.507 10.71 0 0 0 1.318-10.95l-12.017-27.513a10.7 10.905 0 0 0-9.337-6.418" fill="#002ba5"/></svg>