<svg xml:space="preserve" viewBox="0 0 512 512" xmlns="http://www.w3.org/2000/svg"><path fill="#e3e9ff" d="M512 256a256 256 0 0 1-256 256A256 256 0 0 1 0 256 256 256 0 0 1 256 0a256 256 0 0 1 256 256"/><path fill="#002ba5" d="M177.236 182.906a13.215 11.648 0 0 1 0 16.463l-50.864 44.832h259.256l-50.864-44.832a13.215 11.648 0 0 1 18.678-16.463l73.419 64.712a13.215 11.648 0 0 1 0 16.463l-73.42 64.712a13.215 11.648 0 0 1-18.677-16.463l50.864-44.832H126.372l50.864 44.832a13.215 11.648 0 1 1-18.678 16.463L85.14 264.08a13.215 11.648 0 0 1 0-16.463l73.42-64.712a13.215 11.648 0 0 1 18.677 0"/></svg>