<svg xmlns="http://www.w3.org/2000/svg" xml:space="preserve" viewBox="0 0 512 512">
  <path fill="none" d="M0 0h512v512H0Z" class="icon-background"/>
  <g>
    <path class="icon-primary" fill="red" d="M419.006 174.23a42.503 42.503 0 0 0-29.969-29.968c-26.617-7.02-133.037-7.02-133.037-7.02s-106.42 0-133.037 7.02c-14.572 3.91-26.034 15.397-29.968 29.967C86 200.823 86 256 86 256s0 55.444 6.994 81.77c3.935 14.571 15.422 26.058 29.969 29.968 26.617 7.02 133.037 7.02 133.037 7.02s106.42 0 133.037-7.02a42.503 42.503 0 0 0 29.968-29.967C426 311.177 426 256 426 256s0-55.176-6.994-81.77"/>
    <path fill="#fff" d="m219.793 307.097 88.498-50.952-88.496-51.242z"/>
  </g>
</svg>
