<svg xmlns="http://www.w3.org/2000/svg" xml:space="preserve" viewBox="0 0 512 512"><path fill="#e3e9ff" d="M512 256a256 256 0 0 1-256 256A256 256 0 0 1 0 256 256 256 0 0 1 256 0a256 256 0 0 1 256 256"/><path fill="#002ba5" d="M408.794 179.353a39.84 39.84 0 0 0-28.091-28.091c-24.95-6.58-124.703-6.58-124.703-6.58s-99.753 0-124.703 6.58c-13.658 3.665-24.403 14.432-28.09 28.09C96.65 204.28 96.65 256 96.65 256s0 51.97 6.556 76.647c3.688 13.659 14.456 24.426 28.091 28.091 24.95 6.58 124.703 6.58 124.703 6.58s99.753 0 124.703-6.58a39.84 39.84 0 0 0 28.09-28.09C415.35 307.72 415.35 256 415.35 256s0-51.72-6.556-76.647"/><path fill="#fff" d="m222.062 303.896 82.953-47.76-82.953-48.032z"/></svg>