<svg xmlns="http://www.w3.org/2000/svg" viewBox="0 0 512 512" xml:space="preserve"><path style="fill:#c7cfe2" d="M212.868 428.222v32.482c0 23.821 19.31 43.131 43.131 43.131s43.131-19.31 43.131-43.131v-32.482z"/><path style="opacity:.1" d="M245.531 460.704v-32.482h-32.662v32.482c0 23.821 19.31 43.131 43.131 43.131a43 43 0 0 0 16.331-3.21c-15.721-6.438-26.8-21.882-26.8-39.921"/><path style="fill:#ffd782" d="M257.861 85.607c-74.306-1.006-136.51 60.325-136.51 134.637 0 29.618 9.571 56.997 25.777 79.229 26.009 43.305 38.363 63.481 42.092 89.916 1.599 11.334 11.283 19.77 22.729 19.77h88.102c11.446 0 21.129-8.437 22.729-19.77 3.73-26.435 16.084-46.61 42.092-89.916 16.207-22.232 25.777-49.611 25.777-79.229 0-73.744-59.282-133.642-132.788-134.637"/><path style="opacity:.1" d="M232.769 389.388c-3.73-26.435-16.083-46.61-42.092-89.916-16.207-22.232-25.777-49.611-25.777-79.229 0-66.338 49.574-122.327 113.073-132.864a135.5 135.5 0 0 0-20.112-1.774c-74.306-1.006-136.51 60.325-136.51 134.637 0 29.618 9.571 56.997 25.777 79.229 26.009 43.306 38.362 63.481 42.092 89.916 1.599 11.334 11.283 19.769 22.729 19.769h43.55c-11.447.002-21.131-8.434-22.73-19.768"/><path style="fill:#b4bbcc" d="M316.812 428.222 256 409.158l-60.812 19.064c-10.529 0-19.064 8.536-19.064 19.064s8.536 19.065 19.064 19.065h121.623c10.529 0 19.064-8.536 19.064-19.065.001-10.528-8.535-19.064-19.063-19.064"/><path style="opacity:.1" d="M219.673 447.287c0-10.529 8.536-19.064 19.065-19.064l39.037-12.237L256 409.16l-60.812 19.064c-10.529 0-19.065 8.536-19.065 19.064s8.536 19.065 19.065 19.065h43.55c-10.529-.002-19.065-8.536-19.065-19.066"/><path style="fill:#c7cfe2" d="M316.812 390.093H195.188c-10.529 0-19.064 8.536-19.064 19.064s8.536 19.064 19.064 19.064h121.623c10.529 0 19.064-8.536 19.064-19.064.001-10.528-8.535-19.064-19.063-19.064"/><path style="opacity:.1" d="M219.673 409.158c0-10.529 8.536-19.064 19.065-19.064h-43.55c-10.529 0-19.065 8.536-19.065 19.064s8.536 19.064 19.065 19.064h43.55c-10.529 0-19.065-8.534-19.065-19.064"/><path d="M247.834 8.166v44.383a8.166 8.166 0 1 0 16.332 0V8.166a8.166 8.166 0 1 0-16.332 0M127.383 43.001l21.23 38.976a8.16 8.16 0 0 0 11.077 3.265 8.166 8.166 0 0 0 3.265-11.077l-21.23-38.976a8.165 8.165 0 0 0-11.077-3.265 8.17 8.17 0 0 0-3.265 11.077m-89.111 88.208 37.288 24.072a8.16 8.16 0 0 0 11.289-2.432 8.165 8.165 0 0 0-2.431-11.289L47.13 117.488a8.163 8.163 0 0 0-11.289 2.431 8.166 8.166 0 0 0 2.431 11.29m343.077-99.285a8.165 8.165 0 0 0-11.077 3.265l-21.229 38.976a8.166 8.166 0 0 0 14.341 7.812l21.229-38.976a8.165 8.165 0 0 0-3.264-11.077m83.521 85.564-37.288 24.072a8.164 8.164 0 0 0-2.431 11.289 8.16 8.16 0 0 0 11.289 2.432l37.288-24.072a8.164 8.164 0 0 0 2.431-11.289 8.17 8.17 0 0 0-11.289-2.432M348.959 326.116a8.16 8.16 0 0 0 11.189-2.856 3946 3946 0 0 1 10.724-17.92l.814-1.355c17.749-24.477 27.127-53.425 27.127-83.742 0-37.804-14.626-73.438-41.184-100.336-26.533-26.873-61.926-41.955-99.659-42.465-39.282-.496-77.577 15.748-105.133 44.661a8.164 8.164 0 0 0 .278 11.545 8.165 8.165 0 0 0 11.545-.278c24.432-25.637 58.362-40.089 93.091-39.599 33.416.453 64.761 13.81 88.259 37.61 23.521 23.822 36.474 55.381 36.474 88.862 0 26.958-8.371 52.692-24.209 74.42a8 8 0 0 0-.402.605l-.998 1.661c-3.899 6.491-7.479 12.45-10.77 17.996a8.167 8.167 0 0 0 2.854 11.191m-8.054 14.013a8.167 8.167 0 0 0-10.995 3.531c-7.356 14.315-11.749 26.121-14.148 38.268H196.238c-4.863-24.654-17.421-45.557-40.65-84.227l-1.461-2.431a8 8 0 0 0-.402-.606c-15.838-21.728-24.209-47.462-24.209-74.42 0-21.791 5.819-43.38 16.83-62.432a8.165 8.165 0 0 0-2.984-11.155 8.164 8.164 0 0 0-11.155 2.984c-12.443 21.533-19.02 45.947-19.02 70.603 0 30.316 9.378 59.264 27.127 83.742l1.277 2.125c23.336 38.849 34.733 57.826 38.853 80.175-7.504 4.854-12.484 13.29-12.484 22.873 0 7.418 2.984 14.148 7.812 19.064-4.827 4.916-7.812 11.647-7.812 19.064 0 15.015 12.216 27.231 27.229 27.231h11.417C212.696 496.319 232.792 512 256 512s43.304-15.68 49.395-37.483h11.417c15.015 0 27.229-12.216 27.229-27.231 0-7.418-2.984-14.148-7.812-19.064 4.827-4.916 7.812-11.647 7.812-19.064 0-9.583-4.98-18.02-12.484-22.873 2.04-11.092 5.916-21.612 12.878-35.161a8.166 8.166 0 0 0-3.53-10.995M256 495.669c-14.214 0-26.716-8.625-32.117-21.152h64.234c-5.403 12.527-17.905 21.152-32.117 21.152m38.103-59.281h22.708c6.01 0 10.898 4.89 10.898 10.898 0 6.01-4.89 10.899-10.898 10.899H195.187c-6.01 0-10.898-4.89-10.898-10.899s4.89-10.898 10.898-10.898h66.631a8.166 8.166 0 1 0 0-16.332h-66.631c-6.01 0-10.898-4.89-10.898-10.898 0-4.921 3.279-9.086 7.766-10.436a11 11 0 0 1 1.679-.355c.48-.063.964-.109 1.453-.109H316.81c.49 0 .973.045 1.453.109q.198.026.395.061c.431.073.858.168 1.276.293 4.491 1.347 7.775 5.513 7.775 10.438 0 6.01-4.89 10.898-10.898 10.898h-22.708a8.166 8.166 0 1 0 0 16.331"/></svg>