<svg xmlns="http://www.w3.org/2000/svg" viewBox="0 0 512 512">
  <path fill="currentColor" d="M260.604 91.426c-16.707.27-33.591 3.197-50.069 8.992-70.305 24.726-115.34 94.954-109.45 170.103 5.893 75.15 61.48 136.522 134.76 148.125 73.282 11.604 145.272-29.52 174.419-99.1a15 15 56.999 0 0-8.037-19.632 15 15 56.999 0 0-19.631 8.037c-23.995 57.28-82.57 90.485-142.063 81.065-59.492-9.42-104.692-59.009-109.539-120.834-4.847-61.826 32.193-119.31 89.494-139.463 57.301-20.153 119.858 1.896 152.313 53.81a15 15 56.999 0 0 20.67 4.77 15 15 56.999 0 0 4.767-20.672c-24.799-39.668-64.46-65.273-107.88-72.861a158.006 158.006 0 0 0-29.754-2.34zm186.152 66.912c-1.202.017-2.473.1-3.82.252-.9.102-3.184 2.458-3.495 2.764L278.34 320.034l-81.194-79.973c-1.285-1.279-2.834-2.881-3.722-3.666-4.303-2.807-25.004-3.843-20.334 21.96.821.892 2.694 2.773 3.004 3.079l82.76 81.515c4.011 3.952 8.99 6.42 14.21 7.408 3.48.659 7.07.659 10.55 0 5.22-.987 10.197-3.456 14.208-7.408l162.67-160.222 3.723-3.666c2.604-6.73.566-20.98-17.46-20.723z"/>
</svg>
