<svg xmlns="http://www.w3.org/2000/svg" viewBox="0 0 512 512">
  <path class="icon-primary" d="M256 85c-94.05 0-171 76.95-171 171 0 84.55 61.75 154.85 142.5 169.1l.975-.78c-.325-.062-.65-.105-.975-.17V303.5h-42.75V256h42.75v-38c0-42.75 27.55-66.5 66.5-66.5 12.35 0 25.65 1.9 38 3.8V199h-21.85c-20.9 0-25.65 10.45-25.65 23.75V256h45.6l-7.6 47.5h-38v120.65c-.325.065-.65.108-.975.17l.975.78C365.25 410.85 427 340.55 427 256c0-94.05-76.95-171-171-171z" />
  <path fill="none" d="M0 0h512v512H0Z" class="icon-background"/>
</svg>
