<?xml version="1.0" encoding="UTF-8" standalone="no"?>
<!-- Created with Inkscape (http://www.inkscape.org/) -->

<svg
   width="512"
   height="512"
   viewBox="0 0 512 512"
   version="1.1"
   id="svg1"
   inkscape:version="1.4 (86a8ad7, 2024-10-11)"
   sodipodi:docname="gear-wheel.svg"
   xmlns:inkscape="http://www.inkscape.org/namespaces/inkscape"
   xmlns:sodipodi="http://sodipodi.sourceforge.net/DTD/sodipodi-0.dtd"
   xmlns="http://www.w3.org/2000/svg"
   xmlns:svg="http://www.w3.org/2000/svg">
  <sodipodi:namedview
     id="namedview1"
     pagecolor="#ffffff"
     bordercolor="#000000"
     borderopacity="0.25"
     inkscape:showpageshadow="2"
     inkscape:pageopacity="0.0"
     inkscape:pagecheckerboard="0"
     inkscape:deskcolor="#d1d1d1"
     inkscape:document-units="mm"
     inkscape:zoom="0.72604517"
     inkscape:cx="515.80813"
     inkscape:cy="440.05526"
     inkscape:window-width="1920"
     inkscape:window-height="1017"
     inkscape:window-x="-8"
     inkscape:window-y="-8"
     inkscape:window-maximized="1"
     inkscape:current-layer="layer1" />
  <defs
     id="defs1" />
  <g
     inkscape:label="Layer 1"
     inkscape:groupmode="layer"
     id="layer1">
    <path
       id="path1-3"
       style="fill:#000000;fill-opacity:1;stroke-width:1;stroke-linecap:round;stroke-linejoin:round;stroke-miterlimit:0"
       d="m 337.98512,70.001713 c -0.41234,0.0096 -0.83057,0.06021 -1.24897,0.155731 l -21.09117,4.814463 c -3.34725,0.763988 -5.42755,4.07431 -4.66356,7.421562 l 4.87707,21.370501 a 56.706782,56.706782 0 0 0 -12.26973,9.97086 l -19.49866,-9.38972 c -3.09332,-1.48967 -6.78433,-0.19889 -8.274,2.89445 l -9.38652,19.49224 c -1.48967,3.09332 -0.19888,6.78272 2.89446,8.27239 l 19.5725,9.42505 a 56.706782,56.706782 0 0 0 -0.56187,7.84538 56.706782,56.706782 0 0 0 0.52976,7.4039 l -19.71377,9.49408 c -3.09333,1.48966 -4.38412,5.17907 -2.89446,8.2724 l 9.38652,19.49063 c 1.48966,3.09331 5.17907,4.38572 8.2724,2.89605 l 19.36701,-9.32712 a 56.706782,56.706782 0 0 0 11.97596,9.95161 l -4.9156,21.53906 c -0.76399,3.34724 1.3147,6.65758 4.66195,7.42157 l 21.09278,4.81446 c 3.34724,0.764 6.65596,-1.31631 7.41996,-4.66357 l 4.75184,-20.81825 a 56.706782,56.706782 0 0 0 16.11137,-3.31988 l 13.76914,17.26721 c 2.14064,2.6843 6.02637,3.12151 8.71065,0.98087 l 16.91404,-13.4882 c 2.68428,-2.14064 3.12153,-6.02476 0.98086,-8.70905 L 391.39852,184.7317 a 56.706782,56.706782 0 0 0 7.66557,-15.44354 h 21.68996 c 3.43333,0 6.19829,-2.76332 6.19829,-6.19666 v -21.63379 c 0,-3.43333 -2.76496,-6.19827 -6.19829,-6.19827 h -21.63056 a 56.706782,56.706782 0 0 0 -7.72497,-15.6137 l 13.27147,-16.64272 c 2.14067,-2.68429 1.70342,-6.568408 -0.98086,-8.709059 L 386.7751,80.805759 c -2.68428,-2.140654 -6.56841,-1.703416 -8.70907,0.98087 l -13.7017,17.180524 a 56.706782,56.706782 0 0 0 -15.43871,-3.250847 l -4.7679,-20.895316 c -0.6685,-2.928846 -3.28625,-4.887264 -6.1726,-4.819277 z m 8.30932,47.537797 a 34.654142,34.654142 0 0 1 34.65481,34.65483 34.654142,34.654142 0 0 1 -34.65481,34.65321 34.654142,34.654142 0 0 1 -34.65322,-34.65321 34.654142,34.654142 0 0 1 34.65322,-34.65483 z m -140.89889,77.78111 c -4.31816,0.32968 -7.93201,3.64381 -8.49233,8.11508 l -4.08885,32.62405 a 85.060172,85.060172 0 0 0 -22.41077,7.76189 L 147.73437,220.5809 c -3.59592,-3.68671 -9.45794,-3.75967 -13.14465,-0.16375 l -23.2311,22.65799 c -3.68673,3.59592 -3.75967,9.45955 -0.16375,13.14627 l 22.7511,23.32582 a 85.060172,85.060172 0 0 0 -4.81607,10.76873 85.060172,85.060172 0 0 0 -3.05178,10.70933 l -32.659367,3.26851 c -5.1244,0.51277 -8.836542,5.05033 -8.323771,10.17473 l 3.23158,32.29013 c 0.512783,5.12441 5.050348,8.83656 10.174748,8.32379 l 32.08304,-3.2091 a 85.060172,85.060172 0 0 0 11.7769,20.17129 l -17.97999,27.83686 c -2.79412,4.32612 -1.56171,10.0584 2.76442,12.85249 l 27.26055,17.60754 c 4.32612,2.79413 10.05837,1.56012 12.85248,-2.76601 l 17.37637,-26.9058 a 85.060172,85.060172 0 0 0 24.41265,3.5864 l 10.5504,31.40234 c 1.64021,4.88186 6.89186,7.49174 11.77368,5.85154 l 30.76184,-10.33529 c 4.88182,-1.6402 7.49175,-6.89024 5.85152,-11.77206 l -10.23415,-30.46004 a 85.060172,85.060172 0 0 0 18.72648,-17.8355 l 30.57401,11.12674 c 4.83941,1.76139 10.15354,-0.71513 11.91495,-5.55455 l 11.09943,-30.49536 c 1.7614,-4.83942 -0.71672,-10.15355 -5.55614,-11.91493 l -30.48892,-11.09623 a 85.060172,85.060172 0 0 0 -2.8784,-25.97305 l 27.2445,-16.64915 c 4.39445,-2.6854 5.76927,-8.38418 3.08389,-12.77864 l -16.92046,-27.69078 c -2.68539,-4.39446 -8.3858,-5.76928 -12.78024,-3.08389 l -28.12423,17.18694 A 85.060172,85.060172 0 0 0 243.55165,241.6817 l 3.99734,-31.90003 c 0.56032,-4.47128 -2.12548,-8.57467 -6.22879,-9.95964 -0.58621,-0.19776 -1.20097,-0.33895 -1.83973,-0.41899 l -32.19863,-4.03586 c -0.63875,-0.08 -1.26941,-0.0937 -1.88629,-0.0466 z m 0.29699,72.89601 a 51.981214,51.981214 0 0 1 22.95338,2.8768 51.981214,51.981214 0 0 1 31.06845,66.62388 51.981214,51.981214 0 0 1 -66.62548,31.06846 51.981214,51.981214 0 0 1 -31.06685,-66.62549 51.981214,51.981214 0 0 1 43.6705,-33.94365 z" />
  </g>
</svg>
