<svg xmlns="http://www.w3.org/2000/svg" viewBox="0 0 512 512">
  <path fill="currentColor" fill-rule="evenodd" d="M256 70a186 186 0 1 1 0 372 186 186 0 0 1 0-372m140.044 114.462a158.24 158.24 0 0 0-87.363-76.575 283 283 0 0 1 27.27 76.575zm16.654 85.703a143 143 0 0 0 .687-14.165 157.4 157.4 0 0 0-6.095-42.923h-67.018c.916 9.472 1.574 19 1.574 28.615a286 286 0 0 1-5.895 57.231h71.339q4.063-14.136 5.436-28.758zm-101.156 0 .172-1.46a258 258 0 0 0 1.517-27.013 258 258 0 0 0-2.175-28.615H200.944a258 258 0 0 0-2.175 28.615 257.5 257.5 0 0 0 6.668 57.231h101.126q3.291-14.25 4.98-28.758m-5.495-85.703a257.5 257.5 0 0 0-35.912-84.988c-4.693-.4-9.386-.859-14.136-.859a115 115 0 0 0-8.928.43l-5.208.429-.172.286a257.5 257.5 0 0 0-35.74 84.702zm-130 0a286.2 286.2 0 0 1 27.643-76.718 158.24 158.24 0 0 0-87.735 76.718zm-71.338 28.615A157.4 157.4 0 0 0 98.615 256a157.4 157.4 0 0 0 6.095 42.923h71.339a286 286 0 0 1-5.895-57.23c0-9.615.658-19.144 1.574-28.616zm78.807 114.461h-67.532a157.96 157.96 0 0 0 109.282 82.785 286.2 286.2 0 0 1-41.75-82.785M256 403.198a257.5 257.5 0 0 0 42.294-75.66h-84.588A257.5 257.5 0 0 0 256 403.198m72.483-75.66a286.2 286.2 0 0 1-41.75 82.785 157.96 157.96 0 0 0 109.282-82.785z" clip-rule="evenodd"/>
</svg>
