<svg xmlns="http://www.w3.org/2000/svg" viewBox="0 0 512 512">
  <path fill="currentColor" d="M256 70c-9.63 0-17.438 7.807-17.438 17.438v23.25c0 9.63 7.808 17.437 17.438 17.437s17.438-7.807 17.438-17.438v-23.25C273.438 77.808 265.63 70 256 70m110.438 46.5a17.44 17.44 0 0 0-12.307 5.131l-16.438 16.439c-7.542 6.655-7.906 18.293-.793 25.405s18.75 6.75 25.405-.793l16.439-16.438c6.777-6.805 6.777-17.808 0-24.613a17.44 17.44 0 0 0-12.307-5.131zm-222.646.59c-14.054 1.826-20.176 18.765-10.536 29.154l16.439 16.438c6.904 6.092 17.356 5.766 23.867-.745s6.837-16.963.745-23.867l-16.437-16.44a17.44 17.44 0 0 0-14.077-4.54zM256 151.375c-57.783 0-104.625 46.842-104.625 104.625 0 35.572 21.547 57.304 39.96 75.88l4.633 4.723c1.162 1.163 2.195 2.184 3.86 4.859 6.231 13.715 11.04 27.512 18.448 41.544 4.796 1.233 10.296.87 22.012.869h31.742c11.625 0 15.497-.047 22.237-.78 3.631-10.282 12.907-31.467 18.682-41.76.944-1.682 1.986-3.25 3.265-4.505l1.544-1.544c19.437-19.042 42.867-41.97 42.867-79.286 0-57.783-46.842-104.625-104.625-104.625m-6.448 35.193c40.885-3.796 76.187 28.371 76.198 69.432 0 21.576-12.576 34.927-34.012 55.945-8.068 7.905-12.488 18.675-12.488 29.835a7.21 7.21 0 0 1-7.22 7.22h-31.742a7.58 7.58 0 0 1-7.538-7.583c0-10.719-4.088-21.226-11.807-29.154l-2.633-2.724c-20.646-21.042-32.06-32.753-32.06-53.539.01-36.016 27.44-66.103 63.302-69.432m-150.49 40.37c-9.63 0-17.437 7.807-17.437 17.437s7.807 17.438 17.438 17.438h23.25c9.63 0 17.437-7.808 17.437-17.438s-7.807-17.438-17.438-17.438zm290.625 0c-9.63 0-17.437 7.807-17.437 17.437s7.807 17.438 17.437 17.438h23.25c9.631 0 17.438-7.808 17.438-17.438s-7.807-17.438-17.438-17.438zM232.75 407.125c-9.63 0-17.438 7.807-17.438 17.438S223.12 442 232.75 442h46.5c9.63 0 17.437-7.807 17.437-17.438s-7.807-17.437-17.437-17.437z"/>
</svg>
