<svg viewBox="0 0 16 16" xmlns="http://www.w3.org/2000/svg">
  <g fill="currentColor">
    <path d="M8 0a.75.75 0 0 1 .75.75v1a.75.75 0 0 1-1.5 0v-1A.75.75 0 0 1 8 0m5.28 2.22a.75.75 0 0 1 0 1.06l-.707.707a.75.75 0 1 1-1.06-1.06l.707-.707a.75.75 0 0 1 1.06 0M2.72 3.28a.75.75 0 0 1 1.06-1.06l.707.707a.75.75 0 0 1-1.06 1.06zM15.5 7.5a.75.75 0 0 1-.75.75h-1a.75.75 0 0 1 0-1.5h1a.75.75 0 0 1 .75.75m-13.25.75a.75.75 0 0 0 0-1.5h-1a.75.75 0 0 0 0 1.5zm4 7A.75.75 0 0 1 7 14.5h2A.75.75 0 0 1 9 16H7a.75.75 0 0 1-.75-.75"/>
    <path fill-rule="evenodd" d="M8 3.5A4.5 4.5 0 0 0 3.5 8c0 1.53.926 2.465 1.718 3.264l.2.203c.05.05.081.124.081.208A1.826 1.826 0 0 0 7.325 13.5H8.69c1 0 1.811-.81 1.811-1.81 0-.083.033-.159.088-.213l.067-.066C11.492 10.592 12.5 9.605 12.5 8A4.5 4.5 0 0 0 8 3.5M5 8a3 3 0 0 1 6 0c0 .928-.54 1.502-1.462 2.406-.347.34-.538.803-.538 1.283a.31.31 0 0 1-.31.311H7.324A.326.326 0 0 1 7 11.674c0-.461-.175-.914-.507-1.255l-.115-.117C5.49 9.397 5 8.894 5 8" clip-rule="evenodd"/>
  </g>
</svg>
