<svg xmlns="http://www.w3.org/2000/svg" viewBox="0 0 512 512">
  <path class="icon-background" fill="none" d="M0 0h512v512H0Z"/>
  <path class="icon-primary" fill="currentColor" fill-rule="evenodd" d="M256.038 168.335c-48.525 0-87.665 39.14-87.665 87.665 0 48.525 39.14 87.665 87.665 87.665 48.525 0 87.665-39.14 87.665-87.665 0-48.525-39.14-87.665-87.665-87.665zm0 144.659c-31.358 0-56.993-25.56-56.993-56.994s25.559-56.994 56.993-56.994 56.994 25.56 56.994 56.994-25.636 56.994-56.994 56.994zm111.699-148.245c0 11.368-9.156 20.448-20.448 20.448-11.368 0-20.447-9.156-20.447-20.448s9.155-20.447 20.447-20.447 20.448 9.155 20.448 20.447zm58.061 20.753c-1.297-27.39-7.553-51.653-27.62-71.643-19.989-19.99-44.251-26.246-71.642-27.62-28.23-1.601-112.843-1.601-141.072 0-27.315 1.298-51.577 7.554-71.643 27.544-20.066 19.99-26.246 44.252-27.62 71.643-1.602 28.23-1.602 112.842 0 141.072 1.298 27.39 7.554 51.653 27.62 71.643 20.066 19.99 44.252 26.246 71.643 27.62 28.23 1.601 112.843 1.601 141.072 0 27.39-1.298 51.653-7.554 71.643-27.62 19.99-19.99 26.246-44.252 27.62-71.643 1.602-28.23 1.602-112.766 0-140.996zm-36.47 171.286c-5.95 14.954-17.471 26.475-32.502 32.502-22.507 8.927-75.915 6.867-100.788 6.867-24.873 0-78.357 1.984-100.788-6.867-14.954-5.95-26.475-17.472-32.502-32.502-8.927-22.508-6.867-75.915-6.867-100.788 0-24.873-1.984-78.357 6.867-100.788 5.95-14.954 17.472-26.475 32.502-32.502 22.508-8.927 75.915-6.867 100.788-6.867 24.873 0 78.357-1.984 100.788 6.867 14.954 5.95 26.475 17.472 32.503 32.502 8.926 22.508 6.866 75.915 6.866 100.788 0 24.873 2.06 78.357-6.866 100.788z"/>
</svg>