<svg xmlns="http://www.w3.org/2000/svg" viewBox="0 0 512 512">
  <path fill="currentColor" d="M427.287 87.536a15.284 15.284 0 0 0-26.689-5.721l-.024.024a164.67 164.67 0 0 1-76.054 50.719l-1.17.317c-20.25 6.587-43.815 11.283-68.162 13.161l-1.05.061a217.1 217.1 0 0 0-78.236 17.907l1.39-.55c-42.277 22.884-70.503 66.906-70.503 117.502l.025 2.318v-.122q.17 5.806.829 11.527a134.2 134.2 0 0 0 10.697 38.582l-.341-.854a374.5 374.5 0 0 0-45.84 79.725l-.927 2.488a15.247 15.247 0 0 0 7.917 19.98l.097.037a14.7 14.7 0 0 0 5.94 1.244h.062a15.25 15.25 0 0 0 13.978-9.148l.037-.095a366 366 0 0 1 36.106-66.542l-.805 1.244a141.5 141.5 0 0 0 53.304 43.827l.854.365c18.077 8.27 39.228 13.076 61.49 13.076h.938-.048a175.7 175.7 0 0 0 67.295-13.65l-1.159.426c66.161-29.907 113.208-91.689 121.771-165.23l.1-.963c1.842-14.064 2.891-30.324 2.891-46.827 0-37.338-5.38-73.431-15.418-107.524l.683 2.683zm-18.321 147.13a177.48 177.48 0 0 1-102.133 142.007l-1.097.45c-15.614 6.843-33.813 10.832-52.939 10.832a134.2 134.2 0 0 1-52.353-10.54l.89.33a111 111 0 0 1-46.62-40.96l-.268-.45a232.25 232.25 0 0 1 160.926-71.626l.354-.012a15.249 15.249 0 1 0-3.013-30.348h.06a266.28 266.28 0 0 0-171.952 72.04l.147-.134a97.6 97.6 0 0 1-2.952-14.589l-.05-.512a98 98 0 0 1-.646-10.795 101.73 101.73 0 0 1 53.036-89.35l.537-.268c19.517-8.282 42.156-13.466 65.893-14.32l.33-.012a336.7 336.7 0 0 0 78.419-15.345l-2.379.671a209.8 209.8 0 0 0 71.114-39.85l-.28.244c4.927 21.163 7.745 45.46 7.745 70.418q-.025 22.273-2.928 43.753l.183-1.67z"/>
</svg>
