<svg xmlns="http://www.w3.org/2000/svg" viewBox="0 0 512 512">
  <path fill="currentColor" d="M390.785 70.01c-146.372 2.7-225.056 40.364-264.91 97.201-39.86 56.847-38.987 127.255-38.987 190.208v67.666A16.916 16.916 0 0 0 103.804 442a16.916 16.916 0 0 0 16.917-16.915v-67.666s-.076-20.477 14.405-44.008 42.59-49.679 106.123-57.62a16.916 16.916 0 0 0 14.67-18.9 16.916 16.916 0 0 0-18.9-14.669c-54.322 6.79-90.177 27.37-112.8 50.606 3.873-31.912 12.027-61.495 29.343-86.19 31.962-45.581 96.916-80.136 237.685-82.763-.664 39.95-5.42 100.42-32.411 149.106-27.092 48.867-74.131 87.522-170.451 87.522a16.916 16.916 0 0 0-16.915 16.916 16.916 16.916 0 0 0 16.915 16.917c105.913 0 168.125-47.375 200.054-104.966 31.93-57.592 36.008-123.651 36.674-165.462v-.199c.1-18.685-15.648-34.137-34.328-33.7z"/>
</svg>
