<svg xmlns="http://www.w3.org/2000/svg" preserveAspectRatio="xMidYMid" viewBox="0 0 512 512">
  <path class="icon-background" fill="none" d="M0 0h512v512H0Z"/>    
  <path class="icon-primary" fill="#0a66c2" d="M376.4 376.405h-50.673v-79.359c0-18.923-.338-43.284-26.356-43.284-26.393 0-30.431 20.619-30.431 41.907v80.73h-50.672V213.207h48.645v22.302h.682a53.313 53.313 0 0 1 47.997-26.362c51.36 0 60.83 33.783 60.83 77.733zM161.09 190.9c-16.241.003-29.41-13.162-29.412-29.403-.003-16.241 13.16-29.41 29.401-29.412 16.241-.004 29.41 13.16 29.412 29.401a29.408 29.408 0 0 1-29.401 29.414m25.337 185.505H135.7v-163.2h50.726v163.199ZM401.663 85.025H110.237C96.464 84.87 85.168 95.903 85 109.677v292.64c.163 13.781 11.457 24.825 25.236 24.681h291.427c13.808.171 25.146-10.873 25.337-24.68V109.654c-.196-13.8-11.536-24.832-25.337-24.652"/>
</svg>
