<svg xmlns="http://www.w3.org/2000/svg" viewBox="0 0 512 512">
  <path fill="none" d="M0 0h512v512H0Z" class="icon-background"/>
  <path class="icon-primary" d="M311.588 94.217c-2.897-.257-22.587 12.374-19.681 12.25 52.636-2.246 114.479 62.079 108.247 137.858 0 0 18.41-17.6 18.664-20.538 4.847-56.166-51.835-124.656-107.23-129.57Zm-159.293 18.504a17.204 17.204 0 0 0-10.778 3.807l-39.306 40.61c-8.876 7.616-11.412 20.307-7.608 30.46 10.144 29.19 36.77 87.57 88.756 139.603 51.986 52.034 110.312 77.414 139.475 88.836 11.411 3.808 22.823 1.271 31.699-6.343l39.305-39.344c6.34-6.346 6.34-15.229 0-21.574l-51.985-52.034c-6.34-6.345-15.217-6.345-21.556 0l-31.698 31.727s-35.503-15.23-63.398-41.88c-27.895-26.652-41.842-63.456-41.842-63.456l31.7-31.727c6.34-6.345 6.34-16.5 0-21.576l-51.987-53.302a17.204 17.204 0 0 0-10.777-3.807zm136.088 41.877c-1.636-.15-17.713 8.835-16.091 9.103 25.38 4.184 66.621 28.163 62.397 78.355 0 0 14.119-10.565 14.262-12.269 4.959-33.926-29.279-72.338-60.568-75.19z"/>
</svg>
