<svg xmlns="http://www.w3.org/2000/svg" viewBox="0 0 512 512">
  <path class="icon-primary" d="M256 85c-94.437 0-171 76.563-171 171 0 47.225 19.144 89.975 50.084 120.916l-32.57 32.57C96.048 415.952 100.63 427 109.768 427H256c94.437 0 171-76.563 171-171S350.437 85 256 85zm62.521 45.582c15.737 0 28.497 12.758 28.497 28.496 0 15.737-12.76 28.494-28.497 28.494-13.48 0-24.768-9.364-27.734-21.935v.027c-16.353 2.311-28.963 16.391-28.963 33.357v.108c25.316.949 48.454 8.084 66.783 19.426a39.72 39.72 0 0 1 24.317-8.272c22.056 0 39.93 17.877 39.93 39.934 0 15.91-9.325 29.655-22.805 36.068-1.256 46.397-51.835 83.725-113.969 83.725-62.135 0-112.646-37.288-113.969-83.645-13.586-6.373-22.992-20.159-22.992-36.164 0-22.056 17.876-39.93 39.932-39.93a39.739 39.739 0 0 1 24.408 8.336c18.168-11.26 41.053-18.396 66.115-19.45v-.147c0-23.686 17.994-43.231 41.04-45.703 2.671-12.971 14.147-22.725 27.907-22.725zM203.324 249.947c-11.182 0-20.8 11.116-21.469 25.598-.668 14.48 9.126 20.373 20.32 20.373 11.196 0 19.546-5.263 20.214-19.744.668-14.482-7.883-26.227-19.065-26.227zm105.526 0c-11.195 0-19.733 11.745-19.065 26.227.668 14.495 9.032 19.744 20.213 19.744 11.182 0 20.988-5.892 20.32-20.373-.654-14.482-10.273-25.598-21.468-25.598zm-52.77 57.18c-13.88 0-27.173.682-39.463 1.924-2.098.214-3.434 2.392-2.619 4.342 6.894 16.445 23.125 28 42.082 28s35.202-11.555 42.082-28c.815-1.951-.52-4.128-2.617-4.342-12.304-1.242-25.585-1.924-39.465-1.924z" />
  <path fill="none" d="M0 0h512v512H0Z" class="icon-background"/>
</svg>
