<svg viewBox="0 0 24 24" xmlns="http://www.w3.org/2000/svg" fill="currentColor">
  <path fill-rule="evenodd" clip-rule="evenodd" d="m1.44 8.855 3.527-3.516c.34-.344.802-.541 1.285-.548h6.649l.947-.947c3.07-3.07 6.207-3.072 7.62-2.868a1.82 1.82 0 0 1 1.557 1.557c.204 1.413.203 4.55-2.868 7.62l-.946.946v6.649a1.85 1.85 0 0 1-.549 1.286l-3.516 3.528a1.844 1.844 0 0 1-3.11-.944l-.858-4.275-4.52-4.52-2.31-.463-1.964-.394A1.85 1.85 0 0 1 .98 10.693a1.84 1.84 0 0 1 .46-1.838m5.379 2.017-3.873-.776L6.32 6.733h4.638zm8.403-5.655c2.459-2.46 4.856-2.463 5.89-2.33.134 1.035.13 3.432-2.329 5.891l-6.71 6.71-3.561-3.56zm-1.318 15.837-.776-3.873 4.14-4.14v4.639z"/>
  <path d="M9.318 18.345a.972.972 0 0 0-1.86-.561c-.482 1.435-1.687 2.204-2.934 2.619a8 8 0 0 1-1.23.302c.062-.365.157-.79.303-1.229.415-1.247 1.184-2.452 2.62-2.935a.971.971 0 1 0-.62-1.842q-.18.06-.35.13c-2.02.828-3.012 2.588-3.493 4.033a10.4 10.4 0 0 0-.51 2.845l-.001.016v.063c0 .536.434.972.97.972h.027a7 7 0 0 0 .878-.065c.527-.063 1.248-.19 2.02-.447 1.445-.48 3.205-1.472 4.033-3.494a6 6 0 0 0 .147-.407"/>
</svg>
