<svg viewBox="0 0 32 32" xmlns="http://www.w3.org/2000/svg">
  <g fill="none" fill-rule="evenodd">
    <path d="M0 0h32v32H0z"/>
    <path d="M24.502 3.598A14 14 0 0 1 32 16c0 5.264-2.932 10.01-7.512 12.409a1 1 0 1 1-.928-1.772A12 12 0 0 0 30 16c0-4.509-2.508-8.572-6.428-10.631a1 1 0 1 1 .93-1.77m-4.885 1.155A2 2 0 0 1 20 5.93v20.144a2 2 0 0 1-3.176 1.618l-7.305-5.31A2 2 0 0 0 8.343 22H3a3 3 0 0 1-3-3v-6a3 3 0 0 1 3-3h5.362a2 2 0 0 0 1.177-.383l7.284-5.304a2 2 0 0 1 2.794.44m4.36 4.518A8.98 8.98 0 0 1 27 16a8.98 8.98 0 0 1-3.091 6.789 1 1 0 0 1-1.314-1.508A6.98 6.98 0 0 0 25 16a6.98 6.98 0 0 0-2.352-5.234 1 1 0 0 1 1.329-1.495" fill="currentColor"/>
  </g>
</svg>
