<svg xmlns="http://www.w3.org/2000/svg" preserveAspectRatio="xMidYMid" viewBox="0 0 512 512">
  <path class="icon-background" fill="none" d="M0 0h512v512H0Z"/>
  <path class="icon-primary" fill="currentColor" fill-rule="evenodd" d="M377.169 134.113c-32.145-32.187-74.898-49.921-120.45-49.938-93.866 0-170.257 76.384-170.29 170.274-.016 30.014 7.83 59.31 22.731 85.128L85 427.825l90.272-23.68c24.87 13.572 52.877 20.716 81.373 20.724h.073c93.849 0 170.25-76.392 170.282-170.282.016-45.503-17.678-88.28-49.831-120.466zm-120.45 261.999h-.058c-25.393-.008-50.304-6.835-72.04-19.727l-5.168-3.07-53.57 14.052 14.296-52.232-3.364-5.356c-14.166-22.535-21.653-48.582-21.637-75.322.033-78.033 63.524-141.524 141.598-141.524 37.804.016 73.338 14.754 100.062 41.51 26.724 26.75 41.43 62.316 41.413 100.128-.033 78.042-63.524 141.533-141.533 141.533zm77.632-105.998c-4.254-2.131-25.172-12.42-29.075-13.84-3.903-1.421-6.736-2.13-9.57 2.13-2.833 4.263-10.99 13.849-13.472 16.682-2.482 2.841-4.964 3.193-9.219 1.061-4.253-2.13-17.962-6.622-34.219-21.115-12.647-11.284-21.188-25.213-23.67-29.475-2.482-4.262-.261-6.565 1.861-8.68 1.91-1.91 4.254-4.972 6.385-7.454 2.132-2.483 2.834-4.262 4.254-7.096 1.422-2.841.711-5.323-.35-7.454-1.062-2.131-9.57-23.075-13.122-31.59-3.454-8.296-6.964-7.17-9.569-7.308-2.482-.123-5.315-.147-8.157-.147-2.841 0-7.447 1.061-11.35 5.323-3.902 4.262-14.892 14.558-14.892 35.493 0 20.935 15.244 41.177 17.375 44.019 2.13 2.841 30.006 45.813 72.685 64.25 10.15 4.384 18.077 7.005 24.258 8.965 10.19 3.242 19.465 2.785 26.797 1.69 8.174-1.224 25.174-10.296 28.717-20.233 3.544-9.937 3.544-18.461 2.482-20.233-1.06-1.772-3.902-2.841-8.156-4.972z" clip-rule="evenodd"/>
</svg>