<?xml version="1.0" encoding="UTF-8" standalone="no"?>
<svg
   xml:space="preserve"
   viewBox="0 0 350 100"
   version="1.1"
   id="svg6"
   sodipodi:docname="DesktopLogo-1.svg"
   inkscape:version="1.4 (86a8ad7, 2024-10-11)"
   xmlns:inkscape="http://www.inkscape.org/namespaces/inkscape"
   xmlns:sodipodi="http://sodipodi.sourceforge.net/DTD/sodipodi-0.dtd"
   xmlns="http://www.w3.org/2000/svg"
   xmlns:svg="http://www.w3.org/2000/svg"><defs
   id="defs6" /><sodipodi:namedview
   id="namedview6"
   pagecolor="#ffffff"
   bordercolor="#000000"
   borderopacity="0.25"
   inkscape:showpageshadow="2"
   inkscape:pageopacity="0.0"
   inkscape:pagecheckerboard="0"
   inkscape:deskcolor="#d1d1d1"
   inkscape:zoom="2.8284271"
   inkscape:cx="49.320698"
   inkscape:cy="105.88924"
   inkscape:window-width="1920"
   inkscape:window-height="1017"
   inkscape:window-x="-8"
   inkscape:window-y="-8"
   inkscape:window-maximized="1"
   inkscape:current-layer="svg6" />
  <path
   class="icon-background"
   fill="#ffffff00"
   d="M0 0h350v100H0Z"
   id="path1"
   style="fill:#ffffff;fill-opacity:1" />
  <path
   fill="#fff"
   d="M12.455 9.608H76c.403 0 .728.32.728.717V89.89a.72.72 0 0 1-.728.717H12.455a.72.72 0 0 1-.728-.717V10.325a.72.72 0 0 1 .728-.717"
   id="path2" />
  <path
   class="icon-primary"
   fill="#0089b3ff"
   d="M14.724 7.608a4.65 4.65 0 0 0-4.635 4.636v75.728a4.65 4.65 0 0 0 4.635 4.636H73.73a4.65 4.65 0 0 0 4.635-4.636V12.244a4.65 4.65 0 0 0-4.635-4.636zm0 2.107H73.73a2.5 2.5 0 0 1 2.528 2.529v75.728A2.5 2.5 0 0 1 73.73 90.5H14.724a2.5 2.5 0 0 1-2.527-2.528V12.244a2.5 2.5 0 0 1 2.527-2.529"
   id="path3"
   style="fill:#0089b3;fill-opacity:1" />
  <path
   d="M22.179 20.331h18.895a4.04 4.04 0 0 1 4.05 4.049 4.04 4.04 0 0 1-4.05 4.049H22.18a4.04 4.04 0 0 1-4.05-4.049 4.04 4.04 0 0 1 4.05-4.049zM19.816 43.34h45.216c.934 0 1.686.753 1.686 1.687s-.752 1.686-1.686 1.686H19.816a1.683 1.683 0 0 1-1.686-1.686c0-.934.752-1.686 1.686-1.686zm0 11.325h45.216c.934 0 1.686.752 1.686 1.686s-.752 1.686-1.686 1.686H19.816a1.683 1.683 0 0 1-1.686-1.686c0-.934.752-1.686 1.686-1.686m0 11.324h45.216c.934 0 1.686.752 1.686 1.686s-.752 1.686-1.686 1.686H19.816a1.683 1.683 0 0 1-1.686-1.686c0-.934.752-1.686 1.686-1.686m0 11.324h45.216c.934 0 1.686.752 1.686 1.686 0 .935-.752 1.687-1.686 1.687H19.816a1.683 1.683 0 0 1-1.686-1.687c0-.934.752-1.686 1.686-1.686"
   fill="#8e857c"
   id="path4" />
  <path
   class="icon-secondary"
   fill="#df2040ff"
   d="M73.698 80.332c-.177.34-3.438.483-3.662.793-.224.309.561 3.584.295 3.855s-3.425-.585-3.727-.358-.486 3.594-.818 3.772-3.107-1.602-3.461-1.477-1.49 3.285-1.858 3.354-2.514-2.477-2.888-2.465c-.374.011-2.362 2.683-2.733 2.636-.372-.046-1.698-3.13-2.059-3.233-.36-.103-3.023 1.843-3.365 1.686s-.73-3.507-1.045-3.715c-.316-.208-3.417.84-3.699.585-.282-.254.303-3.571.06-3.866-.242-.295-3.505-.239-3.703-.568s1.309-3.318 1.161-3.674-3.284-1.295-3.379-1.67c-.094-.374 2.198-2.77 2.159-3.155s-2.77-2.237-2.755-2.624c.017-.386 2.892-1.977 2.964-2.356.072-.38-2.01-2.98-1.885-3.344.126-.364 3.329-1.008 3.506-1.348s-1.072-3.459-.848-3.768c.224-.31 3.47.051 3.736-.22s-.038-3.63.265-3.857c.302-.227 3.303 1.106 3.634.928.332-.178 1-3.478 1.353-3.603.354-.125 2.843 2.062 3.211 1.993s1.948-3.017 2.322-3.029c.374-.011 2.129 2.835 2.5 2.882.372.046 2.723-2.29 3.084-2.186.361.103 1.227 3.356 1.57 3.513s3.256-1.356 3.571-1.148.216 3.579.498 3.833c.283.255 3.5-.304 3.743-.009s-.815 3.484-.617 3.813 3.433.776 3.58 1.131c.148.356-1.772 3.08-1.678 3.454s3.062 1.786 3.101 2.17c.04.385-2.573 2.401-2.59 2.788-.015.386 2.418 2.638 2.346 3.017-.071.38-3.145 1.51-3.27 1.874-.126.364 1.558 3.255 1.381 3.596"
   id="path5"
   style="fill:#df2040;fill-opacity:1" />
  <path
   class="icon-primary"
   fill="#0089b3ff"
   d="M124.695 10.347v5.638H110.9v7.374h10.566v5.421H110.9v7.525h13.795v5.639h-21.638V10.347Zm35.71 31.597h-6.044q-1.015 0-1.684-.434-.646-.456-.9-1.15l-1.984-5.508h-12.78l-1.983 5.509q-.231.607-.9 1.106-.669.477-1.638.477h-6.09l13.01-31.597h7.982zm-21.592-12.08h9.18l-3.09-8.652q-.3-.824-.715-1.93-.393-1.128-.785-2.43-.369 1.324-.76 2.451-.393 1.128-.74 1.952zm43.045-13.098q-.346.52-.738.78-.37.261-.97.261-.53 0-1.153-.304-.6-.325-1.384-.715-.761-.39-1.753-.694-.992-.325-2.26-.325-2.192 0-3.276.889-1.061.867-1.061 2.363 0 .955.645 1.584.646.628 1.684 1.084 1.062.455 2.4.846 1.36.368 2.768.845 1.407.456 2.745 1.085 1.36.629 2.399 1.604 1.061.976 1.707 2.386.646 1.388.646 3.361 0 2.19-.808 4.099-.807 1.908-2.353 3.34-1.522 1.41-3.783 2.233-2.237.803-5.098.803-1.568 0-3.206-.304-1.615-.304-3.137-.846-1.523-.564-2.86-1.323-1.339-.759-2.33-1.691l2.306-3.427q.254-.39.715-.628.462-.239.992-.239.692 0 1.384.412.715.412 1.592.91.9.5 2.053.912t2.722.412q2.122 0 3.299-.868 1.176-.889 1.176-2.797 0-1.106-.646-1.8t-1.707-1.15q-1.038-.455-2.376-.802t-2.745-.759q-1.407-.434-2.745-1.04-1.338-.63-2.399-1.627-1.038-1.02-1.684-2.516-.646-1.518-.646-3.73 0-1.778.761-3.47.762-1.691 2.238-3.014t3.622-2.104q2.145-.802 4.913-.802 1.546 0 2.999.239 1.476.216 2.791.672 1.315.434 2.445 1.062 1.154.608 2.053 1.388zM204.88 29.93v12.014h-7.797V29.93l-12.18-19.583h6.874q1.015 0 1.615.455.6.434.969 1.128l4.752 9.195 1.06 2.038q.485.933.854 1.844.346-.933.83-1.865.485-.933 1.039-2.017l4.706-9.195q.138-.282.369-.564.254-.282.553-.499.323-.238.716-.368.415-.152.9-.152h6.92zm-70.542 59.723h-6.044q-1.015 0-1.684-.434-.646-.455-.9-1.15l-1.984-5.507h-12.78l-1.983 5.508q-.231.607-.9 1.106-.669.477-1.638.477h-6.09l13.01-31.597h7.982zm-21.592-12.08h9.18l-3.09-8.652q-.3-.824-.715-1.93-.392-1.128-.785-2.429-.369 1.323-.76 2.45-.393 1.128-.739 1.952zm32.11 1.519v10.561h-7.796V58.056h11.857q3.552 0 6.09.803 2.56.78 4.198 2.168 1.66 1.388 2.445 3.275t.784 4.077q0 2.364-.807 4.337-.807 1.974-2.468 3.383t-4.222 2.212q-2.537.78-6.02.78zm0-5.53h4.06q3.046 0 4.383-1.366t1.338-3.817q0-1.084-.346-1.973-.346-.89-1.06-1.519-.693-.65-1.777-.997-1.061-.347-2.537-.347h-4.06zm54.81.282q0 3.426-1.268 6.376-1.246 2.949-3.53 5.14-2.284 2.168-5.513 3.404Q186.148 90 182.227 90t-7.151-1.236-5.537-3.405q-2.283-2.19-3.552-5.14-1.246-2.949-1.246-6.375t1.246-6.376q1.269-2.95 3.552-5.118 2.307-2.168 5.537-3.404 3.23-1.237 7.15-1.237 3.922 0 7.129 1.258 3.23 1.236 5.513 3.405t3.53 5.118q1.268 2.95 1.268 6.354m-7.981 0q0-2.342-.646-4.207-.646-1.887-1.869-3.188-1.2-1.301-2.952-1.995-1.754-.694-3.991-.694-2.26 0-4.037.694-1.753.694-2.976 1.995-1.2 1.301-1.845 3.188-.646 1.865-.646 4.207 0 2.364.646 4.25.646 1.865 1.845 3.167 1.223 1.3 2.976 1.995 1.776.672 4.037.672 2.237 0 3.99-.672 1.754-.694 2.953-1.995 1.223-1.302 1.869-3.167.646-1.886.646-4.25m30.45-9.369q-.346.52-.739.781-.369.26-.969.26-.53 0-1.153-.303-.6-.326-1.384-.716-.761-.39-1.753-.694-.992-.325-2.26-.325-2.192 0-3.276.889-1.062.867-1.062 2.364 0 .954.646 1.583t1.684 1.084q1.061.456 2.4.846 1.36.369 2.767.846 1.408.455 2.746 1.084 1.36.629 2.399 1.605 1.06.976 1.707 2.385.646 1.388.646 3.362 0 2.19-.808 4.098-.807 1.909-2.353 3.34-1.522 1.41-3.783 2.234-2.237.802-5.098.802-1.569 0-3.206-.304-1.615-.303-3.138-.845-1.522-.564-2.86-1.323-1.338-.76-2.33-1.692l2.307-3.426q.254-.39.715-.629t.992-.239q.692 0 1.384.412.715.412 1.592.911.9.499 2.053.911t2.722.412q2.122 0 3.298-.867 1.177-.89 1.177-2.798 0-1.106-.646-1.8t-1.707-1.15q-1.038-.455-2.376-.802t-2.745-.759q-1.407-.433-2.745-1.04-1.338-.63-2.4-1.627-1.037-1.02-1.683-2.516-.646-1.518-.646-3.73 0-1.778.761-3.47.761-1.69 2.238-3.014t3.621-2.103q2.146-.803 4.914-.803 1.545 0 2.999.239 1.476.217 2.791.672 1.315.434 2.445 1.063 1.154.607 2.053 1.388zm30.68-6.419v5.812h-9.458v25.785h-7.797V63.868h-9.458v-5.812zm11.765 31.597h-7.843V58.056h7.843zm14.025-5.855h12.457v5.855h-20.254V58.056h7.797zm23.945 0h12.456v5.855h-20.253V58.056h7.797zm37.785-25.742v5.639H326.54v7.373h10.566v5.422H326.54v7.525h13.795v5.638h-21.638V58.056z"
   id="path6"
   style="fill:#0089b3;fill-opacity:1" />
<path
   style="fill:#ffffff;stroke-linecap:round;stroke-linejoin:round;stroke-miterlimit:0"
   d="m 57.025391,58.033203 c -7.064418,0 -12.792969,5.823411 -12.792969,12.990234 0,7.166823 5.728552,12.990235 12.792969,12.990235 7.064416,-10e-7 12.794921,-5.823412 12.794921,-12.990235 10e-7,-7.166822 -5.730505,-12.990233 -12.794921,-12.990234 z m 0,0.755859 c 6.64941,10e-7 12.039062,5.469691 12.039062,12.234375 0,6.764684 -5.389652,12.234375 -12.039062,12.234375 -6.649411,10e-7 -12.037109,-5.46969 -12.03711,-12.234375 0,-6.764684 5.387699,-12.234375 12.03711,-12.234375 z"
   id="path7" /><path
   id="rect7"
   style="fill:#ffffff;fill-opacity:1;stroke:none;stroke-width:0.756;stroke-linecap:round;stroke-linejoin:round;stroke-miterlimit:0;stroke-dasharray:none;stroke-opacity:0.566613"
   d="m 64.139087,64.562691 c -0.316944,0 -0.633691,0.121362 -0.876549,0.364221 l -8.425447,8.425447 -4.047236,-4.048749 c -0.485719,-0.485718 -1.267378,-0.485717 -1.753098,10e-7 l -0.568245,0.569757 c -0.485718,0.485718 -0.485718,1.267378 0,1.753098 l 4.923785,4.923785 0.568245,0.569757 c 0.273217,0.273217 0.640682,0.392328 0.995941,0.358176 0.276313,-0.02656 0.544656,-0.145673 0.757157,-0.358176 l 0.569756,-0.569757 9.300485,-9.300484 c 0.485718,-0.485718 0.485718,-1.26889 0,-1.754608 l -0.568245,-0.568247 c -0.242859,-0.242859 -0.559604,-0.364221 -0.876549,-0.364221 z" /></svg>
