<svg xmlns="http://www.w3.org/2000/svg" xmlns:xlink="http://www.w3.org/1999/xlink" xml:space="preserve" viewBox="0 0 450 150">
  <defs>
    <linearGradient id="a">
      <stop offset=".475" stop-color="#00633a"/>
      <stop offset=".847" stop-color="#d3ff3d"/>
    </linearGradient>
    <linearGradient xlink:href="#a" id="b" x1="411.574" x2="382.789" y1="439.315" y2="73.346" gradientTransform="translate(-23.893 -12.6)scale(.29613)" gradientUnits="userSpaceOnUse"/>
  </defs>
  <path fill="none" d="M0 0h450v150H0Z" overflow="visible"/>
  <path d="M156.28 30h10.173l7.66 25.181 7.699-25.18h10.213l-12.766 41.968h-10.253zm38.098 0h9.216v41.969h-9.216zm12.647 39.39q-.24-.778-.24-1.619V34.196q0-.838.24-1.558.279-.78.678-1.38.439-.599.997-.898.558-.36 1.157-.36h22.54l-3.072 9.113H216v23.742h7.182v-8.393h-3.59v-6.956h12.805V71.97h-22.54q-.599 0-1.157-.3-.558-.36-.997-.9-.4-.6-.678-1.379zM246.72 30h10.252l12.766 41.969h-20.425v-9.113h7.46l-4.947-16.068-7.66 25.18h-10.172zm46.325 0h22.54q.599 0 1.157.36.558.3.957.899.44.6.678 1.38.28.719.28 1.557V71.97h-9.215V39.113h-7.181v32.856h-9.216Zm29.043 39.39q-.24-.778-.24-1.619V34.196q0-.838.24-1.558.279-.78.678-1.38.44-.599.997-.898.559-.36 1.157-.36h19.468q.6 0 1.157.36.559.3.958.899.439.6.678 1.38.279.719.279 1.557v33.575q0 .84-.28 1.62-.238.779-.677 1.378-.4.54-.958.901-.559.299-1.157.299H324.92q-.6 0-1.158-.3-.558-.36-.997-.9-.399-.6-.678-1.379m16.157-6.535V39.113h-7.181v23.742zm11.57-32.856h10.172l7.659 25.182 7.7-25.18h10.212l-12.765 41.968h-10.253zm42.166 0h10.253l12.765 41.97h-20.425v-9.113h7.46l-4.946-16.068-7.66 25.18h-10.173zM156.28 91.32q0-1.274.706-2.23.743-.957 1.636-.957h17.204l-2.34 6.92h-10.182v18.027h5.5v-6.373h-2.751v-5.281h9.774v18.573h-17.205q-.893 0-1.636-.91-.705-.956-.705-2.276zm21.888-3.187h17.168q.93 0 1.635.956.706.957.706 2.231v12.2q0 1.275-.706 2.231t-1.635.956h-1.375l4.497 13.292h-6.244l-6.243-18.572h4.683v-6.375h-5.462v24.946h-7.024zm22.52 0h19.546l-2.341 6.92H207.71v6.373h10.183v5.28H207.71v6.375h12.523l-2.34 6.918h-17.205zm21.701 0h19.547l-2.342 6.92h-10.182v6.373h10.182v5.28h-10.182v6.375h12.523l-2.34 6.918h-17.206Zm21.702 0h17.204q.893 0 1.598.956.744.957.744 2.231V120h-7.024V95.052h-5.499v24.946h-7.023zm38.47 0h19.546l-2.34 6.92h-10.183v6.373h10.182v5.28h-10.182v6.375h12.523l-2.34 6.918H282.56zm21.701 0h17.205q.892 0 1.598.956.743.957.743 2.231V120h-7.023V95.052h-5.5v24.946h-7.023zm21.925 0h19.546l-2.34 6.92H333.21v6.373h10.183v5.28H333.21v6.375h12.523l-2.34 6.918h-17.207Zm21.701 0h17.169q.929 0 1.635.956t.705 2.231v12.2q0 1.275-.705 2.231t-1.635.956h-1.376l4.497 13.292h-6.243l-6.243-18.572h4.682v-6.375h-5.463v24.946h-7.023zm22.52 3.187q0-1.274.706-2.23.742-.957 1.635-.957h17.205l-2.34 6.92H377.43v18.027h5.5v-6.373h-2.75v-5.281h9.773v18.573h-17.205q-.892 0-1.635-.91-.706-.956-.706-2.276zm29.357 14.34-8.177-17.527h8.585l3.12 6.692 3.085-6.692H415l-8.213 17.527V120h-7.023z" fill="#00633a"/>
  <g stroke-width=".296">
    <path fill="none" d="M18.147 12.204h125v125h-125Z"/>
    <path fill="#e9bc00" d="M122.409 19.773c-.73 1.116-7.467 11.16-11.576 17.301h1.963l.005.001h.056q.318 0 .487.202a.52.52 0 0 1 .125.48l-.022.1-1.13 2.995q-.135.324-.489.558a1.23 1.23 0 0 1-.682.224h-3.364l-.413.616-.335.924h6.829c2.947-8.07 6.571-17.975 8.546-23.401m-12.713 19c-.389.58-.635.95-1.04 1.556h1.212l.574-1.556zm-4.097 6.123C91.82 65.464 84.18 77.711 81.392 81.86c.98 2.106 1.86 3.897 4.993 10.742.81 1.755 2.324 4.878 2.582 5.435.69.968.992 1.331 2.22 1.21h.006c1.215-.12 2.241-1.392 2.42-1.924.006-.017 1.676-4.515 1.748-4.72 2.428-6.535 8.048-20.807 17.872-47.707h-6.61z"/>
    <path fill="#e9bc00" d="m79.425 56.146 4.109-1.916 4.048-1.896 2.192 4.55 2.13 4.569 2.132 4.57-.875 2.895-1.104 3.59c-.583 1.559-2.403 6.357-3.312 8.741l-5.687 4.2-5.46-11.762-2.13-4.57c1.45-5.569 2.072-7.4 3.957-12.97z"/>
    <path fill="url(#b)" d="m82.875 21.1-11.973.001H67.75c-7.357 0-14.19 2.923-19.147 7.802l-1.755 1.905a26 26 0 0 0-4.454 7.65l-.007.005-21.578 59.284c-1.455 5.543-.553 11.57 2.422 16.196s7.66 7.288 12.592 7.153l29.768.005c11.363 0 21.505-6.944 25.356-17.359l.007-.004 16.38-45.002H80.16l-6.525 17.927h8.491l-6.502 17.862v.001c-2 5.413-7.272 9.022-13.177 9.022 0 0 .098-.07-.001 0l-14.17-.003c-.035-.057-6.856-10.656-6.96-10.823l6.96 10.823c-.657 0-3.711-.011-5.837-3.317-1.38-2.144-1.797-4.937-1.123-7.506v-.001l16.396-45.045c2-5.413 7.272-9.022 13.177-9.022l-13.177 9.022c.056-.039 13.014-8.906 13.18-9.022h.01v.003h31.572l6.383-17.536-3.18-.019h-.105l-.09-.001H82.876z" transform="translate(21.348 11.258)scale(.89348)"/>
    <path fill="#e9bc00" d="M76.3 32.136c-1.216.12-2.242 1.391-2.42 1.925-.009.018-1.676 4.514-1.749 4.72-3.22 8.666-24.627 67.175-33.245 90.855 3.086-4.72 45.607-68.58 49.854-74.899-.864-1.816-4.5-9.112-7.632-15.956-.811-1.755-2.325-4.878-2.583-5.435-.69-.968-.992-1.331-2.22-1.21Z"/>
    <path fill="#00633a" d="m95.396 30.11-2.538 6.972H64.773l-1.567 1.702h29.033l-2.552 7.01h2.988l2.566-7.01h6.19l-2.55 7.01h2.987l2.565-7.01h2.613v-.01h3.477l-.646 1.558h-3.496q-.169 0-.354.067-.183.056-.354.167a2 2 0 0 0-.297.256 1 1 0 0 0-.189.29l-1.232 2.983a.4.4 0 0 0-.037.1.52.52 0 0 0 .1.49.67.67 0 0 0 .498.189h5.335v.001h3.396l.62-1.701h-3.419l-.003.008h-3.547l.645-1.558h3.497q.337 0 .679-.223.356-.234.501-.556l1.232-2.984.025-.1a.51.51 0 0 0-.103-.478q-.158-.2-.47-.2h-7.848l2.551-6.972h-3.019l-2.537 6.971h-6.188l2.551-6.971z"/>
  </g>
</svg>
