<?xml version="1.0" encoding="UTF-8" standalone="no"?>
<svg
   xml:space="preserve"
   viewBox="0 0 350 100"
   version="1.1"
   id="svg6"
   sodipodi:docname="DesktopLogo-1.svg"
   inkscape:version="1.4 (86a8ad7, 2024-10-11)"
   xmlns:inkscape="http://www.inkscape.org/namespaces/inkscape"
   xmlns:sodipodi="http://sodipodi.sourceforge.net/DTD/sodipodi-0.dtd"
   xmlns="http://www.w3.org/2000/svg"
   xmlns:svg="http://www.w3.org/2000/svg"><defs
   id="defs6" /><sodipodi:namedview
   id="namedview6"
   pagecolor="#ffffff"
   bordercolor="#000000"
   borderopacity="0.25"
   inkscape:showpageshadow="2"
   inkscape:pageopacity="0.0"
   inkscape:pagecheckerboard="0"
   inkscape:deskcolor="#d1d1d1"
   inkscape:zoom="2"
   inkscape:cx="118.75"
   inkscape:cy="52.25"
   inkscape:window-width="1920"
   inkscape:window-height="1017"
   inkscape:window-x="-8"
   inkscape:window-y="-8"
   inkscape:window-maximized="1"
   inkscape:current-layer="g8" />
  
  
  
  
  
  
<g
   id="g8"
   transform="translate(23.999995,-125)"><path
     class="icon-background"
     fill="#ffffff00"
     d="M -24,125 H 326.00001 V 225 H -24 Z"
     id="path1"
     style="display:none;fill:#fff4df;fill-opacity:1;stroke-width:0.999997" /><g
     id="g67"
     transform="matrix(0.43158431,0,0,0.43254647,-26.576172,116.96964)"
     style="display:inline;stroke-width:2.31447"><path
       id="path49"
       style="display:none;fill:#fff4df;stroke-width:2.06792;stroke-linecap:round;stroke-linejoin:round;stroke-miterlimit:0"
       d="m -116.63883,-80.999995 h 485.27766 c 7.40208,0 13.36117,5.959081 13.36117,13.361168 V 417.63883 C 382,425.04091 376.04091,431 368.63883,431 H -116.63883 C -124.04091,431 -130,425.04091 -130,417.63883 V -67.638827 c 0,-7.402087 5.95909,-13.361168 13.36117,-13.361168 z"
       transform="matrix(0.56023407,0,0,0.5589879,71.43106,45.863077)" /><path
       style="display:inline;fill:#00c72e;fill-opacity:1;stroke:none;stroke-width:1.15724;stroke-linecap:round;stroke-linejoin:round;stroke-miterlimit:0;stroke-dasharray:none;stroke-opacity:0.851351"
       d="m 25.586209,213.7833 c 0,0 1.245656,-10.36737 4.096355,-16.97592 2.178429,-5.05008 4.637643,-9.53206 8.005902,-13.8799 4.103063,-5.29634 7.304509,-9.83127 12.559562,-13.98708 5.261958,-4.16127 9.965898,-7.89342 16.065512,-10.68611 4.401267,-2.01511 8.742435,-4.2738 13.49382,-5.19908 20.45221,-3.98284 41.54356,-3.27975 62.31534,-4.91963 20.77177,-1.63988 41.72852,-1.70419 62.31533,-4.91963 4.19203,-0.65475 8.41074,-1.44368 12.39019,-2.91534 3.71981,-1.37565 7.25748,-3.28239 10.56809,-5.46626 4.46612,-2.94611 8.3909,-6.6496 12.39019,-10.20368 3.0183,-2.6823 5.7351,-5.46309 8.42714,-8.47269 1.73315,-1.93759 5.14739,-7.19724 5.14739,-7.19724 0,0 -2.13942,16.77516 -4.09968,24.41594 -1.85198,7.21873 -4.81556,14.36271 -8.19024,21.00736 -3.08228,6.06893 -6.70717,11.44967 -11.40366,16.37667 -4.12389,4.32628 -8.72335,7.69101 -13.82575,10.80368 -3.89668,2.37712 -8.71391,4.81164 -13.16323,5.83067 -19.96634,4.5729 -39.93368,1.0724 -60.41588,1.28651 -20.4822,0.2141 -40.70764,-0.5483 -61.188925,-0.25958 -3.251734,0.0458 -7.50607,0.10885 -10.720379,0.6029 -5.508498,0.84668 -11.258219,1.85179 -16.388388,4.02935 -3.85564,1.63657 -7.765082,3.92713 -11.286545,6.19509 -4.167154,2.68381 -6.058523,4.2323 -10.019589,7.21189 -3.320455,2.49771 -7.072555,7.32208 -7.072555,7.32208 z"
       id="path52"
       sodipodi:nodetypes="cssssssssssscsssssssssssc" /><path
       style="display:inline;fill:#ef940a;fill-opacity:1;stroke:none;stroke-width:1.15723;stroke-linecap:round;stroke-linejoin:round;stroke-miterlimit:0;stroke-opacity:0.851351"
       d="m 27.801236,162.58009 c 0,0 2.240155,-23.85088 8.984523,-36.6103 7.15607,-13.53831 9.615586,-17.79523 22.436167,-26.629779 12.023697,-8.285426 28.766576,-11.261004 43.335454,-12.243544 18.17148,-1.225503 36.45797,2.26943 54.62855,1.030726 11.10206,-0.756837 21.7268,-3.176869 32.4035,-6.313204 9.37178,-2.753008 17.71729,-7.923107 27.37869,-10.693797 8.82798,-2.531682 18.15349,-3.806702 27.31428,-3.156603 4.44868,0.315703 14.1725,3.865228 14.1725,3.865228 0,0 -12.47378,5.243935 -19.32614,13.399458 -5.23607,6.231851 -10.17331,12.999247 -16.29838,18.359825 -4.3436,3.80146 -8.6776,7.89576 -13.97924,10.17844 -9.93539,4.27778 -21.34293,3.97985 -32.08139,5.28248 -15.55263,1.88662 -31.24294,2.49237 -46.8981,3.09218 -15.96548,0.6117 -33.035141,-2.09724 -48.930967,-0.48679 -5.396631,0.54675 -9.778879,1.71188 -14.883026,3.5477 -6.076404,2.18552 -9.331512,3.83033 -14.501873,7.69899 -5.252046,3.92978 -13.56079,14.15084 -13.56079,14.15084 z"
       id="path53"
       sodipodi:nodetypes="cssssssscsssssssscc" /><path
       id="path54"
       style="color:#000000;font-style:normal;font-variant:normal;font-weight:normal;font-stretch:normal;font-size:medium;line-height:normal;font-family:sans-serif;font-variant-ligatures:normal;font-variant-position:normal;font-variant-caps:normal;font-variant-numeric:normal;font-variant-alternates:normal;font-variant-east-asian:normal;font-feature-settings:normal;font-variation-settings:normal;text-indent:0;text-align:start;text-decoration-line:none;text-decoration-style:solid;text-decoration-color:#000000;letter-spacing:normal;word-spacing:normal;text-transform:none;writing-mode:lr-tb;direction:ltr;text-orientation:mixed;dominant-baseline:auto;baseline-shift:baseline;text-anchor:start;white-space:normal;shape-padding:0;shape-margin:0;inline-size:0;clip-rule:nonzero;display:inline;overflow:visible;visibility:visible;isolation:auto;mix-blend-mode:normal;color-interpolation:sRGB;color-interpolation-filters:linearRGB;solid-color:#000000;solid-opacity:1;vector-effect:none;fill:#ffffff;fill-opacity:1;fill-rule:nonzero;stroke:none;stroke-width:2.31447;stroke-linecap:round;stroke-linejoin:round;stroke-miterlimit:0;stroke-dasharray:none;stroke-dashoffset:0;stroke-opacity:1;-inkscape-stroke:none;color-rendering:auto;image-rendering:auto;shape-rendering:auto;text-rendering:auto;enable-background:accumulate;stop-color:#000000;stop-opacity:1"
       d="m 87.918306,45.152283 80.216134,0.212907 c 1.20716,0.699182 37.56292,36.992573 37.56292,36.992573 l 0.14589,113.267177 c 0.005,3.8656 -0.57479,5.70902 -5.591,5.70902 l -112.333944,-1e-5 c -5.753772,0 -6.977505,-0.54529 -6.97751,-6.26956 L 80.940681,52.129907 c -5e-6,-6.166809 0.690722,-6.99431 6.977625,-6.977624 z"
       sodipodi:nodetypes="sccssssss" /><path
       id="path55"
       style="color:#000000;font-style:normal;font-variant:normal;font-weight:normal;font-stretch:normal;font-size:medium;line-height:normal;font-family:sans-serif;font-variant-ligatures:normal;font-variant-position:normal;font-variant-caps:normal;font-variant-numeric:normal;font-variant-alternates:normal;font-variant-east-asian:normal;font-feature-settings:normal;font-variation-settings:normal;text-indent:0;text-align:start;text-decoration-line:none;text-decoration-style:solid;text-decoration-color:#000000;letter-spacing:normal;word-spacing:normal;text-transform:none;writing-mode:lr-tb;direction:ltr;text-orientation:mixed;dominant-baseline:auto;baseline-shift:baseline;text-anchor:start;white-space:normal;shape-padding:0;shape-margin:0;inline-size:0;clip-rule:nonzero;display:inline;overflow:visible;visibility:visible;isolation:auto;mix-blend-mode:normal;color-interpolation:sRGB;color-interpolation-filters:linearRGB;solid-color:#000000;solid-opacity:1;vector-effect:none;fill:#0318a6;fill-opacity:1;fill-rule:nonzero;stroke:none;stroke-width:2.31447;stroke-linecap:round;stroke-linejoin:round;stroke-miterlimit:0;stroke-dasharray:none;stroke-dashoffset:0;stroke-opacity:1;-inkscape-stroke:none;color-rendering:auto;image-rendering:auto;shape-rendering:auto;text-rendering:auto;enable-background:accumulate;stop-color:#000000;stop-opacity:1"
       d="m 84.823763,45.152283 c -2.102461,2e-6 -3.88297,1.778439 -3.882967,3.8809 V 197.451 c 1.9e-5,2.10245 1.780521,3.88296 3.882967,3.88296 H 201.96028 c 2.10243,-2e-5 3.88295,-1.78053 3.88297,-3.88296 V 84.502336 c -0.0472,-0.04718 -0.18921,-0.194244 -0.23926,-0.24443 a 3.0003,3.0003 0 0 0 -0.70952,-3.246313 L 186.86146,63.646244 169.3416,46.064372 a 3.0003,3.0003 0 0 0 -1.20716,-0.699182 c -0.0396,-0.04271 -0.1642,-0.172509 -0.20154,-0.212907 z m 3.117122,7.000089 h 76.275965 v 31.019295 a 3.0003,3.0003 0 0 0 2.99982,3.000334 h 31.62649 V 194.33387 H 87.940885 Z m 82.276115,3.290755 12.41578,12.461255 a 3.0003,3.0003 0 0 0 0.045,0.04289 l 12.69535,12.224577 H 170.217 Z" /><path
       id="path56"
       style="display:inline;fill:#504e4d;stroke-width:1.15723;stroke-linecap:round;stroke-linejoin:round;stroke-miterlimit:0"
       d="m 103.3196,67.663612 c -4.155007,0 -7.501537,3.341028 -7.501537,7.496028 0,4.155 3.34653,7.501617 7.501537,7.501617 h 34.99782 c 4.155,0 7.50153,-3.346617 7.50153,-7.501617 0,-4.155 -3.34653,-7.496028 -7.50153,-7.496028 z m -2.50425,26.216532 c -2.770003,0 -4.997287,2.227352 -4.997287,4.997352 0,2.770004 2.227284,5.002944 4.997287,5.002944 h 80.00143 c 2.77,0 4.99728,-2.23294 4.99728,-5.002944 0,-2.77 -2.22728,-4.997352 -4.99728,-4.997352 z m 0,18.312446 c -2.770003,0 -4.997287,2.22735 -4.997287,4.99735 0,2.77 2.227284,5.00294 4.997287,5.00294 h 80.00143 c 2.77,0 4.99728,-2.23294 4.99728,-5.00294 0,-2.77 -2.22728,-4.99735 -4.99728,-4.99735 z m 0,18.31244 c -2.770003,0 -4.997287,2.22735 -4.997287,4.99735 0,2.77 2.227284,5.00294 4.997287,5.00294 h 80.00143 c 2.77,0 4.99728,-2.23294 4.99728,-5.00294 0,-2.77 -2.22728,-4.99735 -4.99728,-4.99735 z m 0,18.31244 c -2.770003,0 -4.997287,2.23295 -4.997287,5.00295 0,2.77 2.227284,4.99735 4.997287,4.99735 h 80.00143 c 2.77,0 4.99728,-2.22735 4.99728,-4.99735 0,-2.77 -2.22728,-5.00295 -4.99728,-5.00295 z m 0,18.31245 c -2.770003,0 -4.997287,2.23294 -4.997287,5.00294 0,2.77 2.227284,4.99735 4.997287,4.99735 h 80.00143 c 2.77,0 4.99728,-2.22735 4.99728,-4.99735 0,-2.77 -2.22728,-5.00294 -4.99728,-5.00294 z" /><path
       id="path62"
       style="display:inline;fill:#ffffff;stroke-width:1.15723;stroke-linecap:round;stroke-linejoin:round;stroke-miterlimit:0"
       d="m 207.93676,166.46867 a 32.5,32.5 0 0 1 -32.5,32.5 32.5,32.5 0 0 1 -32.5,-32.5 32.5,32.5 0 0 1 32.5,-32.5 32.5,32.5 0 0 1 32.5,32.5 z" /><path
       style="display:inline;fill:#e70e0e;fill-opacity:1;stroke-width:2.31447;stroke-linecap:round;stroke-linejoin:round;stroke-miterlimit:0"
       d="m 173.98844,115.1457 c -0.98857,0.0302 -5.16159,7.82303 -6.13451,8.0052 -0.97291,0.18217 -7.54924,-5.59791 -8.48475,-5.26789 -0.93551,0.33001 -2.69828,9.05192 -3.57549,9.52241 -0.87721,0.47049 -8.80631,-3.05301 -9.60562,-2.45256 -0.79933,0.60045 0.005,9.47617 -0.69866,10.19317 -0.70357,0.71701 -9.2812,-0.23669 -9.8733,0.58085 -0.5921,0.81754 2.70758,9.05823 2.24017,9.95805 -0.46741,0.89981 -8.93176,2.6011 -9.26403,3.56309 -0.33228,0.96198 5.17029,7.83607 4.98057,8.83873 -0.18972,1.00267 -7.78813,5.20658 -7.83105,6.22753 -0.0429,1.02095 7.17328,5.91752 7.27811,6.93394 0.10483,1.01643 -5.95325,7.35034 -5.70301,8.33955 0.25024,0.9892 8.53859,3.47277 8.92865,4.41265 0.39006,0.93987 -3.58867,8.84044 -3.06751,9.71 0.52117,0.86956 9.14584,0.71983 9.78648,1.49965 0.64063,0.77981 -0.90598,9.54584 -0.16019,10.2185 0.74579,0.67265 8.9398,-2.09766 9.77408,-1.5472 0.2149,0.1418 0.44267,0.84872 0.67748,1.8061 l -9.17877,29.67209 c -0.557,1.80053 1.59358,3.16565 2.93987,1.94406 l 12.70465,-11.52849 4.65036,14.86627 c 0.49286,1.57564 3.03659,1.27293 3.59358,-0.52761 l 9.02116,-29.16153 9.02115,29.16153 c 0.55699,1.80054 3.10125,2.10325 3.5941,0.52761 l 4.65036,-14.86627 12.70465,11.52849 c 1.34628,1.22159 3.49687,-0.14353 2.93987,-1.94406 l -9.56685,-30.9268 c -0.0343,-0.11088 -0.084,-0.21208 -0.1261,-0.31833 0.16904,-0.90265 0.34602,-1.55919 0.54261,-1.70687 0.79932,-0.60045 9.14596,1.6632 9.84953,0.9462 0.70356,-0.71701 -1.3719,-9.37202 -0.7798,-10.18956 0.5921,-0.81754 9.20952,-1.19514 9.67693,-2.09496 0.46741,-0.89981 -3.98373,-8.54287 -3.65146,-9.50485 0.33228,-0.96198 8.45471,-3.94743 8.64443,-4.95009 0.18971,-1.00267 -6.24151,-6.95478 -6.19858,-7.97574 0.0429,-1.02095 6.94834,-6.34901 6.84351,-7.36544 -0.10483,-1.01643 -7.94461,-4.74843 -8.19485,-5.73763 -0.25024,-0.98921 4.82493,-8.1867 4.43487,-9.12658 -0.39006,-0.93988 -8.94182,-2.12044 -9.46299,-2.99 -0.52117,-0.86956 2.27205,-9.29657 1.63142,-10.07638 -0.64064,-0.77982 -9.14457,0.69639 -9.89035,0.0238 -0.74579,-0.67266 -0.48192,-9.58122 -1.3162,-10.13168 -0.83429,-0.55047 -8.53456,3.45145 -9.4387,3.03547 -0.90415,-0.41598 -3.19322,-9.01406 -4.14703,-9.28625 -0.9538,-0.2722 -7.16721,5.89924 -8.14937,5.7769 -0.98216,-0.12234 -5.62084,-7.64529 -6.60942,-7.61504 z m 1.44849,18.82315 a 32.499999,32.499999 0 0 1 32.49983,32.49982 32.499999,32.499999 0 0 1 -32.49983,32.49983 32.499999,32.499999 0 0 1 -32.49982,-32.49983 32.499999,32.499999 0 0 1 32.49982,-32.49982 z"
       id="path11" /><path
       id="path64"
       style="font-weight:900;font-size:10.5833px;line-height:0.9;font-family:Lato;-inkscape-font-specification:'Lato Heavy';display:inline;fill:#101010;stroke-width:4.62895;stroke-linecap:round;stroke-linejoin:round;stroke-miterlimit:0"
       d="m 178.81675,138.49856 -0.37537,1.46455 2.3754,0.54221 -1.65829,6.50662 1.96081,0.44719 1.6527,-6.5122 2.37538,0.54221 0.37537,-1.46454 z m -5.82084,0.0447 c -0.12943,0.003 -0.25999,0.009 -0.39217,0.0223 -0.47349,0.0489 -0.88714,0.165 -1.23811,0.34099 -0.35143,0.17226 -0.63657,0.38354 -0.86276,0.63724 -0.2262,0.25371 -0.39086,0.53402 -0.4874,0.83849 -0.0966,0.30447 -0.12505,0.61081 -0.0896,0.91673 0.044,0.38054 0.13382,0.69496 0.27451,0.94469 0.14026,0.246 0.31195,0.44673 0.50981,0.60371 0.20135,0.15285 0.41971,0.27324 0.66109,0.35775 0.24093,0.0808 0.49018,0.14593 0.7395,0.19564 0.24889,0.046 0.48694,0.0869 0.72271,0.12299 0.23574,0.036 0.45204,0.0798 0.63866,0.13974 0.19058,0.0596 0.34631,0.14359 0.47059,0.25155 0.12431,0.10795 0.19648,0.25691 0.21849,0.44719 0.038,0.32831 -0.035,0.58086 -0.21849,0.75463 -0.18396,0.17008 -0.45493,0.27551 -0.81793,0.31304 -0.26832,0.0278 -0.50601,0.0169 -0.7115,-0.0335 -0.20549,-0.0505 -0.39083,-0.1146 -0.55463,-0.18447 -0.15987,-0.0703 -0.30647,-0.13183 -0.43699,-0.19005 -0.12658,-0.0586 -0.24579,-0.0794 -0.36415,-0.0671 -0.0907,0.01 -0.17792,0.0347 -0.2521,0.0838 -0.0742,0.0491 -0.12684,0.11283 -0.16247,0.18447 l -0.48741,0.94468 c 0.18823,0.14289 0.4003,0.26763 0.64427,0.37453 0.24396,0.10691 0.50148,0.19266 0.77312,0.26272 0.27121,0.0663 0.55251,0.11047 0.83475,0.13416 0.2862,0.0235 0.56083,0.0221 0.82915,-0.005 0.48927,-0.0506 0.91617,-0.16335 1.28293,-0.34097 0.37028,-0.18177 0.67521,-0.40693 0.90758,-0.67638 0.23589,-0.27358 0.40409,-0.57975 0.50421,-0.92233 0.10006,-0.3426 0.12764,-0.70203 0.0841,-1.07884 -0.0393,-0.33952 -0.13082,-0.62233 -0.26892,-0.84967 -0.13854,-0.23108 -0.30888,-0.42665 -0.50981,-0.57576 -0.19699,-0.14951 -0.41576,-0.26244 -0.66108,-0.34657 -0.24137,-0.0845 -0.48975,-0.15335 -0.73951,-0.20683 -0.25018,-0.0571 -0.49377,-0.10596 -0.7339,-0.14533 -0.23662,-0.0435 -0.4481,-0.0969 -0.63867,-0.15651 -0.18662,-0.06 -0.34199,-0.13802 -0.46499,-0.23479 -0.12295,-0.0967 -0.19384,-0.22713 -0.21289,-0.39128 -0.0298,-0.25743 0.0375,-0.46925 0.20168,-0.63725 0.16776,-0.17212 0.4375,-0.27983 0.81235,-0.31863 0.21701,-0.0224 0.4121,-0.0106 0.58824,0.028 0.17571,0.0347 0.33261,0.0749 0.47059,0.12857 0.14194,0.0533 0.2719,0.10564 0.38096,0.15093 0.11259,0.0412 0.21177,0.054 0.30253,0.0447 0.10255,-0.0106 0.18295,-0.0382 0.2409,-0.0895 0.0619,-0.0517 0.11925,-0.12793 0.16806,-0.2236 l 0.39218,-0.92791 c -0.16942,-0.11841 -0.35647,-0.2234 -0.56584,-0.30745 -0.20586,-0.0882 -0.42755,-0.15548 -0.66108,-0.20682 -0.23397,-0.055 -0.47706,-0.0895 -0.73391,-0.10064 -0.12666,-0.007 -0.25713,-0.009 -0.38655,-0.005 z m -9.24947,2.75581 c -0.14516,0.004 -0.29381,0.021 -0.44258,0.0392 -0.59359,0.0673 -1.18301,0.25605 -1.77034,0.57017 -0.58733,0.31413 -1.0675,0.69545 -1.4398,1.14034 -0.3723,0.44488 -0.63426,0.91956 -0.78433,1.43101 -0.14666,0.5096 -0.1822,1.03604 -0.10646,1.58193 0.0792,0.54405 0.27387,1.07696 0.58264,1.59312 0.30876,0.51613 0.69054,0.94676 1.14287,1.29126 0.4558,0.34264 0.95082,0.58527 1.49023,0.73227 0.54091,0.14193 1.10804,0.17871 1.70311,0.10617 0.59508,-0.0725 1.18861,-0.26724 1.77594,-0.58135 0.58734,-0.31412 1.06535,-0.69171 1.4342,-1.13474 0.37229,-0.44489 0.63212,-0.9214 0.77873,-1.43101 0.14467,-0.51287 0.17444,-1.04347 0.0953,-1.58753 -0.0757,-0.54589 -0.26828,-1.07697 -0.57704,-1.59311 -0.30681,-0.51287 -0.68709,-0.93743 -1.14288,-1.28008 -0.45233,-0.3445 -0.94717,-0.58854 -1.48462,-0.73228 -0.40309,-0.1078 -0.81942,-0.15915 -1.25493,-0.14534 z m 24.85198,0.21242 -4.26338,7.14387 1.75914,0.9391 4.26899,-7.14387 z m -24.77915,1.4366 c 0.1555,0.0161 0.30534,0.0506 0.45379,0.10064 0.30037,0.0981 0.58481,0.26503 0.85156,0.4975 0.26479,0.2292 0.50044,0.51921 0.7115,0.87202 0.21299,0.35607 0.35809,0.69819 0.43138,1.03413 0.0709,0.33268 0.0715,0.65076 0.005,0.94468 -0.0624,0.2921 -0.19213,0.55998 -0.39217,0.80495 -0.20198,0.24169 -0.4716,0.45241 -0.80673,0.63165 -0.33857,0.18109 -0.6706,0.28882 -0.99722,0.32981 -0.3251,0.0358 -0.63522,0.009 -0.93559,-0.0895 -0.29691,-0.0999 -0.58116,-0.26831 -0.84595,-0.49751 -0.26675,-0.23247 -0.50409,-0.52712 -0.71711,-0.8832 -0.21104,-0.35279 -0.35443,-0.69585 -0.42577,-1.02853 -0.0732,-0.33595 -0.0792,-0.64702 -0.0168,-0.9391 0.0658,-0.29393 0.20332,-0.56556 0.40337,-0.81053 0.20349,-0.24681 0.47376,-0.46176 0.81234,-0.64284 0.33512,-0.17924 0.66091,-0.28273 0.98601,-0.31862 0.16255,-0.018 0.32629,-0.0216 0.48179,-0.005 z m 29.70362,1.53163 -6.02252,5.9029 3.75917,3.43219 1.12047,-1.09561 -2.31377,-2.10739 4.90766,-4.80729 z m -38.30881,3.61665 c -0.18307,-0.001 -0.36257,0.016 -0.54903,0.0558 -0.3706,0.0769 -0.74223,0.24296 -1.11486,0.5031 -0.37354,0.25489 -0.7423,0.62001 -1.09807,1.09002 l -1.78154,2.35334 7.05895,4.77376 1.17089,-1.5484 -2.35859,-1.59311 0.61066,-0.81053 c 0.34883,-0.46084 0.59039,-0.89368 0.7283,-1.30804 0.13705,-0.41959 0.18359,-0.81216 0.14006,-1.17387 -0.0435,-0.36173 -0.17368,-0.69501 -0.38656,-1.00059 -0.21286,-0.30559 -0.49412,-0.57805 -0.84596,-0.81613 -0.326,-0.22062 -0.66586,-0.37209 -1.02522,-0.45837 -0.17968,-0.0432 -0.36596,-0.0654 -0.54903,-0.0671 z m -0.33614,1.80553 c 0.083,0.003 0.16301,0.0172 0.24651,0.0392 0.16698,0.0437 0.3316,0.11997 0.49299,0.22919 0.36472,0.24682 0.5805,0.52386 0.64988,0.83847 0.0694,0.31464 -0.048,0.676 -0.35295,1.07886 l -0.61065,0.80493 -2.23534,-1.51485 0.61066,-0.80495 c 0.14785,-0.19532 0.30148,-0.34174 0.45939,-0.44719 0.16022,-0.10849 0.32126,-0.18079 0.4874,-0.20682 0.0826,-0.0156 0.16905,-0.0199 0.25211,-0.0168 z m 44.57783,0.84966 -7.65841,3.85701 2.45943,4.36012 1.4174,-0.71551 -1.51264,-2.68315 6.24101,-3.13591 z m -42.30328,6.71344 -9.17664,1.4366 -0.42017,1.90615 7.80966,4.77935 0.31934,-1.45337 c 0.034,-0.15432 0.0228,-0.29025 -0.0392,-0.41365 -0.0659,-0.12417 -0.15139,-0.21574 -0.2521,-0.2739 l -1.37818,-0.76582 0.67228,-3.05766 1.58546,-0.17887 c 0.13326,-0.016 0.25429,-0.0697 0.35855,-0.15653 0.10114,-0.0913 0.17166,-0.21844 0.20729,-0.3801 z m 45.9504,1.09003 -8.56038,1.31921 0.89638,5.20977 1.52943,-0.23477 -0.57143,-3.3204 2.03925,-0.31303 0.43698,2.5434 1.46782,-0.2236 -0.43699,-2.54898 2.00004,-0.30745 0.57144,3.32599 1.52943,-0.23479 z m -49.84963,1.23537 -0.4818,2.19682 -2.1513,-1.19623 c -0.13552,-0.0843 -0.29909,-0.17723 -0.4874,-0.2795 -0.1883,-0.10224 -0.39217,-0.20755 -0.61626,-0.31303 0.24692,-0.0166 0.47888,-0.0333 0.69468,-0.0558 0.21277,-0.0271 0.39645,-0.0541 0.55464,-0.0727 z m 2.12329,11.30832 -5.70319,7.38982 0.86837,1.60989 9.02537,-1.24096 -0.77873,-1.44219 c -0.0796,-0.14732 -0.18691,-0.24546 -0.31934,-0.30185 -0.12906,-0.0583 -0.25085,-0.0816 -0.36414,-0.0615 l -4.73398,0.83849 c -0.20592,0.0375 -0.42854,0.0823 -0.66668,0.13415 -0.23624,0.0553 -0.47942,0.12015 -0.7283,0.20124 0.19014,-0.1899 0.36799,-0.37601 0.53222,-0.56458 0.16615,-0.18507 0.31799,-0.36373 0.45379,-0.53104 l 3.13731,-3.78994 c 0.0885,-0.10722 0.1426,-0.23122 0.15687,-0.36893 0.0142,-0.1377 -0.0231,-0.28162 -0.10647,-0.43601 z m 42.1464,0.10617 c -0.40776,0.0178 -0.79983,0.10032 -1.17648,0.24595 -0.5022,0.19426 -0.96655,0.49556 -1.38939,0.91115 -0.42118,0.41194 -0.77336,0.92925 -1.05323,1.5484 l -1.39499,3.0912 7.64159,3.75081 1.39499,-3.0968 c 0.27982,-0.61914 0.44175,-1.22346 0.4818,-1.82229 0.0381,-0.60421 -0.0311,-1.17245 -0.20729,-1.69933 -0.17974,-0.52858 -0.45854,-1.00629 -0.83475,-1.431 -0.37806,-0.43008 -0.84245,-0.78 -1.39498,-1.0509 -0.54906,-0.2692 -1.10262,-0.41947 -1.65829,-0.44719 -0.13938,-0.009 -0.27305,-0.006 -0.40898,0 z m -0.38655,1.96763 c 0.16186,-0.0108 0.33463,-0.001 0.50981,0.0223 0.35034,0.0472 0.71476,0.1614 1.09245,0.34657 0.38119,0.18689 0.69986,0.40846 0.958,0.65961 0.25816,0.25114 0.45098,0.52409 0.57704,0.82171 0.12429,0.29227 0.17785,0.60572 0.16808,0.9391 -0.0133,0.33166 -0.098,0.67525 -0.25771,1.02854 l -0.56024,1.23537 -4.91325,-2.40924 0.56023,-1.23537 c 0.1597,-0.35328 0.35894,-0.64062 0.59946,-0.86084 0.23703,-0.22191 0.50221,-0.37914 0.80113,-0.46396 0.14855,-0.0451 0.30314,-0.0731 0.465,-0.0838 z m -5.33904,4.62283 -3.90483,3.94087 5.88246,6.31656 3.90483,-3.94645 -1.04763,-1.12357 -2.49304,2.51544 -1.4006,-1.50926 1.91041,-1.92292 -1.00843,-1.08443 -1.91039,1.9285 -1.37258,-1.47573 2.49304,-2.51544 z m -31.59719,1.36394 -5.43428,6.73579 4.16254,3.64461 0.97481,-1.20183 -2.65551,-2.32538 1.29413,-1.6043 2.03366,1.78317 0.92998,-1.15711 -2.03364,-1.77758 1.26613,-1.57635 2.65551,2.3254 0.9692,-1.20183 z m 25.83238,3.71167 -1.73112,0.97264 4.00008,7.74757 1.73672,-0.97264 z m -20.70064,0.58135 -2.91883,8.25067 1.83758,0.70991 1.08125,-3.05767 0.46499,0.17887 c 0.14137,0.0544 0.24234,0.12111 0.30252,0.19566 0.0638,0.076 0.10832,0.1794 0.12886,0.30744 l 0.46499,2.90114 c 0.0487,0.29324 0.22955,0.49655 0.53783,0.61489 l 1.6639,0.64283 -0.67228,-3.52162 c -0.0317,-0.1666 -0.0815,-0.31658 -0.15688,-0.45278 -0.0717,-0.13479 -0.15711,-0.25738 -0.2577,-0.36893 0.29361,-0.003 0.56596,-0.0507 0.81794,-0.13415 0.25561,-0.082 0.48406,-0.19789 0.68909,-0.34658 0.21,-0.15104 0.3903,-0.33072 0.54343,-0.54222 0.15313,-0.21151 0.28044,-0.45292 0.37535,-0.72109 0.12438,-0.35127 0.17858,-0.69678 0.16807,-1.03972 -0.0109,-0.34294 -0.10581,-0.6715 -0.28571,-0.9894 -0.17636,-0.31654 -0.44332,-0.61201 -0.80674,-0.8888 -0.35845,-0.27918 -0.82757,-0.52907 -1.40059,-0.74904 z m 17.38406,1.29685 -5.31102,1.22418 1.83196,8.59165 1.92161,-0.44719 -0.7115,-3.34275 2.81797,-0.64842 -0.32493,-1.54281 -2.82357,0.65401 -0.4594,-2.17445 3.38382,-0.7826 z m -16.05071,0.83848 0.73951,0.28509 c 0.47511,0.18237 0.78853,0.41963 0.9412,0.70991 0.15636,0.29167 0.16754,0.62122 0.0392,0.98382 -0.0642,0.18129 -0.1452,0.34159 -0.2521,0.48073 -0.1056,0.13534 -0.2383,0.23908 -0.39217,0.31304 -0.15387,0.0739 -0.33045,0.10646 -0.53222,0.10617 -0.1968,-0.002 -0.42203,-0.0493 -0.67228,-0.14533 l -0.73951,-0.2851 z m 6.60516,0.22919 -0.4818,8.78729 1.97203,0.11738 0.4762,-8.78729 z" /><path
       id="path66"
       style="display:inline;fill:#0318a6;fill-opacity:1;stroke:none;stroke-width:1.15723;stroke-linecap:round;stroke-linejoin:round;stroke-miterlimit:0;stroke-dasharray:none;stroke-opacity:1"
       d="m 187.29513,155.50566 c -0.5403,0 -1.08057,0.20683 -1.49459,0.62082 l -14.35577,14.35578 -6.2609,-6.26089 c -0.97586,-0.97586 -2.54703,-0.97586 -3.5229,0 l -0.42274,0.42275 c -0.97587,0.97586 -0.97587,2.54703 0,3.52289 l 8.31432,8.31432 c 0.17361,0.17362 0.36665,0.31495 0.57124,0.42679 0.83216,0.72815 2.08897,0.69746 2.88276,-0.0963 l 16.73964,-16.73966 c 0.828,-0.82799 0.828,-2.16115 0,-2.98916 l -0.95649,-0.95649 c -0.414,-0.414 -0.95428,-0.62083 -1.49457,-0.62083 z" /></g><path
     d="m 87.056998,136.5 h 5.984329 q 0.96805,0 1.584085,0.40838 0.616034,0.40839 0.880044,1.08222 l 6.204344,15.92704 q 0.41803,1.04138 0.83605,2.26654 0.44002,1.22515 0.81404,2.57283 0.30802,-1.34768 0.70404,-2.57283 0.41802,-1.22516 0.81404,-2.26654 l 6.16034,-15.92704 q 0.22001,-0.57173 0.85805,-1.02096 0.63802,-0.46964 1.56208,-0.46964 h 6.02833 l -12.8487,29.75088 h -6.732373 z m 55.707022,0 v 5.309 H 129.6073 v 6.94256 h 10.07655 v 5.10482 H 129.6073 v 7.08549 h 13.15672 v 5.30901 H 122.1269 V 136.5 Z m 11.66066,18.74489 v 11.00599 h -7.4364 V 136.5 h 10.42857 q 3.47619,0 5.91833,0.67383 2.46413,0.65342 4.0042,1.83774 1.5621,1.18431 2.26614,2.79743 0.70404,1.61313 0.70404,3.51213 0,1.44976 -0.41803,2.73618 -0.41802,1.28641 -1.25406,2.38905 -0.81405,1.08222 -2.02412,1.93983 -1.18807,0.85761 -2.75015,1.40894 0.74804,0.34712 1.38608,0.85761 0.66004,0.51048 1.14406,1.24557 l 6.82037,10.35257 h -6.73236 q -1.87011,0 -2.68416,-1.30683 l -5.32429,-8.63736 q -0.35201,-0.57174 -0.83603,-0.81677 -0.46203,-0.24503 -1.32008,-0.24503 z m 0,-4.75769 h 2.99217 q 1.51808,0 2.57414,-0.34712 1.07805,-0.36756 1.7601,-1.00055 0.68204,-0.633 0.99005,-1.47019 0.30802,-0.85761 0.30802,-1.83773 0,-1.96026 -1.38608,-3.0629 -1.36408,-1.10264 -4.24623,-1.10264 h -2.99217 z m 29.96568,15.76368 h -7.48041 V 136.5 h 7.48041 z M 210.96781,136.5 v 5.309 h -13.15672 v 7.53472 h 10.95661 v 5.32943 h -10.95661 v 11.57773 h -7.48041 V 136.5 Z m 12.01262,29.75088 h -7.48041 V 136.5 h 7.48041 z M 249.55787,136.5 v 5.309 h -13.15672 v 6.94256 h 10.07655 v 5.10482 h -10.07655 v 7.08549 h 13.15672 v 5.30901 H 228.92074 V 136.5 Z m 33.30986,14.86523 q 0,3.22624 -1.21008,5.96242 -1.18807,2.71577 -3.36618,4.71686 -2.17813,1.98067 -5.25829,3.10373 -3.05817,1.10264 -6.79837,1.10264 H 253.78212 V 136.5 h 12.45269 q 3.7402,0 6.79837,1.12306 3.08016,1.12306 5.25829,3.10373 2.17811,1.98067 3.36618,4.71685 1.21008,2.71577 1.21008,5.92159 z m -7.61243,0 q 0,-2.20529 -0.61602,-3.98176 -0.61604,-1.77648 -1.78211,-3.00163 -1.14407,-1.24558 -2.81615,-1.89899 -1.6721,-0.67385 -3.80621,-0.67385 h -4.97227 v 19.13287 h 4.97227 q 2.13411,0 3.80621,-0.65342 1.67208,-0.67383 2.81615,-1.89899 1.16607,-1.24557 1.78211,-3.02205 0.61602,-1.77648 0.61602,-4.00218 z"
     id="path9"
     style="color:#000000;font-style:normal;font-variant:normal;font-weight:normal;font-stretch:normal;font-size:medium;line-height:1.1;font-family:Lato;-inkscape-font-specification:'Lato Heavy';font-variant-ligatures:normal;font-variant-position:normal;font-variant-caps:normal;font-variant-numeric:normal;font-variant-alternates:normal;font-variant-east-asian:normal;font-feature-settings:normal;font-variation-settings:normal;text-indent:0;text-align:start;text-decoration-line:none;text-decoration-style:solid;text-decoration-color:#000000;letter-spacing:normal;word-spacing:3.63317px;text-transform:none;writing-mode:lr-tb;direction:ltr;text-orientation:mixed;dominant-baseline:auto;baseline-shift:baseline;text-anchor:start;white-space:normal;shape-padding:0;shape-margin:0;inline-size:0;clip-rule:nonzero;display:inline;overflow:visible;visibility:visible;isolation:auto;mix-blend-mode:normal;color-interpolation:sRGB;color-interpolation-filters:linearRGB;solid-color:#000000;solid-opacity:1;vector-effect:none;fill:#0318a6;fill-opacity:1;fill-rule:nonzero;stroke:none;stroke-width:5;stroke-linecap:butt;stroke-linejoin:miter;stroke-miterlimit:0;stroke-dasharray:none;stroke-dashoffset:0;stroke-opacity:1;-inkscape-stroke:none;color-rendering:auto;image-rendering:auto;shape-rendering:auto;text-rendering:auto;enable-background:accumulate;stop-color:#000000" /><path
     d="m 119.53078,211.96256 h -5.76432 q -0.96805,0 -1.60608,-0.40839 -0.61604,-0.42881 -0.85805,-1.08223 l -1.89211,-5.18649 H 97.221551 l -1.892098,5.18649 q -0.220016,0.57175 -0.858047,1.04139 -0.638042,0.44923 -1.56209,0.44923 h -5.808315 l 12.408677,-29.75089 h 7.612412 z M 98.937646,200.58901 h 8.756474 l -2.94815,-8.14728 q -0.28602,-0.77594 -0.68204,-1.81732 -0.37401,-1.0618 -0.74804,-2.28696 -0.35202,1.24557 -0.72604,2.30738 -0.37402,1.0618 -0.70403,1.83773 z m 30.625654,1.42935 v 9.9442 h -7.4364 v -29.75089 h 11.30861 q 3.38818,0 5.80832,0.75551 2.44214,0.73509 4.00422,2.04193 1.58409,1.30683 2.33213,3.08331 0.74804,1.77648 0.74804,3.83882 0,2.2257 -0.77004,4.08386 -0.77004,1.85815 -2.35413,3.1854 -1.58408,1.32726 -4.02623,2.08277 -2.42012,0.73509 -5.74231,0.73509 z m 0,-5.20691 h 3.87221 q 2.90416,0 4.18023,-1.28642 1.27607,-1.28641 1.27607,-3.59379 0,-1.02097 -0.33001,-1.85815 -0.33002,-0.8372 -1.01207,-1.42935 -0.66003,-0.61258 -1.69409,-0.93929 -1.01205,-0.3267 -2.42013,-0.3267 h -3.87221 z m 52.27488,0.26545 q 0,3.22625 -1.21007,6.00326 -1.18806,2.77703 -3.36618,4.83938 -2.17812,2.04192 -5.25828,3.20582 -3.05817,1.1639 -6.79837,1.1639 -3.7402,0 -6.82038,-1.1639 -3.08016,-1.1639 -5.28028,-3.20582 -2.17813,-2.06235 -3.38819,-4.83938 -1.18807,-2.77701 -1.18807,-6.00326 0,-3.22625 1.18807,-6.00326 1.21006,-2.77703 3.38819,-4.81895 2.20012,-2.04194 5.28028,-3.20584 3.08018,-1.1639 6.82038,-1.1639 3.7402,0 6.79837,1.18433 3.08016,1.1639 5.25828,3.20582 2.17812,2.04193 3.36618,4.81895 1.21007,2.77702 1.21007,5.98285 z m -7.61242,0 q 0,-2.20529 -0.61603,-3.96134 -0.61602,-1.77648 -1.7821,-3.00163 -1.14406,-1.22516 -2.81615,-1.87857 -1.6721,-0.65342 -3.8062,-0.65342 -2.15612,0 -3.85022,0.65342 -1.67209,0.65341 -2.83815,1.87857 -1.14407,1.22515 -1.76009,3.00163 -0.61604,1.75605 -0.61604,3.96134 0,2.2257 0.61604,4.00218 0.61602,1.75606 1.76009,2.98121 1.16606,1.22516 2.83815,1.87858 1.6941,0.63299 3.85022,0.63299 2.1341,0 3.8062,-0.63299 1.67209,-0.65342 2.81615,-1.87858 1.16608,-1.22515 1.7821,-2.98121 0.61603,-1.77648 0.61603,-4.00218 z m 29.04156,-8.82113 q -0.33002,0.49007 -0.70404,0.7351 -0.35202,0.24502 -0.92405,0.24502 -0.50603,0 -1.10006,-0.28586 -0.57204,-0.30629 -1.32007,-0.67384 -0.72604,-0.36755 -1.67209,-0.65342 -0.94605,-0.30629 -2.15613,-0.30629 -2.0901,0 -3.12416,0.8372 -1.01205,0.81677 -1.01205,2.2257 0,0.89845 0.61602,1.4906 0.61604,0.59216 1.60609,1.02096 1.01206,0.42881 2.28813,0.79636 1.29807,0.34713 2.64014,0.79635 1.34207,0.4288 2.61815,1.02096 1.29807,0.59217 2.28812,1.51103 1.01205,0.91887 1.62809,2.24612 0.61604,1.30684 0.61604,3.16498 0,2.06235 -0.77004,3.85926 -0.77005,1.79689 -2.24413,3.14456 -1.45207,1.32726 -3.6082,2.10319 -2.13411,0.75551 -4.86226,0.75551 -1.49609,0 -3.05816,-0.28587 -1.54009,-0.28587 -2.99218,-0.79635 -1.45207,-0.53091 -2.72815,-1.24558 -1.27606,-0.71467 -2.22211,-1.5927 l 2.20012,-3.22625 q 0.24201,-0.36754 0.68203,-0.59216 0.44002,-0.22461 0.94606,-0.22461 0.66004,0 1.32006,0.38797 0.68205,0.38796 1.51809,0.85761 0.85805,0.46964 1.9581,0.8576 1.10006,0.38797 2.59614,0.38797 2.02412,0 3.14618,-0.81677 1.12207,-0.83718 1.12207,-2.63408 0,-1.04139 -0.61604,-1.6948 -0.61603,-0.65342 -1.62809,-1.08223 -0.99006,-0.4288 -2.26613,-0.75551 -1.27606,-0.32671 -2.61813,-0.71468 -1.34207,-0.40838 -2.61815,-0.98012 -1.27607,-0.59216 -2.28812,-1.53144 -0.99007,-0.95971 -1.60609,-2.36864 -0.61603,-1.42935 -0.61603,-3.51211 0,-1.67438 0.72604,-3.26709 0.72604,-1.5927 2.1341,-2.83828 1.40809,-1.24557 3.4542,-1.98067 2.0461,-0.75552 4.68626,-0.75552 1.47407,0 2.86014,0.22462 1.40809,0.20419 2.66215,0.63299 1.25408,0.40839 2.33214,1.00055 1.10005,0.57174 1.9581,1.30684 z m 29.26161,-6.0441 v 5.47236 h -9.0205 v 24.27853 h -7.43641 v -24.27853 h -9.0205 v -5.47236 z m 11.22064,29.75089 h -7.4804 v -29.75089 h 7.4804 z m 13.37672,-5.51321 h 11.88064 v 5.51321 h -19.31704 v -29.75089 h 7.4364 z m 22.8372,0 h 11.88066 v 5.51321 h -19.31706 v -29.75089 h 7.4364 z m 36.03794,-24.23768 v 5.309 h -13.15671 v 6.94256 h 10.07655 v 5.10482 h -10.07655 v 7.08549 h 13.15671 v 5.30902 H 295.3643 v -29.75089 z"
     id="path10"
     style="color:#000000;font-style:normal;font-variant:normal;font-weight:normal;font-stretch:normal;font-size:medium;line-height:1.1;font-family:Lato;-inkscape-font-specification:'Lato Heavy';font-variant-ligatures:normal;font-variant-position:normal;font-variant-caps:normal;font-variant-numeric:normal;font-variant-alternates:normal;font-variant-east-asian:normal;font-feature-settings:normal;font-variation-settings:normal;text-indent:0;text-align:start;text-decoration-line:none;text-decoration-style:solid;text-decoration-color:#000000;letter-spacing:normal;word-spacing:3.63317px;text-transform:none;writing-mode:lr-tb;direction:ltr;text-orientation:mixed;dominant-baseline:auto;baseline-shift:baseline;text-anchor:start;white-space:normal;shape-padding:0;shape-margin:0;inline-size:0;clip-rule:nonzero;display:inline;overflow:visible;visibility:visible;isolation:auto;mix-blend-mode:normal;color-interpolation:sRGB;color-interpolation-filters:linearRGB;solid-color:#000000;solid-opacity:1;vector-effect:none;fill:#0318a6;fill-opacity:1;fill-rule:nonzero;stroke:none;stroke-width:5;stroke-linecap:butt;stroke-linejoin:miter;stroke-miterlimit:0;stroke-dasharray:none;stroke-dashoffset:0;stroke-opacity:1;-inkscape-stroke:none;color-rendering:auto;image-rendering:auto;shape-rendering:auto;text-rendering:auto;enable-background:accumulate;stop-color:#000000" /></g></svg>
