<?xml version="1.0" encoding="UTF-8" standalone="no"?>
<svg
   xml:space="preserve"
   viewBox="0 0 512 512"
   version="1.1"
   id="svg4"
   sodipodi:docname="Icon-1.svg"
   inkscape:version="1.4 (86a8ad7, 2024-10-11)"
   xmlns:inkscape="http://www.inkscape.org/namespaces/inkscape"
   xmlns:sodipodi="http://sodipodi.sourceforge.net/DTD/sodipodi-0.dtd"
   xmlns="http://www.w3.org/2000/svg"
   xmlns:svg="http://www.w3.org/2000/svg"><defs
   id="defs4" /><sodipodi:namedview
   id="namedview4"
   pagecolor="#ffffff"
   bordercolor="#000000"
   borderopacity="0.25"
   inkscape:showpageshadow="2"
   inkscape:pageopacity="0.0"
   inkscape:pagecheckerboard="0"
   inkscape:deskcolor="#d1d1d1"
   inkscape:zoom="2.2511407"
   inkscape:cx="298.73743"
   inkscape:cy="368.47985"
   inkscape:window-width="1920"
   inkscape:window-height="1017"
   inkscape:window-x="-8"
   inkscape:window-y="-8"
   inkscape:window-maximized="1"
   inkscape:current-layer="svg4" />
  
  
  
  
<path
   fill="#ffffff"
   d="m 106.6289,62.948667 h 302.89258 c 1.92282,0 3.47172,1.524592 3.47172,3.417309 V 445.63402 c 0,1.89272 -1.5489,3.41731 -3.47172,3.41731 H 106.6289 c -1.92282,0 -3.47172,-1.52459 -3.47172,-3.41731 V 66.365976 c 0,-1.892717 1.5489,-3.417309 3.47172,-3.417309"
   id="path2-4"
   style="stroke-width:1" /><path
   class="icon-primary"
   fill="hsla(194, 100%, 35%, 1.00)"
   d="m 117.44343,53.415625 c -12.15506,0 -22.094429,9.943999 -22.094429,22.099061 V 436.48531 c 0,12.15507 9.939369,22.09906 22.094429,22.09906 h 281.26352 c 12.15506,0 22.09443,-9.94399 22.09443,-22.09906 V 75.514686 c 0,-12.155062 -9.93937,-22.099061 -22.09443,-22.099061 z m 0,10.04587 h 281.26352 c 6.76284,0 12.0474,5.290346 12.0474,12.052034 V 436.48647 c 0,6.76285 -5.28456,12.05088 -12.0474,12.05088 H 117.44343 c -6.76284,0 -12.0474,-5.28803 -12.0474,-12.05088 V 75.513529 c 0,-6.762846 5.28456,-12.050877 12.0474,-12.050877 z"
   id="path3-8"
   style="fill:#0089b3;fill-opacity:1;stroke-width:1" /><path
   d="m 152.97905,114.06591 h 90.06785 a 19.257092,19.257092 0 0 1 19.30108,19.29761 19.257092,19.257092 0 0 1 -19.30108,19.29993 h -90.06785 a 19.257092,19.257092 0 0 1 -19.30108,-19.29877 19.257092,19.257092 0 0 1 19.30108,-19.29877 m -11.26254,109.67918 h 215.52778 a 8.0223412,8.0223412 0 0 1 8.03855,8.03739 8.0223412,8.0223412 0 0 1 -8.03855,8.0374 H 141.71651 a 8.0223412,8.0223412 0 0 1 -8.03854,-8.0374 8.0223412,8.0223412 0 0 1 8.03854,-8.03739 m 0,53.97774 h 215.52778 a 8.0223412,8.0223412 0 0 1 8.03855,8.03855 8.0223412,8.0223412 0 0 1 -8.03855,8.03739 H 141.71651 a 8.0223412,8.0223412 0 0 1 -8.03854,-8.03739 8.0223412,8.0223412 0 0 1 8.03854,-8.03855 m 0,53.9789 h 215.52778 a 8.0223412,8.0223412 0 0 1 8.03855,8.03739 8.0223412,8.0223412 0 0 1 -8.03855,8.03739 H 141.71651 a 8.0223412,8.0223412 0 0 1 -8.03854,-8.03739 8.0223412,8.0223412 0 0 1 8.03854,-8.03739 m 0,53.9789 h 215.52778 a 8.0223412,8.0223412 0 0 1 8.03855,8.03739 8.0223412,8.0223412 0 0 1 -8.03855,8.03739 H 141.71651 a 8.0223412,8.0223412 0 0 1 -8.03854,-8.03739 8.0223412,8.0223412 0 0 1 8.03854,-8.03739"
   fill="#8e857c"
   id="path4-8"
   style="stroke-width:1" /><path
   class="icon-secondary"
   fill="hsla(350, 75%, 50%, 1.00)"
   d="m 398.55414,400.0699 c -0.84275,1.62299 -16.38734,2.30368 -17.45467,3.77849 -1.06849,1.47482 2.67527,17.08539 1.40652,18.37846 -1.26876,1.29306 -16.32483,-2.78988 -17.76723,-1.70634 -1.44125,1.08238 -2.31525,17.13053 -3.89773,17.97907 -1.58247,0.84854 -14.81181,-7.63569 -16.49962,-7.04067 -1.68782,0.59502 -7.10203,15.65687 -8.85584,15.98564 -1.7538,0.32877 -11.98373,-11.8043 -13.76763,-11.74989 -1.78274,0.0544 -11.25559,12.78944 -13.02791,12.56949 -1.77233,-0.21995 -8.08949,-14.92295 -9.80972,-15.41378 -1.72138,-0.49083 -14.41127,8.78637 -16.04236,8.03623 -1.62994,-0.75014 -3.47751,-16.7161 -4.98242,-17.70819 -1.50491,-0.99208 -16.28431,4.00307 -17.63063,2.78988 -1.344,-1.21319 1.44472,-17.02287 0.28941,-18.42939 -1.15647,-1.40651 -16.71264,-1.13679 -17.65263,-2.70537 -0.93999,-1.56742 6.23729,-15.81779 5.53345,-17.51371 -0.70384,-1.69592 -15.65456,-6.17361 -16.10604,-7.95867 -0.45147,-1.78274 10.47651,-13.2085 10.28666,-15.04102 -0.18869,-1.83252 -13.20503,-10.66404 -13.12747,-12.50582 0.0776,-1.84063 13.78384,-9.42307 14.1265,-11.23244 0.34266,-1.80937 -9.58398,-14.20637 -8.98433,-15.9405 0.59965,-1.73643 15.86757,-4.80414 16.71032,-6.42597 0.84275,-1.62299 -5.10976,-16.4869 -4.04127,-17.96171 1.06849,-1.47482 16.54015,0.24541 17.8089,-1.04765 1.26876,-1.29307 -0.18174,-17.30071 1.26066,-18.38309 1.4424,-1.08238 15.7437,5.27067 17.32617,4.42213 1.58247,-0.84854 4.76247,-16.57835 6.44913,-17.17452 1.68782,-0.59502 13.55,9.83055 15.3038,9.50178 1.75612,-0.32876 9.28415,-14.38349 11.0669,-14.4379 1.78274,-0.0556 10.15005,13.51412 11.92122,13.73407 1.77116,0.21994 12.97813,-10.90946 14.69952,-10.41863 1.72023,0.49083 5.84832,15.99838 7.47942,16.74736 1.63109,0.74899 15.52143,-6.46649 17.02634,-5.47441 1.50492,0.99209 1.02798,17.06108 2.37314,18.27427 1.34516,1.21319 16.68484,-1.4505 17.84015,-0.044 1.15647,1.40652 -3.88267,16.60613 -2.94268,18.17471 0.93999,1.56859 16.36535,3.69746 17.06918,5.39222 0.70384,1.69476 -8.45066,14.67753 -7.99919,16.46143 0.45148,1.7839 14.59302,8.51433 14.78172,10.34801 0.18869,1.83368 -12.26736,11.44312 -12.34376,13.2849 -0.0776,1.84063 11.52184,12.57528 11.18034,14.38465 -0.34265,1.80821 -14.99356,7.19348 -15.5932,8.92876 -0.5985,1.73413 7.42963,15.51912 6.58688,17.14211"
   id="path5"
   style="fill:#df2040;fill-opacity:1;stroke-width:1" /><path
   style="fill:#ffffff;"
   d="m 319.08789,294.71094 c -33.17778,0 -60.08594,27.3417 -60.08594,60.99023 10e-6,33.64853 26.90817,60.98828 60.08594,60.98828 33.17777,0 60.08398,-27.33975 60.08398,-60.98828 10e-6,-33.64853 -26.9062,-60.99023 -60.08398,-60.99023 z m 0,3.5 c 31.25689,0 56.58399,25.70434 56.58398,57.49023 0,31.78589 -25.32709,57.48828 -56.58398,57.48828 -31.25688,0 -56.58593,-25.70239 -56.58594,-57.48828 0,-31.78589 25.32905,-57.49023 56.58594,-57.49023 z"
   id="path7" /><path
   id="rect7"
   style="fill:#ffffff;"
   d="m 350.45592,327.32204 c -1.4892,0 -2.97741,0.57001 -4.11849,1.7107 l -39.58713,39.57321 -19.01603,-19.01644 c -2.28212,-2.28136 -5.95476,-2.28136 -8.23693,0 l -2.66992,2.67608 c -2.28217,2.28137 -2.28217,5.95272 0,8.23409 l 23.13451,23.12633 2.66989,2.67609 c 1.28372,1.28328 3.01024,1.84273 4.67944,1.68228 1.29829,-0.12494 2.55909,-0.68419 3.55753,-1.68228 l 2.67702,-2.67609 43.69848,-43.68311 c 2.28217,-2.28136 2.28217,-5.9598 0,-8.24117 l -2.66989,-2.66899 c -1.14108,-1.14069 -2.62933,-1.7107 -4.11848,-1.7107 z" /></svg>
