<?xml version="1.0" encoding="UTF-8" standalone="no"?>
<svg
   xml:space="preserve"
   viewBox="0 0 512 512"
   version="1.1"
   id="svg4"
   sodipodi:docname="Icon-1.svg"
   inkscape:version="1.4 (86a8ad7, 2024-10-11)"
   xmlns:inkscape="http://www.inkscape.org/namespaces/inkscape"
   xmlns:sodipodi="http://sodipodi.sourceforge.net/DTD/sodipodi-0.dtd"
   xmlns="http://www.w3.org/2000/svg"
   xmlns:svg="http://www.w3.org/2000/svg"><defs
   id="defs4"><inkscape:path-effect
     effect="fillet_chamfer"
     id="path-effect2"
     is_visible="true"
     lpeversion="1"
     nodesatellites_param="F,0,0,1,0,4.068851,0,1 @ F,0,0,1,0,1.6171448,0,1 @ F,0,0,1,0,3.9943668,0,1 @ F,0,0,1,0,0,0,1"
     radius="0"
     unit="px"
     method="auto"
     mode="F"
     chamfer_steps="1"
     flexible="false"
     use_knot_distance="true"
     apply_no_radius="true"
     apply_with_radius="true"
     only_selected="false"
     hide_knots="false" /></defs><sodipodi:namedview
   id="namedview4"
   pagecolor="#ffffff"
   bordercolor="#000000"
   borderopacity="0.25"
   inkscape:showpageshadow="2"
   inkscape:pageopacity="0.0"
   inkscape:pagecheckerboard="0"
   inkscape:deskcolor="#d1d1d1"
   inkscape:zoom="0.79589843"
   inkscape:cx="10.679755"
   inkscape:cy="388.86872"
   inkscape:window-width="1920"
   inkscape:window-height="1017"
   inkscape:window-x="-8"
   inkscape:window-y="-8"
   inkscape:window-maximized="1"
   inkscape:current-layer="svg4" />
  
  
  
  
<path
   id="rect1"
   style="baseline-shift:baseline;display:inline;overflow:visible;vector-effect:none;fill:#ffffff;fill-opacity:1;stroke-linecap:round;stroke-linejoin:round;stroke-miterlimit:0;enable-background:accumulate;stop-color:#000000;stop-opacity:1"
   d="M 0.38182715,0 H 511.61817 C 511.82971,0 512,0.67200395 512,1.5067353 V 510.49326 C 512,511.328 511.82971,512 511.61817,512 H 0.38182715 C 0.17029491,512 0,511.328 0,510.49326 V 1.5067353 C 0,0.67200395 0.17029491,0 0.38182715,0 Z" /><g
   id="g1"
   transform="matrix(1.2365591,0,0,1.2365591,-68.774,-56.810384)"
   style="stroke-width:0.808696"><path
     id="text1"
     style="font-weight:900;font-size:504.749px;line-height:1.1;font-family:Lato;-inkscape-font-specification:'Lato Heavy';text-align:start;word-spacing:43.0184px;writing-mode:lr-tb;direction:ltr;text-anchor:start;fill:#0318a6;fill-opacity:1;stroke:none;stroke-width:4.04348;stroke-linecap:round;stroke-linejoin:round;stroke-miterlimit:0"
     d="M 76.643331,124.36804 179.78842,381.70042 h 8.51956 45.52561 1.10031 c 4.94531,0 9.12621,-1.29418 12.54083,-3.88458 3.41462,-2.70815 5.7101,-5.71065 6.88755,-9.00753 l 15.18978,-44.86132 h 97.84582 l 15.18978,44.86132 c 1.29521,3.76786 3.59068,6.88752 6.88755,9.36018 3.41462,2.35491 7.71267,3.53193 12.89348,3.53193 h 46.27464 L 349.03018,124.36804 h -12.0515 -48.39326 -0.66566 l -0.0191,0.0492 c -4.63794,0.12377 -8.60535,1.43493 -11.85604,4.01306 -3.41462,2.59041 -5.7101,5.53434 -6.88755,8.83121 L 219.70448,275.0234 c -2.11942,6.00502 -4.29773,12.53997 -6.5349,19.6047 -2.11942,7.06473 -4.00348,14.48245 -5.65192,22.25366 -2.00167,-7.77121 -4.17998,-15.18893 -6.5349,-22.25366 -2.23716,-7.06473 -4.47406,-13.59968 -6.71122,-19.6047 L 144.46496,137.26152 c -1.41295,-3.88561 -3.76836,-7.00664 -7.06524,-9.36155 -3.29687,-2.35491 -7.53498,-3.53193 -12.71579,-3.53193 z M 318.47565,177.3539 c 2.00168,7.06474 4.0029,13.65826 6.00457,19.78103 2.11942,6.00502 3.9449,11.24442 5.47559,15.71875 l 23.66561,70.47059 h -70.29289 l 23.6656,-70.11658 c 1.76618,-4.47433 3.65024,-9.77367 5.65192,-15.89644 2.00167,-6.12277 3.94568,-12.77487 5.8296,-19.95735 z" /><path
     id="rect2"
     style="fill:#ffffff;fill-opacity:1;stroke-width:4.0282;stroke-linecap:round;stroke-linejoin:round;stroke-miterlimit:0"
     d="m 323.39288,20.046301 6.38013,-2.058147 0.67809,270.898426 -7.07527,2.43621 z"
     sodipodi:nodetypes="ccccc"
     transform="matrix(0.94910399,0.32680271,-0.32680271,0.94910399,-1.1493363,-0.47530334)" /></g></svg>
