<svg xmlns="http://www.w3.org/2000/svg" xml:space="preserve" viewBox="0 0 512 512">
  <path fill="#fff" d="M106.629 62.949H409.52c1.923 0 3.472 1.524 3.472 3.417v379.268c0 1.893-1.549 3.417-3.472 3.417H106.63c-1.923 0-3.472-1.524-3.472-3.417V66.366c0-1.893 1.55-3.417 3.472-3.417"/>
  <path class="icon-primary" fill="hsla(194, 100%, 35%, 1.00)" d="M117.443 53.416c-12.155 0-22.094 9.944-22.094 22.099v360.97c0 12.155 9.94 22.1 22.094 22.1h281.264c12.155 0 22.094-9.945 22.094-22.1V75.515c0-12.155-9.939-22.1-22.094-22.1zm0 10.045h281.264c6.763 0 12.047 5.29 12.047 12.053v360.972c0 6.763-5.284 12.051-12.047 12.051H117.443c-6.762 0-12.047-5.288-12.047-12.05V75.513c0-6.763 5.285-12.051 12.047-12.051z"/>
  <path fill="#8e857c" d="M152.98 114.066h90.067a19.257 19.257 0 0 1 19.301 19.298 19.257 19.257 0 0 1-19.301 19.3h-90.068a19.257 19.257 0 0 1-19.301-19.3 19.257 19.257 0 0 1 19.301-19.298m-11.262 109.68h215.527a8.022 8.022 0 0 1 8.039 8.036 8.022 8.022 0 0 1-8.039 8.038H141.717a8.022 8.022 0 0 1-8.039-8.038 8.022 8.022 0 0 1 8.039-8.037m0 53.978h215.527a8.022 8.022 0 0 1 8.039 8.038 8.022 8.022 0 0 1-8.039 8.038H141.717a8.022 8.022 0 0 1-8.039-8.038 8.022 8.022 0 0 1 8.039-8.038m0 53.979h215.527a8.022 8.022 0 0 1 8.039 8.037 8.022 8.022 0 0 1-8.039 8.038H141.717a8.022 8.022 0 0 1-8.039-8.038 8.022 8.022 0 0 1 8.039-8.037m0 53.979h215.527a8.022 8.022 0 0 1 8.039 8.037 8.022 8.022 0 0 1-8.039 8.037H141.717a8.022 8.022 0 0 1-8.039-8.037 8.022 8.022 0 0 1 8.039-8.037"/>
  <path class="icon-secondary" fill="hsla(350, 75%, 50%, 1.00)" d="M398.554 400.07c-.843 1.623-16.387 2.304-17.455 3.778-1.068 1.475 2.676 17.086 1.407 18.379-1.269 1.293-16.325-2.79-17.767-1.706-1.441 1.082-2.315 17.13-3.898 17.979-1.582.848-14.812-7.636-16.5-7.041-1.687.595-7.102 15.657-8.855 15.986-1.754.328-11.984-11.805-13.768-11.75-1.783.054-11.256 12.79-13.028 12.57-1.772-.22-8.09-14.924-9.81-15.415-1.721-.49-14.411 8.787-16.042 8.037-1.63-.75-3.478-16.717-4.982-17.709-1.505-.992-16.285 4.003-17.631 2.79-1.344-1.213 1.445-17.023.29-18.43-1.157-1.406-16.713-1.136-17.653-2.704-.94-1.568 6.237-15.818 5.533-17.514-.704-1.696-15.654-6.174-16.106-7.959-.451-1.783 10.477-13.208 10.287-15.04-.189-1.833-13.205-10.665-13.128-12.507.078-1.84 13.784-9.423 14.127-11.232.342-1.81-9.584-14.207-8.985-15.94.6-1.737 15.868-4.805 16.71-6.427.844-1.623-5.109-16.486-4.04-17.961 1.068-1.475 16.54.245 17.808-1.048 1.27-1.293-.181-17.3 1.261-18.383 1.442-1.082 15.744 5.27 17.326 4.422 1.583-.848 4.763-16.578 6.45-17.174 1.687-.595 13.55 9.83 15.303 9.501 1.756-.328 9.284-14.383 11.067-14.438 1.783-.055 10.15 13.515 11.921 13.735 1.771.22 12.978-10.91 14.7-10.42 1.72.492 5.848 16 7.48 16.748 1.63.75 15.52-6.466 17.026-5.474 1.504.992 1.028 17.06 2.373 18.274 1.345 1.213 16.685-1.45 17.84-.044 1.156 1.407-3.883 16.606-2.943 18.175.94 1.568 16.366 3.697 17.07 5.392.703 1.695-8.451 14.678-8 16.461.452 1.784 14.593 8.515 14.782 10.348.189 1.834-12.267 11.444-12.344 13.285-.077 1.841 11.522 12.576 11.18 14.385-.342 1.808-14.993 7.194-15.593 8.929-.598 1.734 7.43 15.519 6.587 17.142"/>
  <path fill="#fff" d="M319.088 294.71c-33.178 0-60.086 27.343-60.086 60.991 0 33.649 26.908 60.988 60.086 60.988s60.084-27.34 60.084-60.988c0-33.648-26.906-60.99-60.084-60.99zm0 3.5c31.257 0 56.584 25.705 56.584 57.491s-25.327 57.488-56.584 57.488-56.586-25.702-56.586-57.488c0-31.786 25.329-57.49 56.586-57.49z"/>
  <path fill="#fff" d="M350.456 327.322c-1.49 0-2.977.57-4.119 1.71l-39.587 39.574-19.016-19.016a5.812 5.812 0 0 0-8.237 0l-2.67 2.676a5.807 5.807 0 0 0 0 8.234l23.135 23.126 2.67 2.676a5.813 5.813 0 0 0 8.237 0l2.677-2.676 43.698-43.683a5.816 5.816 0 0 0 0-8.241l-2.67-2.67a5.806 5.806 0 0 0-4.118-1.71z"/>
</svg>