<svg xmlns="http://www.w3.org/2000/svg" xml:space="preserve" viewBox="0 0 512 512">
  <path class="icon-background" fill="#ffffff00" d="M0 0h512v512H0Z"/>
  <path fill="none" d="M.382 0h511.236c.212 0 .382.672.382 1.507v508.986c0 .835-.17 1.507-.382 1.507H.382C.17 512 0 511.328 0 510.493V1.507C0 .672.17 0 .382 0" overflow="visible"/>
  <path fill="#0318a6" d="M76.643 124.368 179.788 381.7h55.146q7.418 0 12.54-3.884 5.122-4.062 6.888-9.008l15.19-44.861h97.846l15.19 44.861q1.942 5.652 6.887 9.36 5.123 3.532 12.894 3.532h46.274L349.03 124.368h-61.11l-.02.05c-4.637.123-8.605 1.434-11.855 4.012q-5.122 3.886-6.888 8.832l-49.453 137.761a636 636 0 0 0-6.534 19.605q-3.18 10.598-5.652 22.254-3.003-11.657-6.535-22.254-3.355-10.598-6.711-19.605l-49.807-137.761q-2.12-5.83-7.065-9.362t-12.716-3.532zm241.833 52.986a520 520 0 0 0 6.004 19.78q3.18 9.008 5.476 15.72l23.665 70.47H283.33l23.665-70.116q2.649-6.712 5.652-15.897 3.003-9.184 5.83-19.957z"/>
  <path fill="#fff" d="m299.233 124.236 6.728.132L218.074 381.7h-7.511z"/>
</svg>