<?xml version="1.0" encoding="UTF-8" standalone="no"?>
<svg
   xml:space="preserve"
   viewBox="0 0 512 512"
   version="1.1"
   id="svg5"
   sodipodi:docname="MobileLogo-1.svg"
   inkscape:version="1.4 (86a8ad7, 2024-10-11)"
   xmlns:inkscape="http://www.inkscape.org/namespaces/inkscape"
   xmlns:sodipodi="http://sodipodi.sourceforge.net/DTD/sodipodi-0.dtd"
   xmlns="http://www.w3.org/2000/svg"
   xmlns:svg="http://www.w3.org/2000/svg"><defs
   id="defs5" /><sodipodi:namedview
   id="namedview5"
   pagecolor="#ffffff"
   bordercolor="#000000"
   borderopacity="0.25"
   inkscape:showpageshadow="2"
   inkscape:pageopacity="0.0"
   inkscape:pagecheckerboard="0"
   inkscape:deskcolor="#d1d1d1"
   inkscape:zoom="1.1255704"
   inkscape:cx="113.2759"
   inkscape:cy="304.29016"
   inkscape:window-width="1920"
   inkscape:window-height="1017"
   inkscape:window-x="-8"
   inkscape:window-y="-8"
   inkscape:window-maximized="1"
   inkscape:current-layer="svg5" />
  <path
   class="icon-background"
   fill="#ffffff00"
   d="M0 0h512v512H0Z"
   id="path1"
   style="fill:#0089b3;fill-opacity:0" />
  <path
   fill="#fff"
   d="M125.175 89.235h261.65c1.661 0 2.999 1.317 2.999 2.952v327.626c0 1.635-1.338 2.952-2.999 2.952h-261.65c-1.661 0-2.999-1.317-2.999-2.952V92.187c0-1.635 1.338-2.952 2.999-2.952"
   id="path2" />
  <path
   class="icon-primary"
   fill="hsla(194, 100%, 35%, 1.00)"
   d="M134.517 81c-10.5 0-19.086 8.59-19.086 19.09v311.82c0 10.5 8.586 19.09 19.086 19.09h242.966c10.5 0 19.086-8.59 19.086-19.09V100.09c0-10.5-8.586-19.09-19.086-19.09zm0 8.678h242.966c5.842 0 10.407 4.57 10.407 10.411v311.822c0 5.842-4.565 10.41-10.407 10.41H134.517c-5.842 0-10.407-4.568-10.407-10.41V100.089c0-5.842 4.565-10.41 10.407-10.41z"
   id="path3"
   style="fill:#0089b3;fill-opacity:1" />
  <path
   d="M165.214 133.392h77.804a16.635 16.635 0 0 1 16.673 16.67 16.635 16.635 0 0 1-16.673 16.672h-77.804a16.635 16.635 0 0 1-16.673-16.671 16.635 16.635 0 0 1 16.673-16.671m-9.729 94.745h186.181a6.93 6.93 0 0 1 6.944 6.943 6.93 6.93 0 0 1-6.944 6.943H155.485a6.93 6.93 0 0 1-6.944-6.943 6.93 6.93 0 0 1 6.944-6.943m0 46.628h186.181a6.93 6.93 0 0 1 6.944 6.944 6.93 6.93 0 0 1-6.944 6.943H155.485a6.93 6.93 0 0 1-6.944-6.943 6.93 6.93 0 0 1 6.944-6.944m0 46.629h186.181a6.93 6.93 0 0 1 6.944 6.943 6.93 6.93 0 0 1-6.944 6.943H155.485a6.93 6.93 0 0 1-6.944-6.943 6.93 6.93 0 0 1 6.944-6.943m0 46.629h186.181a6.93 6.93 0 0 1 6.944 6.943 6.93 6.93 0 0 1-6.944 6.943H155.485a6.93 6.93 0 0 1-6.944-6.943 6.93 6.93 0 0 1 6.944-6.943"
   fill="#8e857c"
   id="path4" />
  <path
   class="icon-secondary"
   fill="hsla(350, 75%, 50%, 1.00)"
   d="M377.351 380.453c-.728 1.402-14.156 1.99-15.078 3.264-.923 1.274 2.311 14.759 1.215 15.876s-14.102-2.41-15.348-1.474c-1.245.935-2 14.798-3.367 15.531s-12.795-6.596-14.253-6.082-6.135 13.525-7.65 13.809-10.352-10.197-11.893-10.15c-1.54.047-9.723 11.048-11.254 10.858s-6.988-12.891-8.474-13.315c-1.487-.424-12.449 7.59-13.858 6.942-1.408-.648-3.004-14.44-4.304-15.297s-14.067 3.458-15.23 2.41c-1.161-1.048 1.248-14.705.25-15.92-.999-1.215-14.437-.982-15.249-2.337-.812-1.354 5.388-13.664 4.78-15.129s-13.523-5.333-13.913-6.875c-.39-1.54 9.05-11.41 8.886-12.993-.163-1.583-11.407-9.212-11.34-10.803.067-1.59 11.907-8.14 12.203-9.703s-8.279-12.272-7.761-13.77c.518-1.5 13.707-4.15 14.435-5.551.728-1.402-4.414-14.242-3.491-15.516s14.288.212 15.384-.905-.157-14.945 1.089-15.88 13.6 4.553 14.967 3.82 4.114-14.321 5.571-14.836c1.458-.514 11.705 8.492 13.22 8.208 1.517-.284 8.02-12.425 9.56-12.472 1.54-.048 8.768 11.674 10.298 11.864s11.211-9.424 12.698-9c1.486.424 5.052 13.82 6.461 14.467s13.408-5.586 14.708-4.729.888 14.738 2.05 15.786 14.413-1.253 15.411-.038c.999 1.215-3.354 14.345-2.542 15.7s14.137 3.194 14.745 4.658-7.3 12.679-6.91 14.22 12.606 7.355 12.769 8.939-10.597 9.885-10.663 11.476c-.067 1.59 9.953 10.863 9.658 12.426-.296 1.562-12.952 6.214-13.47 7.713-.517 1.498 6.418 13.406 5.69 14.808"
   id="path5"
   style="fill:#df2040;fill-opacity:1" />
<path
   style="fill:#ffffff;stroke-linecap:round;stroke-linejoin:round;stroke-miterlimit:0"
   d="m 308.70508,289.20117 c -28.79099,1e-5 -52.14258,23.73015 -52.14258,52.92383 0,29.19368 23.35159,52.92382 52.14258,52.92383 28.79099,0 52.14062,-23.73015 52.14062,-52.92383 0,-29.19368 -23.34963,-52.92383 -52.14062,-52.92383 z m 0,3.5 c 26.8701,0 48.64062,22.09279 48.64062,49.42383 0,27.33104 -21.77052,49.42383 -48.64062,49.42383 -26.8701,-1e-5 -48.64258,-22.09279 -48.64258,-49.42383 0,-27.33104 21.77248,-49.42382 48.64258,-49.42383 z"
   id="path7" /><path
   id="rect7"
   style="fill:#ffffff;fill-opacity:1;stroke:none;stroke-width:0.755997;stroke-linecap:round;stroke-linejoin:round;stroke-miterlimit:0;stroke-dasharray:none;stroke-opacity:0.566613"
   d="m 335.80195,317.61066 c -1.28643,0 -2.572,0.4924 -3.55771,1.47777 l -34.19685,34.18482 -16.42676,-16.42711 c -1.97138,-1.97073 -5.14395,-1.97073 -7.11537,0 l -2.30638,2.3117 c -1.97142,1.97073 -1.97142,5.14218 0,7.11291 l 19.98446,19.9774 2.30635,2.3117 c 1.10893,1.10855 2.60036,1.59182 4.04228,1.45322 1.12151,-0.10793 2.21064,-0.59103 3.07313,-1.45322 l 2.31251,-2.3117 37.74839,-37.73512 c 1.97142,-1.97072 1.97142,-5.1483 0,-7.11903 l -2.30635,-2.30557 c -0.98571,-0.98537 -2.27132,-1.47777 -3.5577,-1.47777 z" /></svg>
