<?xml version="1.0" encoding="UTF-8" standalone="no"?>
<svg
   xml:space="preserve"
   viewBox="0 0 512 512"
   version="1.1"
   id="svg5"
   sodipodi:docname="MobileLogo-1.svg"
   inkscape:version="1.4 (86a8ad7, 2024-10-11)"
   xmlns:inkscape="http://www.inkscape.org/namespaces/inkscape"
   xmlns:sodipodi="http://sodipodi.sourceforge.net/DTD/sodipodi-0.dtd"
   xmlns="http://www.w3.org/2000/svg"
   xmlns:svg="http://www.w3.org/2000/svg"><defs
   id="defs5" /><sodipodi:namedview
   id="namedview5"
   pagecolor="#ffffff"
   bordercolor="#000000"
   borderopacity="0.25"
   inkscape:showpageshadow="2"
   inkscape:pageopacity="0.0"
   inkscape:pagecheckerboard="0"
   inkscape:deskcolor="#d1d1d1"
   inkscape:zoom="0.79589846"
   inkscape:cx="133.81104"
   inkscape:cy="219.24907"
   inkscape:window-width="1920"
   inkscape:window-height="1017"
   inkscape:window-x="-8"
   inkscape:window-y="-8"
   inkscape:window-maximized="1"
   inkscape:current-layer="svg5" />
  <path
   class="icon-background"
   fill="#ffffff00"
   d="M 0,0 H 512 V 512 H 0 Z"
   id="path1"
   style="display:none;fill:#0089b3;fill-opacity:0" />
  
  
  
  
<path
   style="display:inline;fill:#00c72e;fill-opacity:1;stroke:none;stroke-width:0.500001;stroke-linecap:round;stroke-linejoin:round;stroke-miterlimit:0;stroke-dasharray:none;stroke-opacity:0.851351"
   d="m 66.000002,371.09692 c 0,0 2.032687,-16.95541 6.684517,-27.76342 3.554806,-8.2592 7.567803,-15.58929 13.064199,-22.7 6.695463,-8.66195 11.91965,-16.07864 20.494952,-22.8753 8.58658,-6.80558 16.26256,-12.90936 26.21604,-17.47669 7.18208,-3.29563 14.26609,-6.98962 22.0195,-8.50288 33.37434,-6.51377 67.79165,-5.3639 101.68747,-8.04585 33.89581,-2.68196 68.09347,-2.78714 101.68746,-8.04586 6.84064,-1.07081 13.72482,-2.36107 20.21857,-4.76791 6.07007,-2.24982 11.84291,-5.36822 17.24523,-8.93985 7.28791,-4.81824 13.69245,-10.87514 20.21857,-16.68769 4.92533,-4.3868 9.35866,-8.93466 13.75159,-13.85674 2.82819,-3.16885 8.39961,-11.77079 8.39961,-11.77079 0,0 -3.49115,27.43508 -6.68994,39.93126 -3.0221,11.80594 -7.85813,23.48962 -13.365,34.35668 -5.02973,9.92548 -10.9449,18.72546 -18.60873,26.78336 -6.72945,7.07546 -14.23495,12.57833 -22.56115,17.66898 -6.35869,3.88768 -14.21954,7.86924 -21.48004,9.53582 -32.58149,7.47879 -65.16461,1.75386 -98.58789,2.10403 -33.42328,0.35015 -66.42758,-0.89672 -99.84937,-0.42453 -5.30625,0.0749 -12.24856,0.17802 -17.49374,0.98602 -8.98888,1.38471 -18.37139,3.02853 -26.74291,6.58983 -6.29171,2.67655 -12.671224,6.42266 -18.417621,10.13182 -6.800049,4.38926 -9.886424,6.92175 -16.350174,11.79475 -5.418388,4.0849 -11.541143,11.97496 -11.541143,11.97496 z"
   id="path52"
   sodipodi:nodetypes="cssssssssssscsssssssssssc" /><path
   style="display:inline;fill:#ef940a;fill-opacity:1;stroke:none;stroke-width:0.499998;stroke-linecap:round;stroke-linejoin:round;stroke-miterlimit:0;stroke-opacity:0.851351"
   d="m 69.614529,287.35618 c 0,0 3.655532,-39.00713 14.661132,-59.87464 11.677425,-22.14135 15.690915,-29.10336 36.611809,-43.55191 19.62052,-13.55047 46.9419,-18.4169 70.7157,-20.02381 29.6526,-2.00426 59.49287,3.71156 89.14401,1.68571 18.11657,-1.23777 35.45424,-5.19564 52.87671,-10.32498 15.29306,-4.50243 28.91144,-12.95792 44.67711,-17.48927 14.40569,-4.14046 29.62325,-6.2257 44.57202,-5.16249 7.25945,0.51632 23.12698,6.32142 23.12698,6.32142 0,0 -20.35498,8.57624 -31.5368,21.91426 -8.54433,10.19194 -16.60102,21.25973 -26.59604,30.02674 -7.08798,6.21713 -14.16029,12.91319 -22.81161,16.64642 -16.21278,6.99613 -34.82784,6.50888 -52.35109,8.63928 -25.3791,3.08549 -50.98288,4.07616 -76.5293,5.05713 -26.0528,1.00041 -53.90743,-3.42995 -79.84657,-0.79613 -8.80634,0.89419 -15.95738,2.79971 -24.28643,5.80212 -9.91561,3.57433 -15.22736,6.26435 -23.66446,12.59138 -8.570402,6.427 -22.128784,23.14312 -22.128784,23.14312 z"
   id="path53"
   sodipodi:nodetypes="cssssssscsssssssscc" /><path
   id="path54"
   style="color:#000000;font-style:normal;font-variant:normal;font-weight:normal;font-stretch:normal;font-size:medium;line-height:normal;font-family:sans-serif;font-variant-ligatures:normal;font-variant-position:normal;font-variant-caps:normal;font-variant-numeric:normal;font-variant-alternates:normal;font-variant-east-asian:normal;font-feature-settings:normal;font-variation-settings:normal;text-indent:0;text-align:start;text-decoration-line:none;text-decoration-style:solid;text-decoration-color:#000000;letter-spacing:normal;word-spacing:normal;text-transform:none;writing-mode:lr-tb;direction:ltr;text-orientation:mixed;dominant-baseline:auto;baseline-shift:baseline;text-anchor:start;white-space:normal;shape-padding:0;shape-margin:0;inline-size:0;clip-rule:nonzero;display:inline;overflow:visible;visibility:visible;isolation:auto;mix-blend-mode:normal;color-interpolation:sRGB;color-interpolation-filters:linearRGB;solid-color:#000000;solid-opacity:1;vector-effect:none;fill:#ffffff;fill-opacity:1;fill-rule:nonzero;stroke:none;stroke-width:0.999998;stroke-linecap:round;stroke-linejoin:round;stroke-miterlimit:0;stroke-dasharray:none;stroke-dashoffset:0;stroke-opacity:1;-inkscape-stroke:none;color-rendering:auto;image-rendering:auto;shape-rendering:auto;text-rendering:auto;enable-background:accumulate;stop-color:#000000"
   d="m 167.71482,95.307838 130.89836,0.3482 c 1.96987,1.143484 61.29596,60.499832 61.29596,60.499832 l 0.23807,185.2438 c 0.008,6.32203 -0.93796,9.33687 -9.12351,9.33687 l -183.30888,-2e-5 c -9.38913,0 -11.38604,-0.8918 -11.38605,-10.25361 l -1.8e-4,-233.76346 c -1e-5,-10.085558 1.12713,-11.438902 11.38623,-11.411612 z"
   sodipodi:nodetypes="sccssssss" /><path
   id="path55"
   style="color:#000000;font-style:normal;font-variant:normal;font-weight:normal;font-stretch:normal;font-size:medium;line-height:normal;font-family:sans-serif;font-variant-ligatures:normal;font-variant-position:normal;font-variant-caps:normal;font-variant-numeric:normal;font-variant-alternates:normal;font-variant-east-asian:normal;font-feature-settings:normal;font-variation-settings:normal;text-indent:0;text-align:start;text-decoration-line:none;text-decoration-style:solid;text-decoration-color:#000000;letter-spacing:normal;word-spacing:normal;text-transform:none;writing-mode:lr-tb;direction:ltr;text-orientation:mixed;dominant-baseline:auto;baseline-shift:baseline;text-anchor:start;white-space:normal;shape-padding:0;shape-margin:0;inline-size:0;clip-rule:nonzero;display:inline;overflow:visible;visibility:visible;isolation:auto;mix-blend-mode:normal;color-interpolation:sRGB;color-interpolation-filters:linearRGB;solid-color:#000000;solid-opacity:1;vector-effect:none;fill:#0318a6;fill-opacity:1;fill-rule:nonzero;stroke:none;stroke-width:0.999998;stroke-linecap:round;stroke-linejoin:round;stroke-miterlimit:0;stroke-dasharray:none;stroke-dashoffset:0;stroke-opacity:1;-inkscape-stroke:none;color-rendering:auto;image-rendering:auto;shape-rendering:auto;text-rendering:auto;enable-background:accumulate;stop-color:#000000"
   d="m 162.66508,95.307838 c -3.43084,3e-6 -6.33631,2.908563 -6.33631,6.347052 v 242.73122 c 3e-5,3.43847 2.90549,6.35043 6.33631,6.35043 H 353.8109 c 3.43079,-4e-5 6.33628,-2.91199 6.33631,-6.35043 V 159.66323 c -0.077,-0.0772 -0.30876,-0.31768 -0.39043,-0.39976 a 4.8959522,4.906867 0 0 0 -1.15781,-5.30921 L 329.17233,125.55395 300.58305,96.799522 a 4.8959522,4.906867 0 0 0 -1.96987,-1.143484 c -0.0646,-0.06985 -0.26794,-0.282131 -0.32887,-0.3482 z m 5.08659,11.448352 h 124.46871 v 50.73078 a 4.8959522,4.906867 0 0 0 4.89517,4.90693 h 51.60877 V 339.28818 H 167.75167 Z m 134.25988,5.3819 20.26033,20.37987 a 4.8959522,4.906867 0 0 0 0.0734,0.0701 l 20.71654,19.99279 h -41.0503 z" /><path
   id="path56"
   style="display:inline;fill:#504e4d;stroke-width:0.499998;stroke-linecap:round;stroke-linejoin:round;stroke-miterlimit:0"
   d="m 192.84697,132.12419 c -6.78022,0 -12.24116,5.46411 -12.24116,12.25944 0,6.79533 5.46094,12.26859 12.24116,12.26859 h 57.11018 c 6.78021,0 12.24115,-5.47326 12.24115,-12.26859 0,-6.79533 -5.46094,-12.25944 -12.24115,-12.25944 z m -4.08648,42.87606 c -4.52015,0 -8.15468,3.64274 -8.15468,8.17296 0,4.53023 3.63453,8.18211 8.15468,8.18211 h 130.548 c 4.52015,0 8.15467,-3.65188 8.15467,-8.18211 0,-4.53022 -3.63452,-8.17296 -8.15467,-8.17296 z m 0,29.94925 c -4.52015,0 -8.15468,3.64274 -8.15468,8.17296 0,4.53022 3.63453,8.1821 8.15468,8.1821 h 130.548 c 4.52015,0 8.15467,-3.65188 8.15467,-8.1821 0,-4.53022 -3.63452,-8.17296 -8.15467,-8.17296 z m 0,29.94924 c -4.52015,0 -8.15468,3.64274 -8.15468,8.17296 0,4.53022 3.63453,8.1821 8.15468,8.1821 h 130.548 c 4.52015,0 8.15467,-3.65188 8.15467,-8.1821 0,-4.53022 -3.63452,-8.17296 -8.15467,-8.17296 z m 0,29.94924 c -4.52015,0 -8.15468,3.6519 -8.15468,8.18212 0,4.53022 3.63453,8.17296 8.15468,8.17296 h 130.548 c 4.52015,0 8.15467,-3.64274 8.15467,-8.17296 0,-4.53022 -3.63452,-8.18212 -8.15467,-8.18212 z m 0,29.94926 c -4.52015,0 -8.15468,3.65188 -8.15468,8.1821 0,4.53022 3.63453,8.17296 8.15468,8.17296 h 130.548 c 4.52015,0 8.15467,-3.64274 8.15467,-8.17296 0,-4.53022 -3.63452,-8.1821 -8.15467,-8.1821 z" /><path
   id="path62"
   style="display:inline;fill:#ffffff;stroke-width:0.499998;stroke-linecap:round;stroke-linejoin:round;stroke-miterlimit:0"
   d="m 363.56344,293.71579 a 53.034179,53.152411 0 0 1 -53.03418,53.15241 53.034179,53.152411 0 0 1 -53.03418,-53.15241 53.034179,53.152411 0 0 1 53.03418,-53.15241 53.034179,53.152411 0 0 1 53.03418,53.15241 z" /><path
   style="display:inline;fill:#e70e0e;fill-opacity:1;stroke-width:0.999998;stroke-linecap:round;stroke-linejoin:round;stroke-miterlimit:0"
   d="m 308.16586,209.77919 c -1.61317,0.0494 -8.42279,12.79424 -10.01042,13.09217 -1.58761,0.29793 -12.31901,-9.15515 -13.84559,-8.61541 -1.52659,0.53971 -4.40311,14.80404 -5.83456,15.5735 -1.43145,0.76947 -14.37032,-4.99307 -15.67465,-4.01106 -1.30436,0.98201 0.008,15.49789 -1.14009,16.67051 -1.1481,1.17264 -15.14526,-0.38709 -16.11146,0.94996 -0.9662,1.33705 4.41829,14.81436 3.65556,16.28598 -0.76273,1.4716 -14.57503,4.25399 -15.11724,5.82729 -0.54222,1.57328 8.43699,12.81557 8.1274,14.45538 -0.30959,1.63982 -12.70883,8.51514 -12.77887,10.18486 -0.07,1.66973 11.70551,9.67786 11.87657,11.34018 0.17107,1.66233 -9.71464,12.02118 -9.30629,13.63899 0.40835,1.61779 13.93345,5.67957 14.56996,7.21671 0.63651,1.53711 -5.85607,14.45817 -5.00563,15.8803 0.85046,1.42213 14.92437,1.17725 15.96978,2.45262 1.0454,1.27534 -1.47839,15.61182 -0.2614,16.71193 1.217,1.10009 14.58815,-3.43063 15.94955,-2.53038 0.35068,0.23191 0.72236,1.38805 1.10553,2.9538 L 259.3559,406.384 c -0.90893,2.9447 2.60043,5.17729 4.79734,3.17943 l 20.73171,-18.85437 7.58856,24.31317 c 0.80426,2.5769 4.95517,2.08183 5.86408,-0.86288 l 14.72091,-47.69248 14.7209,47.69248 c 0.90891,2.94471 5.06069,3.43978 5.86493,0.86288 l 7.58856,-24.31317 20.73171,18.85437 c 2.19689,1.99786 5.70627,-0.23473 4.79734,-3.17943 l -15.61138,-50.5795 c -0.056,-0.18134 -0.13708,-0.34685 -0.20578,-0.52062 0.27585,-1.47625 0.56465,-2.54999 0.88545,-2.79152 1.30434,-0.98201 14.92456,2.7201 16.07266,1.54748 1.14809,-1.17265 -2.23869,-15.32756 -1.27249,-16.66461 0.9662,-1.33705 15.02829,-1.9546 15.79102,-3.42622 0.76273,-1.4716 -6.50074,-13.97151 -5.95853,-15.54479 0.54222,-1.57328 13.79657,-6.45586 14.10616,-8.09567 0.30957,-1.63983 -10.18503,-11.37426 -10.11497,-13.04399 0.07,-1.66973 11.33844,-10.38355 11.16738,-12.04588 -0.17106,-1.66233 -12.96418,-7.76586 -13.37253,-9.38366 -0.40834,-1.61781 7.87342,-13.38901 7.23692,-14.92614 -0.63651,-1.53714 -14.59145,-3.46789 -15.44191,-4.89002 -0.85045,-1.42213 3.70758,-15.20416 2.66219,-16.47951 -1.04541,-1.27536 -14.9223,1.13892 -16.13928,0.0389 -1.217,-1.10011 -0.78641,-15.66969 -2.14781,-16.56995 -1.36141,-0.90027 -13.92687,5.64471 -15.40226,4.96439 -1.47541,-0.68032 -5.21077,-14.74213 -6.76721,-15.18728 -1.55644,-0.44517 -11.69561,9.64796 -13.29832,9.44788 -1.60271,-0.20008 -9.1722,-12.50356 -10.78539,-12.45408 z m 2.36368,30.78448 a 53.034178,53.152409 0 0 1 53.0339,53.15212 53.034178,53.152409 0 0 1 -53.0339,53.15213 53.034178,53.152409 0 0 1 -53.03389,-53.15213 53.034178,53.152409 0 0 1 53.03389,-53.15212 z"
   id="path11" /><path
   id="path64"
   style="font-weight:900;font-size:10.5833px;line-height:0.9;font-family:Lato;-inkscape-font-specification:'Lato Heavy';display:inline;fill:#101010;stroke-width:2;stroke-linecap:round;stroke-linejoin:round;stroke-miterlimit:0"
   d="m 316.0448,247.97183 -0.61254,2.39521 3.87623,0.88676 -2.70603,10.64131 3.19969,0.73136 2.69691,-10.65043 3.8762,0.88676 0.61253,-2.3952 z m -9.49857,0.0731 c -0.2112,0.005 -0.42425,0.0147 -0.63995,0.0365 -0.77265,0.08 -1.44765,0.26985 -2.02037,0.55768 -0.57347,0.28172 -1.03877,0.62726 -1.40787,1.04218 -0.36912,0.41493 -0.63782,0.87337 -0.79535,1.37131 -0.15764,0.49795 -0.20406,0.99896 -0.14621,1.49928 0.0718,0.62236 0.21837,1.13658 0.44795,1.545 0.22888,0.40232 0.50904,0.73061 0.83192,0.98734 0.32856,0.24998 0.68489,0.44688 1.07878,0.58509 0.39315,0.13214 0.79988,0.23866 1.20673,0.31996 0.40614,0.0752 0.7946,0.14212 1.17933,0.20114 0.38469,0.0589 0.73765,0.13051 1.04218,0.22854 0.31099,0.0975 0.56512,0.23484 0.76792,0.4114 0.20285,0.17655 0.32062,0.42017 0.35654,0.73136 0.062,0.53694 -0.0571,0.94998 -0.35654,1.23417 -0.30019,0.27816 -0.74236,0.45059 -1.33472,0.51196 -0.43785,0.0455 -0.82571,0.0276 -1.16104,-0.0548 -0.33532,-0.0826 -0.63776,-0.18743 -0.90505,-0.3017 -0.26088,-0.11497 -0.50011,-0.2156 -0.71309,-0.31082 -0.20656,-0.0958 -0.40109,-0.12985 -0.59423,-0.10974 -0.14801,0.0164 -0.29033,0.0568 -0.41138,0.13706 -0.12108,0.0803 -0.20698,0.18453 -0.26512,0.30169 l -0.79537,1.54498 c 0.30716,0.2337 0.65322,0.4377 1.05133,0.61253 0.3981,0.17485 0.81833,0.31509 1.2616,0.42967 0.44256,0.10843 0.90159,0.18067 1.36216,0.21941 0.46703,0.0384 0.91517,0.0361 1.35302,-0.008 0.7984,-0.0828 1.49503,-0.26716 2.09352,-0.55765 0.60423,-0.29727 1.10182,-0.66551 1.481,-1.10619 0.38493,-0.44743 0.65941,-0.94815 0.82278,-1.50843 0.16328,-0.56031 0.20829,-1.14814 0.13724,-1.7644 -0.0641,-0.55527 -0.21347,-1.01779 -0.43883,-1.3896 -0.22607,-0.37792 -0.50404,-0.69777 -0.83192,-0.94163 -0.32145,-0.24452 -0.67844,-0.42921 -1.07876,-0.5668 -0.39387,-0.1382 -0.79919,-0.2508 -1.20675,-0.33826 -0.40825,-0.0934 -0.80574,-0.1733 -1.19759,-0.23768 -0.38612,-0.0712 -0.73122,-0.15848 -1.0422,-0.25597 -0.30453,-0.0981 -0.55806,-0.22573 -0.75878,-0.38399 -0.20063,-0.15815 -0.31631,-0.37146 -0.3474,-0.63992 -0.0486,-0.42102 0.0612,-0.76744 0.32911,-1.0422 0.27375,-0.28149 0.71392,-0.45765 1.32561,-0.5211 0.35412,-0.0366 0.67247,-0.0173 0.9599,0.0458 0.28673,0.0567 0.54276,0.12249 0.76792,0.21027 0.23162,0.0872 0.44369,0.17277 0.62166,0.24684 0.18372,0.0674 0.34557,0.0883 0.49367,0.0731 0.16735,-0.0173 0.29854,-0.0625 0.39311,-0.14637 0.10101,-0.0846 0.19459,-0.20922 0.27424,-0.36569 l 0.63997,-1.51756 c -0.27646,-0.19365 -0.5817,-0.36536 -0.92335,-0.50282 -0.33593,-0.14425 -0.69769,-0.25428 -1.07876,-0.33824 -0.3818,-0.0899 -0.77848,-0.14638 -1.19761,-0.1646 -0.20669,-0.0114 -0.41959,-0.0147 -0.63078,-0.008 z m -15.09348,4.50702 c -0.23687,0.007 -0.47944,0.0343 -0.72221,0.0641 -0.96863,0.11006 -1.93046,0.41876 -2.88888,0.93249 -0.95841,0.51374 -1.74196,1.13738 -2.34949,1.86498 -0.60753,0.72758 -1.035,1.5039 -1.27989,2.34035 -0.23932,0.83343 -0.29731,1.6944 -0.17372,2.58718 0.12924,0.88978 0.44691,1.76133 0.95076,2.60549 0.50384,0.84411 1.12684,1.54838 1.86496,2.1118 0.74379,0.56037 1.55157,0.95718 2.43179,1.1976 0.88267,0.23212 1.80812,0.29227 2.77917,0.17363 0.97107,-0.11857 1.9396,-0.43706 2.89802,-0.95077 0.95843,-0.51373 1.73846,-1.13126 2.34036,-1.85582 0.60751,-0.7276 1.0315,-1.50691 1.27074,-2.34036 0.23608,-0.83878 0.28466,-1.70655 0.15552,-2.59634 -0.12353,-0.89278 -0.43779,-1.76134 -0.94163,-2.60547 -0.50066,-0.83877 -1.12121,-1.53312 -1.86498,-2.09351 -0.73812,-0.56342 -1.54561,-0.96254 -2.42263,-1.19762 -0.65777,-0.1763 -1.33715,-0.26028 -2.04782,-0.23769 z m 40.55398,0.3474 -6.95707,11.68351 2.8706,1.53586 6.96623,-11.68351 z m -40.43513,2.3495 c 0.25375,0.0263 0.49826,0.0828 0.7405,0.16459 0.49015,0.16044 0.95431,0.43345 1.3896,0.81364 0.43209,0.37485 0.81663,0.84915 1.16104,1.42616 0.34756,0.58233 0.58434,1.14186 0.70393,1.69127 0.1157,0.54409 0.11668,1.0643 0.008,1.54499 -0.10182,0.47772 -0.31352,0.91582 -0.63995,1.31646 -0.32959,0.39528 -0.76957,0.7399 -1.31644,1.03304 -0.55248,0.29616 -1.0943,0.47235 -1.62728,0.53939 -0.53051,0.0586 -1.03657,0.0147 -1.52672,-0.14637 -0.4845,-0.16339 -0.94835,-0.43881 -1.38044,-0.81366 -0.43529,-0.3802 -0.82258,-0.86208 -1.17019,-1.44444 -0.34438,-0.57697 -0.57837,-1.13803 -0.69478,-1.68212 -0.11945,-0.54943 -0.12924,-1.05817 -0.0274,-1.53586 0.10738,-0.48071 0.33178,-0.92495 0.65823,-1.32558 0.33206,-0.40365 0.77309,-0.75519 1.32559,-1.05134 0.54686,-0.29314 1.07849,-0.4624 1.609,-0.52109 0.26525,-0.0294 0.53244,-0.0353 0.78619,-0.008 z m 48.47099,2.50492 -9.82768,9.65395 6.1343,5.6132 1.8284,-1.79182 -3.77566,-3.44655 8.00843,-7.86213 z m -62.51312,5.91488 c -0.29874,-0.002 -0.59165,0.0262 -0.89592,0.0913 -0.60475,0.12577 -1.21118,0.39735 -1.81925,0.8228 -0.60955,0.41686 -1.2113,1.014 -1.79185,1.78268 l -2.90716,3.84879 11.51894,7.80729 1.91069,-2.53234 -3.8488,-2.60547 0.99649,-1.32559 c 0.56923,-0.75368 0.96341,-1.46158 1.18845,-2.13924 0.22364,-0.68623 0.29959,-1.32826 0.22856,-1.91982 -0.071,-0.59159 -0.28342,-1.13666 -0.6308,-1.63642 -0.34735,-0.49978 -0.80632,-0.94538 -1.38046,-1.33475 -0.53197,-0.36082 -1.08656,-0.60854 -1.67297,-0.74965 -0.29321,-0.0707 -0.59718,-0.10696 -0.89592,-0.10974 z m -0.54852,2.95287 c 0.13544,0.005 0.266,0.0281 0.40226,0.0641 0.27248,0.0715 0.54111,0.19621 0.80447,0.37483 0.59516,0.40367 0.94727,0.85675 1.06049,1.37128 0.11325,0.51459 -0.0783,1.10557 -0.57595,1.76444 l -0.99647,1.31643 -3.64768,-2.47748 0.99649,-1.31646 c 0.24127,-0.31944 0.49196,-0.5589 0.74964,-0.73136 0.26145,-0.17743 0.52424,-0.29568 0.79535,-0.33825 0.13479,-0.0255 0.27586,-0.0325 0.4114,-0.0275 z m 72.74304,1.38958 -12.49716,6.30799 4.01335,7.13079 2.31294,-1.17019 -2.46835,-4.38818 10.18421,-5.12865 z m -69.03138,10.97956 -14.97463,2.3495 -0.68565,3.11743 12.74397,7.81643 0.52111,-2.37693 c 0.0555,-0.25238 0.0372,-0.47469 -0.064,-0.67651 -0.10754,-0.20307 -0.24704,-0.35283 -0.41138,-0.44795 l -2.24895,-1.25246 1.09704,-5.00068 2.58719,-0.29254 c 0.21746,-0.0262 0.41496,-0.11399 0.58509,-0.25599 0.16504,-0.14932 0.28012,-0.35725 0.33826,-0.62164 z m 74.98282,1.7827 -13.96901,2.15751 1.46274,8.52037 2.49575,-0.38396 -0.93247,-5.43038 3.32769,-0.51195 0.71307,4.15963 2.39522,-0.36569 -0.71309,-4.16875 3.26371,-0.50282 0.93249,5.43952 2.49576,-0.38399 z m -81.34567,2.02039 -0.78621,3.59281 -3.51053,-1.95638 c -0.22115,-0.13787 -0.48807,-0.28985 -0.79535,-0.45711 -0.30728,-0.16721 -0.63995,-0.33944 -1.00563,-0.51195 0.40293,-0.0272 0.78145,-0.0545 1.13359,-0.0913 0.34721,-0.0443 0.64694,-0.0885 0.90508,-0.1189 z m 3.46483,18.4943 -9.30658,12.08574 1.41702,2.63291 14.72779,-2.02954 -1.27075,-2.35864 c -0.12989,-0.24094 -0.305,-0.40144 -0.5211,-0.49366 -0.21061,-0.0953 -0.40935,-0.13346 -0.59422,-0.10058 l -7.725,1.37131 c -0.33603,0.0613 -0.6993,0.1346 -1.0879,0.2194 -0.38551,0.0904 -0.78233,0.1965 -1.18846,0.32912 0.31027,-0.31058 0.60049,-0.61495 0.86849,-0.92335 0.27112,-0.30267 0.5189,-0.59486 0.7405,-0.86849 l 5.11953,-6.19829 c 0.14442,-0.17536 0.2327,-0.37815 0.25598,-0.60337 0.0232,-0.22521 -0.0377,-0.46058 -0.17374,-0.71308 z m 68.77538,0.17363 c -0.66539,0.0291 -1.30518,0.16407 -1.91981,0.40224 -0.8195,0.31771 -1.57723,0.81047 -2.26723,1.49015 -0.68729,0.67371 -1.26199,1.51975 -1.71868,2.53235 l -2.27638,5.05553 12.46971,6.13429 2.27637,-5.06469 c 0.45662,-1.01257 0.72086,-2.00092 0.78621,-2.98028 0.0622,-0.98816 -0.0507,-1.91749 -0.33826,-2.77918 -0.2933,-0.86447 -0.74825,-1.64575 -1.36216,-2.34034 -0.61693,-0.70338 -1.37473,-1.27566 -2.27636,-1.71871 -0.89596,-0.44026 -1.79927,-0.68602 -2.70603,-0.73136 -0.22744,-0.0147 -0.44557,-0.01 -0.66738,0 z m -0.63078,3.21798 c 0.26413,-0.0177 0.54605,-0.002 0.83192,0.0365 0.57169,0.0772 1.16636,0.26396 1.78268,0.5668 0.62203,0.30565 1.14205,0.66802 1.56328,1.07877 0.42128,0.41073 0.73592,0.85713 0.94163,1.34387 0.20282,0.478 0.29022,0.99063 0.27428,1.53586 -0.0217,0.54242 -0.15992,1.10434 -0.42054,1.68213 l -0.91421,2.0204 -8.01755,-3.94021 0.9142,-2.0204 c 0.2606,-0.57777 0.58573,-1.04771 0.97821,-1.40787 0.38679,-0.36292 0.81952,-0.62006 1.3073,-0.75878 0.24241,-0.0738 0.49467,-0.11956 0.7588,-0.13706 z m -8.71236,7.56045 -6.37198,6.44513 9.59912,10.33047 6.37198,-6.45425 -1.70954,-1.83756 -4.0682,4.1139 -2.28552,-2.46833 3.11744,-3.14486 -1.64558,-1.77354 -3.11741,3.15399 -2.2398,-2.4135 4.06819,-4.1139 z m -51.56095,2.23067 -8.86778,11.0161 6.79252,5.96061 1.59072,-1.96554 -4.33332,-3.80306 2.11179,-2.62377 3.31857,2.9163 1.51756,-1.8924 -3.31853,-2.90716 2.06609,-2.57806 4.33332,3.8031 1.58156,-1.96555 z m 42.15381,6.07028 -2.82487,1.59071 6.52741,12.67083 2.83402,-1.59071 z m -33.77973,0.95077 -4.76301,13.49363 2.9986,1.16103 1.76441,-5.00069 0.75878,0.29253 c 0.23069,0.089 0.39545,0.19807 0.49366,0.32 0.10411,0.12429 0.17675,0.2934 0.21027,0.5028 l 0.75878,4.7447 c 0.0795,0.47958 0.37459,0.81209 0.87765,1.00563 l 2.71518,1.05132 -1.09704,-5.75947 c -0.0517,-0.27246 -0.13299,-0.51775 -0.256,-0.7405 -0.117,-0.22044 -0.25637,-0.42093 -0.42052,-0.60337 0.47912,-0.005 0.92355,-0.0829 1.33473,-0.2194 0.41711,-0.1341 0.7899,-0.32364 1.12447,-0.56681 0.34269,-0.24702 0.6369,-0.54088 0.88678,-0.88678 0.24989,-0.34592 0.45763,-0.74073 0.61251,-1.17931 0.20296,-0.57449 0.29141,-1.13956 0.27426,-1.70042 -0.0178,-0.56087 -0.17266,-1.09821 -0.46623,-1.61813 -0.28779,-0.51769 -0.72342,-1.00091 -1.31645,-1.45359 -0.58493,-0.45659 -1.35045,-0.86528 -2.28552,-1.22503 z m 28.36767,2.12095 -8.66663,2.00209 2.98943,14.05129 3.13572,-0.73136 -1.16104,-5.46693 4.59842,-1.06046 -0.53023,-2.5232 -4.60756,1.0696 -0.74965,-3.55622 5.52178,-1.27991 z m -26.19188,1.3713 1.20674,0.46625 c 0.7753,0.29826 1.28674,0.68629 1.53587,1.16103 0.25515,0.47701 0.2734,1.01598 0.064,1.609 -0.10476,0.29649 -0.23694,0.55865 -0.41138,0.78621 -0.17232,0.22134 -0.38886,0.39101 -0.63995,0.51196 -0.25109,0.12087 -0.53924,0.17412 -0.86849,0.17364 -0.32114,-0.003 -0.68868,-0.0806 -1.09704,-0.23768 l -1.20675,-0.46627 z m 10.77843,0.37483 -0.78621,14.37125 3.218,0.19197 0.77708,-14.37125 z" /><path
   id="path66"
   style="display:inline;fill:#0318a6;fill-opacity:1;stroke:none;stroke-width:0.499998;stroke-linecap:round;stroke-linejoin:round;stroke-miterlimit:0;stroke-dasharray:none;stroke-opacity:1"
   d="m 329.88,275.78624 c -0.88167,0 -1.7633,0.33826 -2.4389,1.01532 l -23.42605,23.47829 -10.21667,-10.23943 c -1.59243,-1.59598 -4.15629,-1.59598 -5.74874,0 l -0.68984,0.69139 c -1.59244,1.59598 -1.59244,4.16557 0,5.76155 l 13.56749,13.59772 c 0.2833,0.28395 0.5983,0.51509 0.93216,0.698 1.35793,1.19086 3.40882,1.14067 4.70415,-0.15749 l 27.31609,-27.37703 c 1.35115,-1.35414 1.35115,-3.53447 0,-4.88865 l -1.56082,-1.5643 c -0.67557,-0.67708 -1.55721,-1.01534 -2.43887,-1.01534 z" /></svg>
