<?xml version="1.0" encoding="UTF-8" standalone="no"?>
<svg
   width="400"
   height="400"
   viewBox="0 0 200 200"
   version="1.1"
   id="svg5"
   sodipodi:docname="AsstroWEB-icon.svg"
   inkscape:version="1.4 (86a8ad7, 2024-10-11)"
   inkscape:export-filename="nviewsWEB-new-logo.png"
   inkscape:export-xdpi="96"
   inkscape:export-ydpi="96"
   xmlns:inkscape="http://www.inkscape.org/namespaces/inkscape"
   xmlns:sodipodi="http://sodipodi.sourceforge.net/DTD/sodipodi-0.dtd"
   xmlns="http://www.w3.org/2000/svg"
   xmlns:svg="http://www.w3.org/2000/svg">
  <defs
     id="defs5">
    <inkscape:path-effect
       effect="fillet_chamfer"
       id="path-effect7"
       is_visible="true"
       lpeversion="1"
       nodesatellites_param="F,0,0,1,0,0,0,1 @ F,0,0,1,0,13.690102,0,1 @ F,0,0,1,0,0,0,1 @ F,0,0,1,0,11.287897,0,1"
       radius="0"
       unit="px"
       method="auto"
       mode="F"
       chamfer_steps="1"
       flexible="false"
       use_knot_distance="true"
       apply_no_radius="true"
       apply_with_radius="true"
       only_selected="false"
       hide_knots="false" />
    <inkscape:path-effect
       effect="fillet_chamfer"
       id="path-effect6"
       is_visible="true"
       lpeversion="1"
       nodesatellites_param="F,0,0,1,0,0,0,1 @ F,0,0,1,0,7.8621774,0,1 @ F,0,0,1,0,0,0,1 @ F,0,0,1,0,9.6636678,0,1"
       radius="0"
       unit="px"
       method="auto"
       mode="F"
       chamfer_steps="1"
       flexible="false"
       use_knot_distance="true"
       apply_no_radius="true"
       apply_with_radius="true"
       only_selected="false"
       hide_knots="false" />
  </defs>
  <sodipodi:namedview
     id="namedview5"
     pagecolor="#ffffff"
     bordercolor="#000000"
     borderopacity="0.25"
     inkscape:showpageshadow="2"
     inkscape:pageopacity="0.0"
     inkscape:pagecheckerboard="0"
     inkscape:deskcolor="#d1d1d1"
     inkscape:zoom="0.65777778"
     inkscape:cx="-93.496621"
     inkscape:cy="356.50338"
     inkscape:window-width="1920"
     inkscape:window-height="1017"
     inkscape:window-x="-8"
     inkscape:window-y="-8"
     inkscape:window-maximized="1"
     inkscape:current-layer="svg5" />
  <path
     fill="#ffffff"
     d="M 2.826524e-8,-2.1249999e-7 H 200 V 200 H 2.826524e-8 Z"
     id="path1"
     style="stroke-width:0.544331"
     inkscape:export-filename="path1-COL.png"
     inkscape:export-xdpi="96"
     inkscape:export-ydpi="96" />
  <path
     id="rect1"
     style="fill:#a55aff;fill-opacity:1;stroke:#9c3d0f;stroke-width:0;stroke-linecap:round;stroke-linejoin:round"
     d="M 28.828125,20 C 23.937246,20 20,24.279068 20,29.594727 V 168.07422 l 25,-25 V 56 c 0,-6.093766 4.906234,-11 11,-11 h 87.07422 l 25,-25 z M 179.97363,29.313477 154.87402,54.413086 C 154.94863,54.932327 155,55.459471 155,56 v 88 c 0,6.09377 -4.90623,11 -11,11 H 56 c -0.540529,0 -1.067673,-0.0514 -1.586914,-0.12598 L 29.287109,180 H 171.17188 C 176.06275,180 180,175.72092 180,170.40527 V 29.594727 c 0,-0.09642 -0.0239,-0.185533 -0.0264,-0.28125 z"
     inkscape:label="outer-orange" />
  <path
     id="rect1-4-5-6"
     style="display:inline;fill:#081ea6;fill-opacity:1;stroke:#9c3d0f;stroke-width:0;stroke-linecap:round;stroke-linejoin:round"
     d="M 140.03418,55 C 142.7853,55 145,57.406976 145,60.397034 v 77.894716 l -14.0625,-14.0625 V 75.25 c 0,-3.427743 -2.75976,-6.1875 -6.1875,-6.1875 H 75.770751 L 61.708251,55 Z m -85.019346,5.238831 14.11853,14.11853 C 69.091396,74.649434 69.0625,74.945952 69.0625,75.25 v 49.5 c 0,3.42775 2.759755,6.1875 6.1875,6.1875 h 49.5 c 0.30405,0 0.60056,-0.0289 0.89264,-0.0709 L 139.776,145 H 59.965818 C 57.214704,145 55,142.59302 55,139.60296 V 60.397034 c 0,-0.05423 0.01344,-0.104362 0.01485,-0.158203 z"
     inkscape:label="inner-blue" />
</svg>
