<svg xmlns="http://www.w3.org/2000/svg" width="400" height="100"><path fill="none" d="M0 0h400v100H0Z"/><g><path fill="none" d="M0 0h100v100H0Z"/><path fill="#a55aff" d="M14.414 10C11.97 10 10 12.14 10 14.797v69.24l12.5-12.5V28c0-3.047 2.453-5.5 5.5-5.5h43.537l12.5-12.5zm75.573 4.657-12.55 12.55c.037.26.063.523.063.793v44c0 3.047-2.453 5.5-5.5 5.5H28c-.27 0-.534-.026-.793-.063L14.644 90h70.942C88.03 90 90 87.86 90 85.203V14.797c0-.048-.012-.092-.013-.14"/><path fill="#0516b9" d="M70.017 27.5c1.376 0 2.483 1.203 2.483 2.699v38.947l-7.031-7.031v-24.49a3.087 3.087 0 0 0-3.094-3.094h-24.49l-7.03-7.031zm-42.51 2.62 7.06 7.059a3 3 0 0 0-.036.446v24.75a3.087 3.087 0 0 0 3.094 3.094h24.75c.152 0 .3-.015.446-.036l7.067 7.067H29.983c-1.376 0-2.483-1.203-2.483-2.699V30.2c0-.028.006-.053.007-.08"/></g><path d="M148.73 70.544h-7.596q-1.275 0-2.116-.57-.812-.6-1.13-1.512l-2.494-7.242h-16.061l-2.494 7.242q-.29.799-1.13 1.455-.841.627-2.059.627h-7.653L122.347 29h10.032zm-27.136-15.882h11.539l-3.885-11.377q-.377-1.083-.899-2.538-.493-1.482-.986-3.193-.463 1.74-.956 3.222-.493 1.483-.928 2.566zm48.938-7.214q-.348.542-.754.77-.377.228-.986.228-.638 0-1.275-.257-.638-.285-1.392-.598-.725-.314-1.652-.57-.928-.286-2.117-.286-1.71 0-2.638.656-.899.627-.899 1.768 0 .827.58 1.368.609.542 1.595.97.985.4 2.232.77t2.551.827q1.305.456 2.551 1.083 1.247.599 2.233 1.511.985.884 1.565 2.167.61 1.284.61 3.08 0 2.195-.813 4.049-.811 1.853-2.435 3.193-1.594 1.34-3.972 2.082-2.348.741-5.421.741-1.537 0-3.073-.285t-2.986-.77q-1.421-.485-2.639-1.14-1.217-.685-2.087-1.455l2.087-3.25q.377-.57.9-.884.52-.342 1.362-.342.782 0 1.391.342.638.342 1.363.741.725.4 1.681.742.986.342 2.465.342 1.043 0 1.768-.2.725-.228 1.16-.599.435-.37.638-.827t.203-.94q0-.884-.61-1.455-.608-.57-1.594-.97-.986-.427-2.261-.769-1.247-.37-2.551-.827t-2.58-1.083q-1.247-.656-2.233-1.626-.986-.998-1.595-2.423-.608-1.426-.608-3.45 0-1.882.724-3.564.754-1.711 2.233-2.994 1.478-1.283 3.71-2.025 2.233-.77 5.22-.77 1.623 0 3.13.285 1.537.286 2.87.799t2.436 1.226q1.101.684 1.942 1.511zM188.217 71q-2.146 0-3.798-.599-1.624-.627-2.754-1.74-1.102-1.14-1.682-2.736t-.58-3.565V47.077h-2.551q-.696 0-1.189-.427-.493-.457-.493-1.312v-3.45l4.784-.912 1.769-7.214q.347-1.369 1.97-1.369h4.698v8.64h7.305v6.044h-7.305v14.685q0 1.026.492 1.71.522.656 1.479.656.493 0 .812-.085.348-.114.58-.228.26-.143.463-.228.232-.114.522-.114.406 0 .638.2.261.17.522.57l2.725 4.19q-1.74 1.284-3.914 1.94-2.174.627-4.493.627m12.64-.456V40.976h5.334q.667 0 1.102.114.464.114.754.37.319.228.464.628.174.399.29.969l.492 2.766q1.653-2.51 3.711-3.964 2.059-1.454 4.494-1.454 2.058 0 3.305.97l-1.16 6.5q-.116.6-.463.856-.348.228-.928.228-.493 0-1.16-.114-.667-.142-1.681-.142-3.537 0-5.567 3.706v18.135zm37.341-30.025q3.421 0 6.233 1.055t4.813 3.023q2.03 1.967 3.13 4.79 1.132 2.794 1.132 6.301 0 3.536-1.131 6.387-1.102 2.823-3.131 4.82-2 1.967-4.813 3.05Q241.62 71 238.198 71q-3.45 0-6.291-1.055-2.812-1.083-4.87-3.05-2.03-1.997-3.16-4.82-1.103-2.851-1.103-6.387 0-3.507 1.102-6.301 1.13-2.823 3.16-4.79 2.059-1.968 4.87-3.023 2.842-1.055 6.292-1.055m0 23.923q3.102 0 4.552-2.139 1.478-2.167 1.478-6.558 0-4.39-1.478-6.53-1.45-2.138-4.552-2.138-3.19 0-4.668 2.139t-1.478 6.53 1.478 6.557q1.479 2.139 4.668 2.139M255.245 29h8.234q1.275 0 2.116.57.87.57 1.13 1.511l5.799 21.67q.29 1.056.58 2.253t.435 2.51q.29-1.34.637-2.51.348-1.197.667-2.252l6.842-21.67q.261-.799 1.102-1.426.87-.656 2.087-.656h2.9q1.275 0 2.087.57.84.542 1.16 1.511l6.784 21.67q.318.998.666 2.139.348 1.112.61 2.395.231-1.254.463-2.395.261-1.14.522-2.138l5.798-21.67q.232-.827 1.102-1.455.87-.627 2.087-.627h7.712l-13.046 41.544h-8.872l-7.943-25.748q-.203-.598-.435-1.311-.203-.713-.406-1.511-.203.798-.435 1.51-.203.714-.406 1.312l-8.06 25.748h-8.87zm92.483 0v7.413H330.39v9.695h13.278v7.128H330.39v9.894h17.337v7.414h-27.194V29Zm5.566 41.544V29h15.54q4.378 0 7.45.798 3.074.799 5.016 2.253t2.812 3.536q.9 2.081.9 4.647 0 1.397-.407 2.709-.406 1.283-1.275 2.424-.87 1.14-2.233 2.081-1.362.912-3.276 1.597 4.175.998 6.175 3.25 2 2.224 2 5.731 0 2.652-1.043 4.933-1.044 2.281-3.073 3.992-2 1.682-4.958 2.652-2.957.94-6.755.94zm9.8-17.621v10.35h6.9q1.942 0 3.16-.485 1.246-.485 1.942-1.254.696-.77.957-1.74.26-.97.26-1.967 0-1.14-.318-2.053-.29-.912-1.044-1.54-.725-.627-1.942-.97-1.218-.341-3.074-.341zm0-6.444h5.102q1.624 0 2.928-.228 1.305-.229 2.203-.799.928-.57 1.392-1.568.493-.998.493-2.51 0-1.482-.377-2.451-.377-.998-1.16-1.597t-2-.856q-1.189-.256-2.841-.256h-5.74z" fill="#0516b9"/></svg>