<?xml version="1.0" encoding="UTF-8" standalone="no"?>
<svg
   width="400"
   height="100"
   viewBox="0 0 400 100"
   version="1.1"
   id="svg5"
   sodipodi:docname="new-astroWEB-logo-color.svg"
   inkscape:version="1.4 (86a8ad7, 2024-10-11)"
   inkscape:export-filename="nviewsWEB-new-logo.png"
   inkscape:export-xdpi="96"
   inkscape:export-ydpi="96"
   xmlns:inkscape="http://www.inkscape.org/namespaces/inkscape"
   xmlns:sodipodi="http://sodipodi.sourceforge.net/DTD/sodipodi-0.dtd"
   xmlns:xlink="http://www.w3.org/1999/xlink"
   xmlns="http://www.w3.org/2000/svg"
   xmlns:svg="http://www.w3.org/2000/svg">
  <defs
     id="defs5">
    <linearGradient
       id="linearGradient8"
       inkscape:collect="always">
      <stop
         style="stop-color:#4ae3ff;stop-opacity:0;"
         offset="0"
         id="stop9" />
      <stop
         style="stop-color:#08df9c;stop-opacity:0;"
         offset="0.5"
         id="stop10" />
      <stop
         style="stop-color:#4ae3ff;stop-opacity:0;"
         offset="1"
         id="stop8" />
    </linearGradient>
    <inkscape:path-effect
       effect="fillet_chamfer"
       id="path-effect7"
       is_visible="true"
       lpeversion="1"
       nodesatellites_param="F,0,0,1,0,0,0,1 @ F,0,0,1,0,13.690102,0,1 @ F,0,0,1,0,0,0,1 @ F,0,0,1,0,11.287897,0,1"
       radius="0"
       unit="px"
       method="auto"
       mode="F"
       chamfer_steps="1"
       flexible="false"
       use_knot_distance="true"
       apply_no_radius="true"
       apply_with_radius="true"
       only_selected="false"
       hide_knots="false" />
    <inkscape:path-effect
       effect="fillet_chamfer"
       id="path-effect6"
       is_visible="true"
       lpeversion="1"
       nodesatellites_param="F,0,0,1,0,0,0,1 @ F,0,0,1,0,7.8621774,0,1 @ F,0,0,1,0,0,0,1 @ F,0,0,1,0,9.6636678,0,1"
       radius="0"
       unit="px"
       method="auto"
       mode="F"
       chamfer_steps="1"
       flexible="false"
       use_knot_distance="true"
       apply_no_radius="true"
       apply_with_radius="true"
       only_selected="false"
       hide_knots="false" />
    <linearGradient
       inkscape:collect="always"
       xlink:href="#linearGradient8"
       id="linearGradient9"
       x1="1.1306099e-07"
       y1="50"
       x2="500"
       y2="50"
       gradientUnits="userSpaceOnUse" />
  </defs>
  <sodipodi:namedview
     id="namedview5"
     pagecolor="#ffffff"
     bordercolor="#000000"
     borderopacity="0.25"
     inkscape:showpageshadow="2"
     inkscape:pageopacity="0.0"
     inkscape:pagecheckerboard="0"
     inkscape:deskcolor="#d1d1d1"
     inkscape:zoom="1.3155556"
     inkscape:cx="275.54898"
     inkscape:cy="33.826012"
     inkscape:window-width="1920"
     inkscape:window-height="1017"
     inkscape:window-x="-8"
     inkscape:window-y="-8"
     inkscape:window-maximized="1"
     inkscape:current-layer="svg5" />
  <path
     fill="#ffffff"
     d="M 9.0448776e-8,-1.0624999e-6 H 400 V 99.999999 H 9.0448776e-8 Z"
     id="path1"
     style="fill:url(#linearGradient9);fill-opacity:0;stroke-width:0.860664"
     inkscape:export-filename="path1-COL.png"
     inkscape:export-xdpi="96"
     inkscape:export-ydpi="96"
     inkscape:label="wrapper" />
  <g
     id="g5"
     transform="translate(0.86366809,0.51692794)">
    <g
       id="g6"
       transform="matrix(0.5,0,0,0.5,27.068141,-2.258465)"
       style="stroke-width:2">
      <path
         fill="#ffffff"
         d="M -55.863617,3.4830743 H 144.13638 V 203.48307 H -55.863617 Z"
         id="path1-8"
         style="fill:#f7f7f7;fill-opacity:0;stroke-width:1.08866"
         inkscape:export-filename="path1-COL.png"
         inkscape:export-xdpi="96"
         inkscape:export-ydpi="96" />
      <path
         id="rect1"
         style="fill:#a55aff;fill-opacity:1;stroke:#9c3d0f;stroke-width:0;stroke-linecap:round;stroke-linejoin:round"
         d="m -27.035517,23.483077 c -4.8909,0 -8.8281,4.279068 -8.8281,9.594727 V 171.55729 l 25,-25 V 59.483077 c 0,-6.093766 4.9062,-11 11,-11 h 87.074198 l 24.999999,-25 z M 124.10998,32.796554 99.010381,57.896163 c 0.075,0.519241 0.126,1.046385 0.126,1.586914 v 87.999993 c 0,6.09377 -4.9062,11 -11,11 H 0.136383 c -0.5405,0 -1.0677,-0.0514 -1.5869,-0.12598 l -25.126,25.12598 H 115.30828 c 4.8909,0 8.8281,-4.27908 8.8281,-9.59473 V 33.077804 c 0,-0.09642 -0.024,-0.185533 -0.026,-0.28125 z"
         inkscape:label="outer-orange" />
      <path
         id="rect1-4-5-6"
         style="display:inline;fill:#0516b9;fill-opacity:1;stroke:#9c3d0f;stroke-width:0;stroke-linecap:round;stroke-linejoin:round"
         d="m 84.170632,58.483077 c 2.7511,0 4.9658,2.406976 4.9658,5.397034 v 77.894709 l -14.0625,-14.0625 V 78.733077 c 0,-3.427743 -2.7598,-6.1875 -6.1875,-6.1875 h -48.9792 l -14.0625,-14.0625 z M -0.84876798,63.721908 13.269832,77.840438 c -0.042,0.292073 -0.071,0.588591 -0.071,0.892639 v 49.499993 c 0,3.42775 2.7598,6.1875 6.1875,6.1875 h 49.5 c 0.304,0 0.6006,-0.0289 0.8926,-0.0709 l 14.1334,14.1334 h -79.8102 c -2.7511,0 -4.96579998,-2.40698 -4.96579998,-5.39704 V 63.880111 c 0,-0.05423 0.013,-0.104362 0.015,-0.158203 z"
         inkscape:label="inner-blue" />
    </g>
    <g
       id="text2"
       style="font-weight:900;font-size:57.5028px;line-height:0.9;font-family:Lato;-inkscape-font-specification:'Lato Heavy';fill:#0516b9;stroke:#9c3d0f;stroke-width:0;stroke-linecap:round;stroke-linejoin:round"
       transform="scale(1.008352,0.99171717)"
       aria-label="AstroWEB">
      <path
         d="m 146.64172,70.61174 h -7.53287 q -1.26506,0 -2.09885,-0.575028 -0.80504,-0.603779 -1.12131,-1.523824 l -2.47262,-7.302856 H 117.4878 l -2.47262,7.302856 q -0.28752,0.805039 -1.12131,1.466321 -0.83379,0.632531 -2.04135,0.632531 h -7.59037 l 16.21579,-41.89079 h 9.94799 z M 119.73041,54.59721 h 11.44305 l -3.85268,-11.471808 q -0.37377,-1.092553 -0.8913,-2.558875 -0.48877,-1.495073 -0.97754,-3.220157 -0.46003,1.753836 -0.9488,3.248909 -0.48877,1.495072 -0.92005,2.587626 z m 48.53233,-7.274104 q -0.34501,0.546277 -0.74753,0.776288 -0.37377,0.230011 -0.97755,0.230011 -0.63253,0 -1.26506,-0.258762 -0.63253,-0.287514 -1.38007,-0.60378 -0.71879,-0.316265 -1.63883,-0.575028 -0.92005,-0.287514 -2.09885,-0.287514 -1.69634,0 -2.61638,0.661282 -0.89129,0.632531 -0.89129,1.782587 0,0.833791 0.57502,1.380067 0.60378,0.546277 1.58133,0.977548 0.97755,0.40252 2.21386,0.776288 1.23631,0.373768 2.53012,0.83379 1.29382,0.460023 2.53013,1.092554 1.23631,0.603779 2.21385,1.523824 0.97755,0.891293 1.55258,2.185106 0.60378,1.293813 0.60378,3.105151 0,2.213858 -0.80504,4.082699 -0.80504,1.868841 -2.41512,3.220157 -1.58133,1.351316 -3.93894,2.098852 -2.32886,0.747537 -5.37651,0.747537 -1.52383,0 -3.04765,-0.287514 -1.52382,-0.287514 -2.96139,-0.776288 -1.40882,-0.488774 -2.61638,-1.150056 -1.20756,-0.690034 -2.0701,-1.466322 l 2.0701,-3.277659 q 0.37377,-0.575028 0.89129,-0.891294 0.51753,-0.345016 1.35132,-0.345016 0.77629,0 1.38006,0.345016 0.63254,0.345017 1.35132,0.747537 0.71879,0.402519 1.66758,0.747536 0.97755,0.345017 2.44387,0.345017 1.03505,0 1.75384,-0.20126 0.71878,-0.230011 1.15005,-0.603779 0.43127,-0.373768 0.63253,-0.833791 0.20126,-0.460022 0.20126,-0.948796 0,-0.891293 -0.60378,-1.466321 -0.60378,-0.575028 -1.58132,-0.977548 -0.97755,-0.431271 -2.24261,-0.776288 -1.23631,-0.373768 -2.53013,-0.83379 -1.29381,-0.460023 -2.55887,-1.092554 -1.23631,-0.661282 -2.21386,-1.638829 -0.97755,-1.006299 -1.58133,-2.443869 -0.60378,-1.43757 -0.60378,-3.47892 0,-1.897592 0.71879,-3.593925 0.74754,-1.725084 2.21386,-3.018897 1.46632,-1.293813 3.68018,-2.041349 2.21385,-0.776288 5.17525,-0.776288 1.61008,0 3.10515,0.287514 1.52382,0.287514 2.84639,0.805039 1.32256,0.517525 2.41512,1.23631 1.09255,0.690034 1.92634,1.523825 z m 17.53839,23.748657 q -2.1276,0 -3.76643,-0.60378 -1.61008,-0.632531 -2.73139,-1.753835 -1.09255,-1.150056 -1.66758,-2.760135 -0.57503,-1.610078 -0.57503,-3.593925 v -15.41075 h -2.53012 q -0.69003,0 -1.17881,-0.431271 -0.48877,-0.460022 -0.48877,-1.322564 v -3.47892 l 4.74398,-0.920045 1.75384,-7.274104 q 0.34501,-1.380067 1.95509,-1.380067 h 4.65773 v 8.711674 h 7.24535 v 6.095297 h -7.24535 v 14.806971 q 0,1.03505 0.48877,1.725084 0.51753,0.661282 1.46632,0.661282 0.48878,0 0.80504,-0.08625 0.34502,-0.115006 0.57503,-0.230011 0.25876,-0.143757 0.46002,-0.230011 0.23001,-0.115006 0.51753,-0.115006 0.40252,0 0.63253,0.20126 0.25876,0.172508 0.51752,0.575028 l 2.70264,4.226456 q -1.72509,1.293813 -3.88144,1.955095 -2.15636,0.632531 -4.45647,0.632531 z M 198.33672,70.61174 V 40.796538 h 5.29026 q 0.66128,0 1.09255,0.115006 0.46002,0.115006 0.74754,0.373768 0.31626,0.230011 0.46002,0.632531 0.17251,0.40252 0.28751,0.977548 l 0.48878,2.788885 q 1.63883,-2.530123 3.68018,-3.996444 2.04134,-1.466322 4.45646,-1.466322 2.04135,0 3.27766,0.977548 l -1.15005,6.555319 q -0.11501,0.60378 -0.46003,0.862542 -0.34501,0.230011 -0.92004,0.230011 -0.48877,0 -1.15006,-0.115005 -0.66128,-0.143757 -1.66758,-0.143757 -3.50767,0 -5.52027,3.737682 v 18.28589 z m 37.0318,-30.275224 q 3.39267,0 6.18155,1.063802 2.78889,1.063802 4.77274,3.047648 2.01259,1.983847 3.10515,4.830235 1.1213,2.817638 1.1213,6.35406 0,3.565173 -1.1213,6.440313 -1.09256,2.846389 -3.10515,4.858987 -1.98385,1.983847 -4.77274,3.0764 -2.78888,1.063802 -6.18155,1.063802 -3.42141,0 -6.23905,-1.063802 -2.78889,-1.092553 -4.83024,-3.0764 -2.01259,-2.012598 -3.1339,-4.858987 -1.09255,-2.87514 -1.09255,-6.440313 0,-3.536422 1.09255,-6.35406 1.12131,-2.846388 3.1339,-4.830235 2.04135,-1.983846 4.83024,-3.047648 2.81764,-1.063802 6.23905,-1.063802 z m 0,24.122425 q 3.0764,0 4.51397,-2.156355 1.46632,-2.185107 1.46632,-6.612822 0,-4.427716 -1.46632,-6.584071 -1.43757,-2.156355 -4.51397,-2.156355 -3.16265,0 -4.62897,2.156355 -1.46632,2.156355 -1.46632,6.584071 0,4.427715 1.46632,6.612822 1.46632,2.156355 4.62897,2.156355 z"
         id="path3" />
      <path
         d="m 252.27435,28.72095 h 8.16539 q 1.26506,0 2.09886,0.575028 0.86254,0.575028 1.1213,1.523825 l 5.75028,21.851064 q 0.28751,1.063801 0.57503,2.27136 0.28751,1.207559 0.43127,2.530123 0.28751,-1.351315 0.63253,-2.530123 0.34502,-1.207559 0.66128,-2.27136 l 6.78533,-21.851064 q 0.25877,-0.80504 1.09256,-1.43757 0.86254,-0.661283 2.0701,-0.661283 h 2.87514 q 1.26506,0 2.0701,0.575028 0.83379,0.546277 1.15005,1.523825 l 6.72783,21.851064 q 0.31627,1.006299 0.66128,2.156355 0.34502,1.121304 0.60378,2.415117 0.23001,-1.265061 0.46002,-2.415117 0.25877,-1.150056 0.51753,-2.156355 l 5.75028,-21.851064 q 0.23001,-0.833791 1.09255,-1.466322 0.86255,-0.632531 2.0701,-0.632531 h 7.64788 l -12.93813,41.89079 h -8.79793 l -7.87789,-25.962514 q -0.20126,-0.603779 -0.43127,-1.322564 -0.20126,-0.718785 -0.40252,-1.523825 -0.20126,0.80504 -0.43127,1.523825 -0.20126,0.718785 -0.40252,1.322564 L 274.0104,70.61174 h -8.79792 z m 91.71691,0 v 7.475364 h -17.19334 v 9.775476 h 13.16815 v 7.18785 h -13.16815 v 9.976736 h 17.19334 V 70.61174 H 317.02245 V 28.72095 Z m 5.52029,41.89079 V 28.72095 h 15.41075 q 4.34147,0 7.38911,0.80504 3.04765,0.805039 4.974,2.27136 1.92634,1.466322 2.78888,3.565174 0.8913,2.098852 0.8913,4.686478 0,1.408819 -0.40252,2.731383 -0.40252,1.293813 -1.26507,2.443869 -0.86254,1.150056 -2.21385,2.098852 -1.35132,0.920045 -3.24891,1.610079 4.1402,1.006299 6.12405,3.277659 1.98384,2.242609 1.98384,5.779032 0,2.67388 -1.03505,4.973992 -1.03505,2.300112 -3.04765,4.025196 -1.98384,1.696332 -4.91648,2.67388 -2.93265,0.948796 -6.69908,0.948796 z m 9.71798,-17.768365 v 10.436758 h 6.84283 q 1.92634,0 3.1339,-0.488774 1.23631,-0.488773 1.92635,-1.265061 0.69003,-0.776288 0.94879,-1.753836 0.25877,-0.977547 0.25877,-1.983846 0,-1.150056 -0.31627,-2.070101 -0.28751,-0.920045 -1.03505,-1.552576 -0.71879,-0.63253 -1.92634,-0.977547 -1.20756,-0.345017 -3.04765,-0.345017 z m 0,-6.497816 h 5.06024 q 1.61008,0 2.9039,-0.230012 1.29381,-0.230011 2.1851,-0.805039 0.92005,-0.575028 1.38007,-1.581327 0.48877,-1.006299 0.48877,-2.530123 0,-1.495073 -0.37377,-2.47262 -0.37376,-1.006299 -1.15005,-1.610079 -0.77629,-0.603779 -1.98385,-0.862542 -1.17881,-0.258762 -2.81764,-0.258762 h -5.69277 z"
         id="path4" />
    </g>
  </g>
</svg>
