<svg xmlns="http://www.w3.org/2000/svg" xmlns:xlink="http://www.w3.org/1999/xlink" xml:space="preserve" viewBox="0 0 512 512">
  <defs>
    <linearGradient id="a">
      <stop offset=".475" stop-color="#00633a"/>
      <stop offset=".847" stop-color="#d3ff3d"/>
    </linearGradient>
    <linearGradient xlink:href="#a" id="b" x1="411.574" x2="382.789" y1="439.315" y2="73.346" gradientTransform="translate(-3.582 1.06)scale(.27325)" gradientUnits="userSpaceOnUse"/>
  </defs>
  <g stroke-width=".273">
    <path fill="none" data-fill="#031b23" d="M0 0h512v512H0Z"/>
    <path fill="#e9bc00" d="M427.055 31c-2.99 4.571-30.583 45.713-47.416 70.867h8.04c.008 0 .015.004.022.004h.229q1.301 0 1.996.824.75.825.51 1.967l-.088.412-4.633 12.266q-.549 1.327-1.998 2.287-1.385.916-2.795.916h-13.78l-1.689 2.524-1.375 3.783h27.973c12.07-33.052 26.916-73.623 35.006-95.85zm-52.073 77.826c-1.59 2.377-2.598 3.89-4.261 6.373h4.968l2.348-6.373zm-16.781 25.08c-56.435 84.245-87.728 134.408-99.152 151.405 4.015 8.626 7.62 15.962 20.45 43.998 3.322 7.188 9.521 19.979 10.577 22.26 2.826 3.965 4.065 5.454 9.092 4.958h.025c4.978-.495 9.181-5.701 9.91-7.882.028-.07 6.867-18.494 7.164-19.336 9.947-26.764 32.964-85.223 73.205-195.403h-27.078z"/>
    <path fill="#e9bc00" d="m250.991 179.987 16.832-7.85 16.582-7.766 8.978 18.634 8.727 18.716 8.728 18.717-3.581 11.86-4.524 14.705c-2.389 6.385-9.843 26.038-13.565 35.803l-23.295 17.207-22.363-48.18-8.727-18.716c5.943-22.813 8.49-30.315 16.208-53.13"/>
    <path fill="url(#b)" d="m82.875 21.1-11.973.001H67.75c-7.357 0-14.19 2.923-19.147 7.802l-1.755 1.905a26 26 0 0 0-4.454 7.65l-.007.005-21.578 59.284c-1.455 5.543-.553 11.57 2.422 16.196s7.66 7.288 12.592 7.153l29.768.005c11.363 0 21.505-6.944 25.356-17.359l.007-.004 16.38-45.002H80.16l-6.525 17.927h8.491l-6.502 17.862v.001c-2 5.413-7.272 9.022-13.177 9.022 0 0 .098-.07-.001 0l-14.17-.003c-.035-.057-6.856-10.656-6.96-10.823l6.96 10.823c-.657 0-3.711-.011-5.837-3.317-1.38-2.144-1.797-4.937-1.123-7.506v-.001l16.396-45.045c2-5.413 7.272-9.022 13.177-9.022l-13.177 9.022c.056-.039 13.014-8.906 13.18-9.022h.01v.003h31.572l6.383-17.536-3.18-.019h-.105l-.09-.001H82.876z" transform="translate(13.108 -3.878)scale(3.6597)"/>
    <path fill="#e9bc00" d="M238.191 81.64c-4.977.495-9.181 5.699-9.91 7.883-.037.074-6.867 18.493-7.164 19.334C207.925 144.353 120.244 384.007 84.943 481c12.642-19.334 186.809-280.904 204.205-306.785-3.539-7.44-18.433-37.324-31.263-65.358-3.322-7.187-9.52-19.981-10.577-22.261-2.826-3.964-4.064-5.453-9.091-4.955Z"/>
    <path fill="#00633a" d="m316.408 73.345-10.393 28.554H190.978l-6.42 6.97h118.92l-10.45 28.716h12.236l10.51-28.717h25.359l-10.452 28.717h12.237l10.51-28.717h10.7v-.039h14.241l-2.645 6.383h-14.32q-.692 0-1.451.273-.749.228-1.447.684a8.6 8.6 0 0 0-1.217 1.049q-.509.547-.774 1.185l-5.046 12.22q-.088.135-.155.41-.292 1.185.41 2.005.766.776 2.043.776h21.85l-.002.005h13.914l2.537-6.968h-14.002l-.011.033H363.52l2.645-6.383h14.32q1.385 0 2.781-.912 1.463-.957 2.055-2.28l5.045-12.218.101-.41q.282-1.14-.42-1.961-.648-.82-1.925-.82h-32.144l10.448-28.555h-12.365L343.67 101.9h-25.346l10.45-28.555z"/>
  </g>
</svg>
