<svg xmlns="http://www.w3.org/2000/svg" xml:space="preserve" viewBox="0 0 512 512">
  <path class="icon-background" fill="#ffffff00" d="M0 0h512v512H0Z"/>
  <path fill="#00c72e" d="M66 371.097s2.033-16.955 6.685-27.763c3.554-8.26 7.567-15.59 13.064-22.7 6.695-8.662 11.92-16.08 20.495-22.876 8.586-6.805 16.262-12.91 26.216-17.476 7.182-3.296 14.266-6.99 22.02-8.503 33.374-6.514 67.79-5.364 101.687-8.046 33.895-2.682 68.093-2.787 101.687-8.046 6.84-1.07 13.725-2.361 20.219-4.768 6.07-2.25 11.843-5.368 17.245-8.94 7.288-4.818 13.692-10.875 20.219-16.688 4.925-4.386 9.358-8.934 13.751-13.856 2.828-3.17 8.4-11.771 8.4-11.771s-3.491 27.435-6.69 39.931c-3.022 11.806-7.858 23.49-13.365 34.357-5.03 9.925-10.945 18.725-18.609 26.783-6.73 7.076-14.235 12.579-22.561 17.67-6.359 3.887-14.22 7.868-21.48 9.535-32.582 7.479-65.165 1.754-98.588 2.104s-66.428-.897-99.85-.424c-5.306.074-12.248.178-17.493.986-8.989 1.384-18.372 3.028-26.743 6.59-6.292 2.676-12.671 6.422-18.418 10.131-6.8 4.39-9.886 6.922-16.35 11.795C72.123 363.207 66 371.097 66 371.097"/>
  <path fill="#ef940a" d="M69.615 287.356s3.655-39.007 14.66-59.874c11.678-22.142 15.692-29.104 36.612-43.552 19.621-13.55 46.942-18.417 70.716-20.024 29.653-2.004 59.493 3.711 89.144 1.686 18.117-1.238 35.454-5.196 52.877-10.325 15.293-4.503 28.911-12.958 44.677-17.49 14.406-4.14 29.623-6.225 44.572-5.162 7.26.516 23.127 6.321 23.127 6.321s-20.355 8.576-31.537 21.914c-8.544 10.192-16.6 21.26-26.596 30.027-7.088 6.217-14.16 12.913-22.811 16.647-16.213 6.996-34.828 6.509-52.352 8.639-25.379 3.085-50.982 4.076-76.529 5.057-26.053 1-53.907-3.43-79.846-.796-8.807.894-15.958 2.8-24.287 5.802-9.915 3.574-15.227 6.264-23.664 12.591-8.57 6.427-22.13 23.144-22.13 23.144z"/>
  <path fill="#fff" d="m167.715 95.308 130.898.348c1.97 1.144 61.296 60.5 61.296 60.5l.238 185.244c.008 6.322-.938 9.337-9.123 9.337h-183.31c-9.388 0-11.385-.892-11.385-10.254V106.719c0-10.085 1.127-11.438 11.386-11.411" color="#000"/>
  <path class="icon-primary" fill="#0318a6" d="M162.665 95.308c-3.43 0-6.336 2.908-6.336 6.347v242.731c0 3.439 2.905 6.35 6.336 6.35h191.146c3.43 0 6.336-2.911 6.336-6.35V159.663c-.077-.077-.309-.317-.39-.4a4.896 4.907 0 0 0-1.158-5.309l-29.427-28.4L300.583 96.8a4.896 4.907 0 0 0-1.97-1.144c-.064-.07-.268-.282-.329-.348zm5.087 11.448H292.22v50.731a4.896 4.907 0 0 0 4.896 4.907h51.608v176.894H167.752Zm134.26 5.382 20.26 20.38a4.896 4.907 0 0 0 .073.07l20.717 19.993h-41.05z" color="#000"/>
  <path fill="#504e4d" d="M192.847 132.124a12.22 12.22 0 0 0-12.241 12.26c0 6.795 5.46 12.268 12.241 12.268h57.11c6.78 0 12.241-5.473 12.241-12.268s-5.46-12.26-12.24-12.26zM188.76 175a8.143 8.143 0 0 0-8.154 8.173c0 4.53 3.634 8.182 8.154 8.182h130.548c4.52 0 8.155-3.652 8.155-8.182a8.143 8.143 0 0 0-8.155-8.173zm0 29.95a8.143 8.143 0 0 0-8.154 8.172c0 4.53 3.634 8.183 8.154 8.183h130.548c4.52 0 8.155-3.652 8.155-8.183a8.143 8.143 0 0 0-8.155-8.173zm0 29.949a8.143 8.143 0 0 0-8.154 8.173c0 4.53 3.634 8.182 8.154 8.182h130.548c4.52 0 8.155-3.652 8.155-8.182a8.143 8.143 0 0 0-8.155-8.173zm0 29.949c-4.52 0-8.154 3.652-8.154 8.182a8.143 8.143 0 0 0 8.154 8.173h130.548a8.143 8.143 0 0 0 8.155-8.173c0-4.53-3.634-8.182-8.155-8.182zm0 29.95c-4.52 0-8.154 3.651-8.154 8.181a8.143 8.143 0 0 0 8.154 8.173h130.548a8.143 8.143 0 0 0 8.155-8.173c0-4.53-3.634-8.182-8.155-8.182z"/>
  <path fill="#fff" d="M363.563 293.716a53.034 53.152 0 0 1-53.034 53.152 53.034 53.152 0 0 1-53.034-53.152 53.034 53.152 0 0 1 53.034-53.153 53.034 53.152 0 0 1 53.034 53.153"/>
  <path class="icon-secondary" fill="#e70e0e" d="M308.166 209.78c-1.613.049-8.423 12.793-10.01 13.091-1.588.298-12.32-9.155-13.846-8.615-1.527.54-4.403 14.804-5.835 15.573-1.431.77-14.37-4.993-15.674-4.01-1.305.981.008 15.497-1.14 16.67-1.149 1.173-15.146-.387-16.112.95s4.418 14.814 3.656 16.286c-.763 1.471-14.575 4.254-15.118 5.827-.542 1.573 8.437 12.816 8.128 14.456-.31 1.64-12.709 8.515-12.78 10.184-.07 1.67 11.706 9.678 11.878 11.34.17 1.663-9.715 12.022-9.307 13.64.409 1.617 13.934 5.68 14.57 7.216s-5.856 14.458-5.005 15.88c.85 1.423 14.924 1.178 15.97 2.453 1.045 1.276-1.48 15.612-.262 16.712s14.588-3.43 15.95-2.53c.35.232.722 1.388 1.105 2.954l-14.978 48.527c-.909 2.945 2.6 5.177 4.797 3.18l20.732-18.855 7.589 24.313c.804 2.577 4.955 2.082 5.864-.863l14.72-47.692 14.721 47.692c.91 2.945 5.061 3.44 5.865.863l7.589-24.313 20.732 18.854c2.196 1.998 5.706-.234 4.797-3.179l-15.611-50.58c-.056-.18-.138-.346-.206-.52.276-1.476.564-2.55.885-2.792 1.305-.982 14.925 2.72 16.073 1.548s-2.239-15.328-1.273-16.665c.967-1.337 15.029-1.954 15.791-3.426s-6.5-13.971-5.958-15.545 13.796-6.456 14.106-8.095-10.185-11.375-10.115-13.044 11.339-10.384 11.167-12.046c-.17-1.663-12.964-7.766-13.372-9.384s7.873-13.389 7.237-14.926-14.592-3.468-15.442-4.89 3.708-15.204 2.662-16.48c-1.045-1.275-14.922 1.14-16.14.04-1.216-1.1-.786-15.67-2.147-16.57s-13.927 5.644-15.402 4.964c-1.476-.68-5.211-14.742-6.767-15.188s-11.696 9.648-13.299 9.448-9.172-12.503-10.785-12.454zm2.364 30.784a53.034 53.152 0 0 1 53.033 53.152 53.034 53.152 0 0 1-53.033 53.152 53.034 53.152 0 0 1-53.034-53.152 53.034 53.152 0 0 1 53.034-53.152"/>
  <path fill="#101010" d="m316.045 247.972-.613 2.395 3.876.887-2.706 10.641 3.2.731 2.697-10.65 3.876.887.613-2.395zm-9.499.073a8 8 0 0 0-.64.036c-.772.08-1.447.27-2.02.558a4.5 4.5 0 0 0-1.408 1.042 3.8 3.8 0 0 0-.795 1.372 3.6 3.6 0 0 0-.147 1.499q.106.932.448 1.545.347.602.832.987c.329.25.685.447 1.08.585.392.132.799.239 1.206.32.406.075.794.142 1.18.201.384.06.737.13 1.041.229q.465.146.768.411t.357.732q.093.807-.357 1.234-.448.418-1.334.512a3.4 3.4 0 0 1-1.161-.055 6 6 0 0 1-.906-.302c-.26-.115-.5-.215-.713-.31a1.1 1.1 0 0 0-.594-.11.9.9 0 0 0-.411.137.76.76 0 0 0-.265.302l-.796 1.545a5 5 0 0 0 1.052.612 8 8 0 0 0 1.261.43c.443.108.902.18 1.362.22q.699.057 1.353-.009 1.197-.123 2.094-.558c.604-.297 1.102-.665 1.48-1.106a4 4 0 0 0 .824-1.508 4.4 4.4 0 0 0 .137-1.765c-.064-.555-.214-1.017-.439-1.39a3.2 3.2 0 0 0-.832-.94 3.8 3.8 0 0 0-1.079-.568 10 10 0 0 0-1.206-.338 20 20 0 0 0-1.198-.238 9 9 0 0 1-1.042-.255 2.4 2.4 0 0 1-.759-.384.9.9 0 0 1-.347-.64q-.074-.631.329-1.043.41-.423 1.325-.52a3 3 0 0 1 .96.045c.287.057.543.123.768.21.232.088.444.173.622.247.184.068.345.089.494.073.167-.017.298-.062.393-.146.1-.085.194-.21.274-.366l.64-1.517a4.6 4.6 0 0 0-.923-.503 6 6 0 0 0-1.08-.338 6.4 6.4 0 0 0-1.197-.165 7 7 0 0 0-.63-.008zm-15.093 4.507a8 8 0 0 0-.722.064c-.97.11-1.93.419-2.89.933q-1.437.771-2.349 1.865c-.607.727-1.035 1.503-1.28 2.34a6.2 6.2 0 0 0-.173 2.587q.194 1.337.95 2.606a7.4 7.4 0 0 0 1.865 2.111c.744.56 1.552.958 2.432 1.198a7.3 7.3 0 0 0 2.78.174c.97-.119 1.939-.437 2.897-.951q1.439-.77 2.34-1.856.912-1.091 1.271-2.34a6.2 6.2 0 0 0 .156-2.597q-.186-1.339-.942-2.605a7.2 7.2 0 0 0-1.865-2.094 6.9 6.9 0 0 0-2.422-1.197 7 7 0 0 0-2.048-.238m40.554.347-6.957 11.684 2.87 1.536 6.966-11.684zm-40.435 2.35q.378.04.74.164.736.242 1.39.814c.432.375.816.85 1.16 1.426.348.583.585 1.142.705 1.692a3.6 3.6 0 0 1 .008 1.544 3.1 3.1 0 0 1-.64 1.317q-.496.593-1.317 1.033a4.7 4.7 0 0 1-1.627.54 3.6 3.6 0 0 1-1.527-.147 4.1 4.1 0 0 1-1.38-.814q-.651-.57-1.17-1.444-.52-.866-.695-1.682c-.12-.55-.13-1.058-.028-1.536.108-.48.332-.925.659-1.326q.498-.606 1.325-1.051a4.4 4.4 0 0 1 1.61-.521c.265-.03.532-.035.785-.008zm48.47 2.505-9.827 9.654 6.134 5.613 1.829-1.792-3.776-3.446 8.008-7.863zm-62.513 5.915a4 4 0 0 0-.895.091c-.605.126-1.212.397-1.82.823-.61.417-1.211 1.014-1.792 1.782l-2.907 3.85 11.52 7.807 1.91-2.533-3.849-2.605.997-1.326c.569-.754.963-1.461 1.188-2.14q.336-1.03.229-1.919a3.6 3.6 0 0 0-.631-1.636 5.2 5.2 0 0 0-1.38-1.335 5.1 5.1 0 0 0-1.674-.75 4 4 0 0 0-.896-.11zm-.548 2.953c.135.005.266.028.402.064q.41.107.805.374c.595.404.947.857 1.06 1.372.113.514-.078 1.105-.576 1.764l-.996 1.317-3.648-2.478.997-1.316a3.1 3.1 0 0 1 .75-.732c.26-.177.523-.295.795-.338.134-.025.275-.032.411-.027m72.743 1.39-12.497 6.307 4.013 7.13 2.313-1.17-2.468-4.387 10.184-5.13zm-69.031 10.979-14.975 2.35-.686 3.117 12.744 7.816.521-2.377c.056-.252.038-.475-.064-.676a1.1 1.1 0 0 0-.411-.448l-2.249-1.253 1.097-5 2.587-.293a1.1 1.1 0 0 0 .585-.256q.249-.225.339-.622zm74.982 1.782-13.969 2.158 1.463 8.52 2.496-.384-.933-5.43 3.328-.512.713 4.16 2.395-.366-.713-4.169 3.264-.503.933 5.44 2.495-.384zm-81.345 2.02-.786 3.594-3.511-1.957a16 16 0 0 0-.795-.457c-.308-.167-.64-.34-1.006-.512a32 32 0 0 0 1.134-.091c.347-.044.647-.089.905-.12zm3.465 18.495-9.307 12.086 1.417 2.633 14.728-2.03-1.27-2.358a1.06 1.06 0 0 0-.522-.494c-.21-.095-.41-.134-.594-.1l-7.725 1.37q-.505.093-1.088.22a14 14 0 0 0-1.189.33c.31-.311.6-.616.869-.924q.408-.456.74-.869l5.12-6.198c.144-.175.233-.378.256-.603.023-.226-.038-.461-.174-.713zm68.775.174a6 6 0 0 0-1.92.402c-.82.318-1.577.81-2.267 1.49q-1.032 1.012-1.719 2.532l-2.276 5.056 12.47 6.134 2.276-5.064c.457-1.013.72-2.001.786-2.98a7.3 7.3 0 0 0-.338-2.78 6.8 6.8 0 0 0-1.362-2.34 7.2 7.2 0 0 0-2.277-1.719q-1.345-.662-2.706-.731a6 6 0 0 0-.667 0m-.63 3.218c.263-.018.545-.002.831.036a5.8 5.8 0 0 1 1.783.567 6 6 0 0 1 1.563 1.079q.632.614.942 1.344c.203.478.29.99.274 1.535a4.5 4.5 0 0 1-.42 1.683l-.915 2.02-8.017-3.94.914-2.02q.39-.867.978-1.408a3.2 3.2 0 0 1 1.307-.76q.363-.11.76-.136m-8.713 7.56-6.372 6.445 9.599 10.33 6.372-6.454-1.71-1.837-4.068 4.114-2.285-2.469 3.117-3.144-1.645-1.774-3.118 3.154-2.24-2.413 4.069-4.114zm-51.561 2.23-8.868 11.017 6.793 5.96 1.59-1.965-4.333-3.803 2.112-2.624 3.318 2.916 1.518-1.892-3.319-2.907 2.067-2.578 4.333 3.803 1.581-1.966zm42.154 6.071-2.825 1.59 6.527 12.672 2.834-1.591zm-33.78.95-4.763 13.494 2.999 1.161 1.764-5 .759.292q.346.136.493.32.159.188.21.503l.76 4.745c.079.48.374.812.877 1.005l2.715 1.052-1.097-5.76a2.5 2.5 0 0 0-.256-.74 3 3 0 0 0-.42-.604 4.3 4.3 0 0 0 1.334-.219 3.95 3.95 0 0 0 2.012-1.454c.25-.345.457-.74.612-1.179q.303-.86.274-1.7a3.5 3.5 0 0 0-.466-1.618c-.288-.518-.723-1.001-1.316-1.454-.585-.457-1.35-.865-2.286-1.225zm28.368 2.122-8.667 2.002 2.99 14.051 3.135-.731-1.16-5.467 4.598-1.06-.53-2.524-4.608 1.07-.75-3.556 5.522-1.28zm-26.192 1.371 1.206.466q1.163.45 1.536 1.161c.256.477.274 1.016.064 1.61a2.8 2.8 0 0 1-.411.786 1.8 1.8 0 0 1-.64.512c-.251.12-.54.174-.868.173q-.485-.003-1.097-.238l-1.207-.466zm10.778.375-.786 14.371 3.218.192.777-14.371z"/>
  <path class="icon-primary" fill="#0318a6" d="M329.88 275.786c-.882 0-1.763.339-2.439 1.016l-23.426 23.478-10.217-10.24a4.05 4.05 0 0 0-5.748 0l-.69.692a4.07 4.07 0 0 0 0 5.761l13.567 13.598c.284.284.599.515.932.698a3.433 3.433 0 0 0 4.705-.157l27.316-27.377a3.455 3.455 0 0 0 0-4.89l-1.561-1.563a3.43 3.43 0 0 0-2.439-1.016"/>
</svg>
